<?xml version="1.0" encoding="UTF-8"?>
<svg width="294.91" height="381.74" version="1.1" xmlns="http://www.w3.org/2000/svg" xmlns:xlink="http://www.w3.org/1999/xlink"><defs><linearGradient id="a" x1="225.06" x2="179.49" y1="237" y2="304.49" gradientUnits="userSpaceOnUse"><stop stop-color="#fff" offset=".01"/><stop stop-color="#f9f5fb" offset=".21"/><stop stop-color="#e9dbf2" offset=".56"/><stop stop-color="#d1b4e3" offset=".97"/></linearGradient><linearGradient id="r" x1="224.8" x2="180.18" y1="237.82" y2="303.9" xlink:href="#a"/><linearGradient id="s" x1="224.55" x2="180.84" y1="238.62" y2="303.36" xlink:href="#a"/><linearGradient id="t" x1="224.31" x2="181.47" y1="239.41" y2="302.86" xlink:href="#a"/><linearGradient id="u" x1="224.07" x2="182.03" y1="240.15" y2="302.42" xlink:href="#a"/><linearGradient id="v" x1="223.84" x2="182.57" y1="240.88" y2="302.01" xlink:href="#a"/><linearGradient id="w" x1="223.46" x2="182.88" y1="241.46" y2="301.56" xlink:href="#a"/><linearGradient id="x" x1="222.98" x2="183.01" y1="241.93" y2="301.13" xlink:href="#a"/><linearGradient id="y" x1="222.43" x2="182.96" y1="242.27" y2="300.74" xlink:href="#a"/><linearGradient id="z" x1="221.88" x2="182.77" y1="242.54" y2="300.47" xlink:href="#a"/><linearGradient id="bz" x1="221.1" x2="182.23" y1="242.57" y2="300.13" xlink:href="#a"/><linearGradient id="by" x1="220.22" x2="181.55" y1="242.51" y2="299.78" xlink:href="#a"/><linearGradient id="b" x1="196.92" x2="185" y1="323.04" y2="218.05" gradientUnits="userSpaceOnUse"><stop stop-color="#fff" offset="0"/><stop offset="1"/></linearGradient><linearGradient id="bw" x1="196.54" x2="187.06" y1="320" y2="236.43" xlink:href="#b"/><linearGradient id="bv" x1="185.16" x2="196.88" y1="230" y2="337.38" xlink:href="#a"/><linearGradient id="bu" x1="185.3" x2="196.84" y1="231.14" y2="336.79" xlink:href="#a"/><linearGradient id="bt" x1="185.44" x2="196.79" y1="232.28" y2="336.2" xlink:href="#a"/><linearGradient id="bs" x1="185.58" x2="196.73" y1="233.41" y2="335.61" xlink:href="#a"/><linearGradient id="br" x1="185.71" x2="196.68" y1="234.54" y2="335.02" xlink:href="#a"/><linearGradient id="bq" x1="185.84" x2="196.62" y1="235.67" y2="334.43" xlink:href="#a"/><linearGradient id="bp" x1="185.96" x2="196.55" y1="236.8" y2="333.85" xlink:href="#a"/><linearGradient id="bo" x1="186.08" x2="196.49" y1="237.93" y2="333.27" xlink:href="#a"/><linearGradient id="bn" x1="186.19" x2="196.41" y1="239.05" y2="332.69" xlink:href="#a"/><linearGradient id="bm" x1="186.31" x2="196.34" y1="240.18" y2="332.11" xlink:href="#a"/><linearGradient id="bl" x1="186.41" x2="196.26" y1="241.31" y2="331.53" xlink:href="#a"/><linearGradient id="bk" x1="186.52" x2="196.18" y1="242.43" y2="330.95" xlink:href="#a"/><linearGradient id="bj" x1="197.91" x2="205.55" y1="280.22" y2="350.38" xlink:href="#a"/><linearGradient id="bi" x1="197.69" x2="205.13" y1="280.98" y2="349.25" xlink:href="#a"/><linearGradient id="bh" x1="197.48" x2="204.72" y1="281.67" y2="348.14" xlink:href="#a"/><linearGradient id="bg" x1="197.28" x2="204.33" y1="282.31" y2="347.06" xlink:href="#a"/><linearGradient id="bf" x1="197.09" x2="203.96" y1="282.9" y2="346" xlink:href="#a"/><linearGradient id="be" x1="196.92" x2="203.63" y1="283.43" y2="344.96" xlink:href="#a"/><linearGradient id="bd" x1="196.79" x2="203.33" y1="283.91" y2="343.95" xlink:href="#a"/><linearGradient id="bc" x1="196.71" x2="203.09" y1="284.34" y2="342.94" xlink:href="#a"/><linearGradient id="bb" x1="196.78" x2="203.01" y1="284.74" y2="341.93" xlink:href="#a"/><linearGradient id="ba" x1="196.97" x2="203.05" y1="285.1" y2="340.92" xlink:href="#a"/><linearGradient id="aa" x1="197.34" x2="203.28" y1="285.43" y2="339.89" xlink:href="#a"/><linearGradient id="ab" x1="198.07" x2="203.86" y1="285.7" y2="338.84" xlink:href="#a"/><linearGradient id="ac" x1="196.69" x2="144.07" y1="281.54" y2="359.48" xlink:href="#a"/><linearGradient id="ad" x1="195" x2="146.5" y1="282.31" y2="354.15" xlink:href="#a"/><linearGradient id="ae" x1="194.33" x2="148.59" y1="280.99" y2="348.73" xlink:href="#a"/><linearGradient id="af" x1="193.56" x2="152.45" y1="282.43" y2="343.31" xlink:href="#a"/><linearGradient id="c" x1="225.14" x2="285.05" y1="176.43" y2="158.49" gradientUnits="userSpaceOnUse"><stop stop-color="#6b24d6" offset=".04"/><stop stop-color="#7733dc" offset=".29"/><stop stop-color="#975ced" offset=".79"/><stop stop-color="#a56ef4" offset="1"/></linearGradient><linearGradient id="ar" x1="-173.8" x2="-102.02" y1="183.52" y2="167.43" gradientTransform="matrix(-1 0 0 1 19.38 0)" xlink:href="#c"/><linearGradient id="as" x1="192.54" x2="192.54" y1="228.05" y2="268.53" gradientUnits="userSpaceOnUse"><stop stop-color="#f8299a" offset="0"/><stop stop-color="#c9217d" offset=".1"/><stop stop-color="#94195c" offset=".23"/><stop stop-color="#671140" offset=".36"/><stop stop-color="#420b29" offset=".49"/><stop stop-color="#250617" offset=".62"/><stop stop-color="#10030a" offset=".75"/><stop stop-color="#040103" offset=".88"/><stop offset="1"/></linearGradient><linearGradient id="at" x1="192.54" x2="192.54" y1="228.1" y2="267.94" gradientUnits="userSpaceOnUse"><stop stop-color="#f93a9b" offset="0"/><stop stop-color="#d63285" offset=".08"/><stop stop-color="#9e2562" offset=".22"/><stop stop-color="#6e1a44" offset=".36"/><stop stop-color="#46102c" offset=".49"/><stop stop-color="#270919" offset=".63"/><stop stop-color="#12040b" offset=".76"/><stop stop-color="#040103" offset=".88"/><stop offset="1"/></linearGradient><linearGradient id="au" x1="192.54" x2="192.54" y1="228.16" y2="267.35" gradientUnits="userSpaceOnUse"><stop stop-color="#f94b9c" offset="0"/><stop stop-color="#e4458f" offset=".05"/><stop stop-color="#a9336a" offset=".2"/><stop stop-color="#752349" offset=".35"/><stop stop-color="#4b172f" offset=".49"/><stop stop-color="#2a0d1b" offset=".63"/><stop stop-color="#13060c" offset=".77"/><stop stop-color="#050103" offset=".89"/><stop offset="1"/></linearGradient><linearGradient id="av" x1="192.54" x2="192.54" y1="228.21" y2="266.76" gradientUnits="userSpaceOnUse"><stop stop-color="#fa5c9e" offset="0"/><stop stop-color="#f55a9b" offset=".01"/><stop stop-color="#b54373" offset=".17"/><stop stop-color="#7e2e50" offset=".33"/><stop stop-color="#511e33" offset=".49"/><stop stop-color="#2e111d" offset=".64"/><stop stop-color="#15080d" offset=".77"/><stop stop-color="#050203" offset=".9"/><stop offset="1"/></linearGradient><linearGradient id="aw" x1="192.54" x2="192.54" y1="228.26" y2="266.16" gradientUnits="userSpaceOnUse"><stop stop-color="#fb6d9f" offset="0"/><stop stop-color="#c3557c" offset=".14"/><stop stop-color="#893b57" offset=".32"/><stop stop-color="#582638" offset=".48"/><stop stop-color="#32161f" offset=".64"/><stop stop-color="#160a0e" offset=".78"/><stop stop-color="#060304" offset=".9"/><stop offset="1"/></linearGradient><linearGradient id="ax" x1="192.54" x2="192.54" y1="228.31" y2="265.57" gradientUnits="userSpaceOnUse"><stop stop-color="#fb7ea0" offset="0"/><stop stop-color="#d56b88" offset=".1"/><stop stop-color="#954b5f" offset=".29"/><stop stop-color="#60303d" offset=".47"/><stop stop-color="#361b23" offset=".63"/><stop stop-color="#190c10" offset=".78"/><stop stop-color="#060304" offset=".91"/><stop offset="1"/></linearGradient><linearGradient id="ay" x1="192.54" x2="192.54" y1="228.36" y2="264.98" gradientUnits="userSpaceOnUse"><stop stop-color="#fc8fa1" offset="0"/><stop stop-color="#eb8596" offset=".05"/><stop stop-color="#a45d69" offset=".25"/><stop stop-color="#6a3c44" offset=".45"/><stop stop-color="#3c2226" offset=".62"/><stop stop-color="#1b0f11" offset=".78"/><stop stop-color="#070405" offset=".91"/><stop offset="1"/></linearGradient><linearGradient id="az" x1="192.54" x2="192.54" y1="228.41" y2="264.39" gradientUnits="userSpaceOnUse"><stop stop-color="#fca0a2" offset="0"/><stop stop-color="#b67475" offset=".21"/><stop stop-color="#764b4c" offset=".42"/><stop stop-color="#432b2b" offset=".61"/><stop stop-color="#1f1314" offset=".78"/><stop stop-color="#080505" offset=".91"/><stop offset="1"/></linearGradient><linearGradient id="aA" x1="192.54" x2="192.54" y1="228.46" y2="263.8" gradientUnits="userSpaceOnUse"><stop stop-color="#fdb1a3" offset="0"/><stop stop-color="#cf9185" offset=".14"/><stop stop-color="#865e56" offset=".38"/><stop stop-color="#4c3531" offset=".59"/><stop stop-color="#231816" offset=".77"/><stop stop-color="#090706" offset=".91"/><stop offset="1"/></linearGradient><linearGradient id="aB" x1="192.54" x2="192.54" y1="228.51" y2="263.21" gradientUnits="userSpaceOnUse"><stop stop-color="#fec2a5" offset="0"/><stop stop-color="#efb69b" offset=".05"/><stop stop-color="#9b7665" offset=".32"/><stop stop-color="#584439" offset=".56"/><stop stop-color="#291f1a" offset=".76"/><stop stop-color="#0b0807" offset=".91"/><stop offset="1"/></linearGradient><linearGradient id="aC" x1="192.54" x2="192.54" y1="228.56" y2="262.61" gradientUnits="userSpaceOnUse"><stop stop-color="#fed3a6" offset="0"/><stop stop-color="#b79877" offset=".23"/><stop stop-color="#695745" offset=".51"/><stop stop-color="#302820" offset=".74"/><stop stop-color="#0d0b09" offset=".91"/><stop offset="1"/></linearGradient><linearGradient id="aD" x1="192.54" x2="192.54" y1="228.61" y2="262.02" gradientUnits="userSpaceOnUse"><stop stop-color="#ffe4a7" offset="0"/><stop stop-color="#e1ca94" offset=".1"/><stop stop-color="#827455" offset=".43"/><stop stop-color="#3c3627" offset=".71"/><stop stop-color="#110f0b" offset=".9"/><stop offset="1"/></linearGradient><linearGradient id="aE" x1="182.19" x2="202.77" y1="221.23" y2="221.23" gradientUnits="userSpaceOnUse"><stop stop-color="#45108a" offset=".02"/><stop stop-color="#3d065f" offset=".29"/><stop stop-color="#12054e" offset="1"/><stop stop-color="#10054d" offset="1"/></linearGradient><linearGradient id="e" x1="167.8" x2="216.97" y1="205.3" y2="205.3" gradientUnits="userSpaceOnUse"><stop stop-color="#5c1ccc" offset="0"/><stop stop-color="#6323d0" offset=".03"/><stop stop-color="#7538da" offset=".07"/><stop stop-color="#9259ea" offset=".12"/><stop stop-color="#a56ef4" offset=".14"/><stop stop-color="#c994ff" offset=".23"/><stop stop-color="#ae7af0" offset=".28"/><stop stop-color="#7945d1" offset=".38"/><stop stop-color="#4916a1" offset=".54"/><stop stop-color="#4b17a4" offset=".62"/><stop stop-color="#521aaf" offset=".69"/><stop stop-color="#5d1ec1" offset=".76"/><stop stop-color="#6b24d6" offset=".82"/><stop stop-color="#5b1dbd" offset=".94"/><stop stop-color="#531ab0" offset="1"/></linearGradient><linearGradient id="aG" x1="153.22" x2="231.36" y1="128.77" y2="128.77" gradientUnits="userSpaceOnUse"><stop stop-color="#c1a1d5" offset=".01"/><stop stop-color="#c8abda" offset=".04"/><stop stop-color="#dac6e6" offset=".1"/><stop stop-color="#f7f2f9" offset=".18"/><stop stop-color="#fff" offset=".2"/><stop stop-color="#f9f5fb" offset=".23"/><stop stop-color="#e9dbf2" offset=".29"/><stop stop-color="#d1b4e3" offset=".36"/><stop stop-color="#b395d6" offset=".43"/><stop stop-color="#9c7dcb" offset=".49"/><stop stop-color="#8e6ec5" offset=".56"/><stop stop-color="#8969c3" offset=".61"/><stop stop-color="#9471c6" offset=".76"/><stop stop-color="#b086cc" offset="1"/></linearGradient><linearGradient id="d" x1="177.57" x2="218.76" y1="63.43" y2="80.12" gradientUnits="userSpaceOnUse"><stop stop-color="#5c1ccc" offset="0"/><stop stop-color="#6323d0" offset=".04"/><stop stop-color="#7538da" offset=".09"/><stop stop-color="#9259ea" offset=".16"/><stop stop-color="#a56ef4" offset=".19"/><stop stop-color="#7945d1" offset=".34"/><stop stop-color="#6d37c7" offset=".44"/><stop stop-color="#5e27ba" offset=".6"/><stop stop-color="#561db2" offset=".77"/><stop stop-color="#531ab0" offset="1"/></linearGradient><linearGradient id="aI" x1="210.63" x2="157.43" y1="61.3" y2="87.35" xlink:href="#d"/><linearGradient id="aL" x1="163.64" x2="184.89" y1="126.69" y2="163.49" xlink:href="#e"/><linearGradient id="aM" x1="154.97" x2="184.6" y1="147.62" y2="147.62" gradientTransform="rotate(30.31 169.78 147.62)" gradientUnits="userSpaceOnUse"><stop stop-color="#a56ef4" offset=".04"/><stop stop-color="#c994ff" offset=".36"/><stop stop-color="#b379f5" offset=".54"/><stop stop-color="#7935dc" offset=".91"/><stop stop-color="#6b24d6" offset="1"/></linearGradient><linearGradient id="aN" x1="177.97" x2="161.13" y1="161.81" y2="132.64" gradientTransform="rotate(30.31 169.78 147.62)" gradientUnits="userSpaceOnUse"><stop stop-color="#138bbd" offset=".04"/><stop stop-color="#169ac7" offset=".23"/><stop stop-color="#1fc3df" offset=".59"/><stop stop-color="#2af6ff" offset="1"/></linearGradient><linearGradient id="aO" x1="158.12" x2="173.65" y1="130.31" y2="149.8" xlink:href="#b"/><linearGradient id="aP" x1="174.79" x2="158.04" y1="164.16" y2="135.14" gradientUnits="userSpaceOnUse"><stop stop-color="#5c1ccc" offset="0"/><stop stop-color="#ba85ff" offset=".23"/><stop stop-color="#7945d1" offset=".38"/><stop stop-color="#4916a1" offset=".54"/><stop stop-color="#4b17a4" offset=".61"/><stop stop-color="#521aaf" offset=".68"/><stop stop-color="#5d1ec1" offset=".74"/><stop stop-color="#6b24d6" offset=".79"/><stop stop-color="#5b1dbd" offset=".93"/><stop stop-color="#531ab0" offset="1"/></linearGradient><linearGradient id="aS" x1="151.13" x2="171.51" y1="230.71" y2="168.32" gradientUnits="userSpaceOnUse"><stop stop-color="#7734dc" offset=".2"/><stop stop-color="#8c4fe7" offset=".39"/><stop stop-color="#a56ef4" offset=".59"/><stop stop-color="#ba8aff" offset=".67"/><stop stop-color="#a067f1" offset=".8"/><stop stop-color="#9155ea" offset="1"/></linearGradient><linearGradient id="aT" x1="150.63" x2="220.62" y1="209.58" y2="188.63" xlink:href="#c"/><linearGradient id="aV" x1="227.68" x2="216.56" y1="210.97" y2="178.08" gradientUnits="userSpaceOnUse"><stop stop-color="#6b24d6" offset=".04"/><stop stop-color="#7733dc" offset=".19"/><stop stop-color="#7734dc" offset=".2"/><stop stop-color="#8c4fe7" offset=".39"/><stop stop-color="#a56ef4" offset=".59"/><stop stop-color="#ba8aff" offset=".67"/><stop stop-color="#a067f1" offset=".8"/><stop stop-color="#9155ea" offset="1"/></linearGradient><linearGradient id="aW" x1="-157.56" x2="-48.32" y1="218.46" y2="193.97" gradientTransform="matrix(-1 0 0 1 119.98 0)" xlink:href="#c"/><linearGradient id="q" x1="225.06" x2="179.49" y1="237" y2="304.49" gradientUnits="userSpaceOnUse" xlink:href="#a"/><linearGradient id="bx" x1="196.92" x2="185" y1="323.04" y2="218.05" gradientUnits="userSpaceOnUse" xlink:href="#b"/><linearGradient id="aq" x1="225.14" x2="285.05" y1="176.43" y2="158.49" gradientUnits="userSpaceOnUse" xlink:href="#c"/><linearGradient id="aF" x1="167.8" x2="216.97" y1="205.3" y2="205.3" gradientUnits="userSpaceOnUse" xlink:href="#e"/><linearGradient id="aH" x1="177.57" x2="218.76" y1="63.43" y2="80.12" gradientUnits="userSpaceOnUse" xlink:href="#d"/><radialGradient id="i" cx="-1332.82" cy="-1487.86" r="167.71" gradientTransform="matrix(.7038 0 0 .7413 1129.38 1227.27)" gradientUnits="userSpaceOnUse"><stop stop-color="#627ef0" offset="0"/><stop stop-color="#4458a7" offset=".25"/><stop stop-color="#273260" offset=".52"/><stop stop-color="#12172c" offset=".74"/><stop stop-color="#05060c" offset=".91"/><stop offset="1"/></radialGradient><radialGradient id="j" cx="-1332.82" cy="189.08" r="137.3" gradientTransform="matrix(.7038 0 0 .9906 1129.38 10.7)" gradientUnits="userSpaceOnUse"><stop stop-color="#fa45c1" offset="0"/><stop stop-color="#cb389d" offset=".21"/><stop stop-color="#571843" offset=".67"/><stop offset="1"/></radialGradient><radialGradient id="f" cx="3489.48" cy="-561.83" r="31.85" gradientTransform="matrix(2.76442 -4e-5 3e-5 .89973 -9558.57 814.58)" gradientUnits="userSpaceOnUse"><stop stop-color="#43e8e1" offset="0"/><stop stop-color="#34b5b0" offset=".14"/><stop stop-color="#257f7b" offset=".3"/><stop stop-color="#17514f" offset=".46"/><stop stop-color="#0d2e2d" offset=".62"/><stop stop-color="#061514" offset=".76"/><stop stop-color="#020505" offset=".89"/><stop offset="1"/></radialGradient><radialGradient id="k" cx="5972.22" cy="-6469.56" r="31.85" gradientTransform="matrix(1.66017 4e-5 -3e-5 .58923 -10146.1 4084.47)" xlink:href="#f"/><radialGradient id="l" cx="8193.7" cy="11700" r="31.85" gradientTransform="matrix(-1.66016 3e-5 4e-5 -.5893 13894.6 7186.3)" xlink:href="#f"/><radialGradient id="m" cx="3576.69" cy="14129.8" r="31.85" gradientTransform="matrix(-1.66014 -2e-5 -2e-5 -.58922 6147.2 8562.64)" xlink:href="#f"/><radialGradient id="n" cx="3182.18" cy="-1326.31" r="31.85" gradientTransform="matrix(1.97011 0 1e-5 .89976 -5992.6 1445.62)" xlink:href="#f"/><radialGradient id="o" cx="2094.33" cy="3526.31" r="31.85" gradientTransform="matrix(-1e-5 1.97017 -.89978 -4e-5 3446.83 -3786.4)" xlink:href="#f"/><radialGradient id="p" cx="1969.22" cy="4151.45" r="31.85" gradientTransform="matrix(3e-5 1.97012 -.89979 2e-5 3861.75 -3629.81)" xlink:href="#f"/><radialGradient id="g" cx="270.78" cy="46.28" r="5" gradientUnits="userSpaceOnUse"><stop stop-color="#1bb0d4" offset=".09"/><stop stop-color="#1b89b4" offset=".1"/><stop stop-color="#1b2b69" offset=".13"/><stop stop-color="#172458" offset=".16"/><stop stop-color="#10193d" offset=".22"/><stop stop-color="#0a1026" offset=".3"/><stop stop-color="#050915" offset=".38"/><stop stop-color="#020409" offset=".49"/><stop stop-color="#000102" offset=".63"/><stop offset="1"/></radialGradient><radialGradient id="ah" cx="228.64" cy="58.07" r="10" xlink:href="#g"/><radialGradient id="ai" cx="285.8" cy="95.73" r="9.43" xlink:href="#g"/><radialGradient id="aj" cx="252.64" cy="137.4" r="6" xlink:href="#g"/><radialGradient id="ak" cx="138.78" cy="34.95" r="5" xlink:href="#g"/><radialGradient id="al" cx="207.3" cy="16.4" r="3.5" xlink:href="#g"/><radialGradient id="am" cx="268.8" cy="177.23" r="3.5" xlink:href="#g"/><radialGradient id="an" cx="121.44" cy="100.95" r="10" xlink:href="#g"/><radialGradient id="ao" cx="106.78" cy="159.61" r="6" xlink:href="#g"/><radialGradient id="ap" cx="81.3" cy="81.73" r="5" xlink:href="#g"/><radialGradient id="aJ" cx="192.54" cy="-2917.37" r="55.45" gradientTransform="matrix(1 0 0 1.6 0 4796.57)" gradientUnits="userSpaceOnUse"><stop stop-color="#fff" offset=".53"/><stop stop-color="#fbfafd" offset=".6"/><stop stop-color="#efecf6" offset=".68"/><stop stop-color="#dcd5ea" offset=".76"/><stop stop-color="#c0b4da" offset=".85"/><stop stop-color="#9e8bc5" offset=".95"/><stop stop-color="#8770b8" offset="1"/></radialGradient><radialGradient id="h" cx="19340.6" cy="10320.9" r="66.31" gradientTransform="matrix(-.221 .055 -.2415 -.9704 6986.9 9071.3)" gradientUnits="userSpaceOnUse"><stop stop-color="#972a74" offset="0"/><stop stop-color="#8c276c" offset=".02"/><stop stop-color="#671d4f" offset=".11"/><stop stop-color="#471437" offset=".21"/><stop stop-color="#2d0d23" offset=".32"/><stop stop-color="#190713" offset=".43"/><stop stop-color="#0b0308" offset=".57"/><stop stop-color="#020102" offset=".73"/><stop offset="1"/></radialGradient><radialGradient id="aQ" cx="172.69" cy="147.21" r="15.9" xlink:href="#b"/><radialGradient id="aR" cx="-14694.7" cy="8407.02" r="62.21" gradientTransform="matrix(.18895 .05124 .20648 -.904 1209.4 8460.07)" xlink:href="#h"/><radialGradient id="aU" cx="-330.87" cy="-420.78" r="26.22" gradientTransform="translate(467.8 574.66) scale(.8893)" xlink:href="#b"/><radialGradient id="aX" cx="213.91" cy="197.37" r="23.32" xlink:href="#b"/><radialGradient id="ag" cx="270.78" cy="46.28" r="5" gradientUnits="userSpaceOnUse" xlink:href="#g"/><radialGradient id="aK" cx="19340.6" cy="10320.9" r="66.31" gradientTransform="matrix(-.221 .055 -.2415 -.9704 6986.9 9071.3)" gradientUnits="userSpaceOnUse" xlink:href="#h"/></defs><g transform="translate(-50.45 .5)" style="isolation:isolate"><ellipse cx="191.35" cy="124.32" rx="118.04" ry="124.32" fill="url(#i)" opacity=".5" style="mix-blend-mode:color-dodge"/><ellipse cx="191.35" cy="198" rx="96.63" ry="136" fill="url(#j)" opacity=".5" style="mix-blend-mode:color-dodge"/><g fill="#113a39"><path d="M192.78 378.88c-37.77 0-73.34-8.52-100.14-24-26.88-15.52-41.69-36.14-41.69-58.07 0-21.73 14.59-42.12 41.07-57.41 26.4-15.24 61.56-23.64 99-23.64 37.77 0 73.33 8.52 100.13 24 26.88 15.52 41.69 36.14 41.69 58.07 0 21.74-14.59 42.12-41.06 57.41-26.4 15.25-61.57 23.64-99 23.64zM191 216.65c-37.28 0-72.28 8.35-98.55 23.52-26.19 15.12-40.62 35.24-40.62 56.64 0 21.6 14.65 41.95 41.24 57.3 26.67 15.4 62.08 23.88 99.7 23.88 37.28 0 72.28-8.35 98.55-23.52 26.2-15.12 40.62-35.24 40.62-56.64 0-21.6-14.65-41.95-41.24-57.3-26.67-15.4-62.08-23.88-99.7-23.88z" opacity=".6" style="mix-blend-mode:screen"/><path d="m192.74 375.97c-36.29 0-70.46-8.2-96.23-23.07-25.91-14.96-40.19-34.87-40.19-56.07 0-21 14.07-40.7 39.6-55.44 25.38-14.65 59.16-22.72 95.13-22.72 36.29 0 70.46 8.2 96.23 23.07 25.91 14.96 40.19 34.87 40.19 56.07 0 21-14.06 40.7-39.6 55.44-25.38 14.65-59.16 22.72-95.13 22.72zm-1.69-155.52c-35.66 0-69.13 7.99-94.24 22.49-24.96 14.4-38.7 33.55-38.7 53.9 0 20.52 13.95 39.89 39.3 54.52 25.5 14.72 59.35 22.83 95.33 22.83 35.66 0 69.13-7.98 94.24-22.48 24.96-14.41 38.7-33.55 38.7-53.9 0-20.53-13.95-39.9-39.3-54.53-25.49-14.72-59.35-22.83-95.33-22.83z" opacity=".3" style="mix-blend-mode:screen"/><g style="mix-blend-mode:screen"><path d="M140.67 326.9c-28.47-16.44-28.61-43-.32-59.34a76.67 76.67 0 0 1 8.84-4.34l-2.72-2.24a81.46 81.46 0 0 0-9.47 4.64c-30.09 17.37-29.93 45.72.34 63.2a91.7 91.7 0 0 0 21.1 8.66l1.97-2.46a86.24 86.24 0 0 1-19.74-8.12z" opacity=".8"/><path d="m264.15 293.16 4.7-.23c-1.75-9.71-8.99-19.18-21.7-26.7l-3.34 1.93c11.9 7.06 18.69 15.91 20.34 25z" opacity=".6"/><path d="m242.32 267.3 3.35-1.92c-26.78-15.04-67.74-16.76-97.49-5.1l2.73 2.25c27.92-10.94 66.24-9.33 91.41 4.78z" opacity=".8"/><path d="m269.02 294.14-4.69.23c1.56 11.74-5.39 23.76-20.89 32.71-9.07 5.24-19.96 8.78-31.5 10.64l1.22 2.62c12.34-1.97 23.98-5.74 33.65-11.32 16.5-9.53 23.88-22.36 22.21-34.88z" opacity=".4"/><path d="m162.3 335.54-1.97 2.46a131.48 131.48 0 0 0 50.81 2.66l-1.23-2.63a123.14 123.14 0 0 1-47.6-2.5z" opacity=".6"/></g><path d="M190.54 245.78c-43.1.23-78.83 18.17-86.4 41.83l8.17.85c6.91-21.42 39.25-37.65 78.25-37.88zM111.7 287.5l-6.37-.66c8.23-22.96 43.33-39.71 84.32-40.16l.02 3.02c-37.92.46-70.45 16.24-77.97 37.8z" opacity=".4" style="mix-blend-mode:screen"/><path d="m192.61 245.79.03 4.8c19.02.16 36.5 4.12 50.25 10.62l5.32-3.66c-15.2-7.2-34.55-11.6-55.6-11.76Zm50.2 14.4c-14.16-6.6-31.17-10.22-49.29-10.49l-.01-3.01c19.15.27 37.84 4.16 52.91 11.01z" opacity=".6" style="mix-blend-mode:screen"/><path d="m249.8 258.33-5.32 3.66c17.3 8.61 28.32 21.32 28.4 35.47.04 8.3-3.7 16.08-10.25 22.83l7.2 2.41c7.26-7.45 11.4-16.06 11.35-25.22-.08-15.62-12.27-29.65-31.39-39.15zm19.78 63.35-5.35-1.79c6.29-6.87 9.58-14.6 9.54-22.43-.08-13.6-10.1-26.5-27.56-35.58l3.66-2.52c19.26 9.7 30.34 23.58 30.42 38.12.05 8.44-3.65 16.8-10.7 24.2z" opacity=".8" style="mix-blend-mode:screen"/><path d="M218.82 341.5a134.63 134.63 0 0 1-26.4 2.57h-.26c-44.65-.09-81.1-21.12-81.23-46.9a27.6 27.6 0 0 1 1.02-7.53l-8.18-.85a30.44 30.44 0 0 0-1.15 8.36c.16 28.43 40.33 51.62 89.56 51.71h.28a148.43 148.43 0 0 0 29.22-2.85zm-26.64 6.47c-48.74-.09-88.51-22.89-88.67-50.82a29.5 29.5 0 0 1 .93-7.4l6.4.67a28.37 28.37 0 0 0-.8 6.75c.14 26.27 36.98 47.7 82.12 47.78h.25a135.71 135.71 0 0 0 25.98-2.46l1.84 2.9a147.92 147.92 0 0 1-27.77 2.58z" style="mix-blend-mode:screen"/><path d="m261.6 321.33c-9.27 9-23.65 16.02-40.83 19.76l2.86 4.51c19.02-4.12 34.94-11.9 45.17-21.86zm-39.4 20.35c16.4-3.75 30.41-10.58 39.63-19.34l5.29 1.77c-10.1 9.31-25.3 16.55-43.07 20.49z" opacity=".6" style="mix-blend-mode:screen"/><path d="m227.02 240.37 7.64-13.97c-1.91-.39-3.8-.83-5.74-1.17L221 239.18c2.03.34 4.03.78 6.03 1.2zm-94.48 6.76-15.12-11.84c-1.66.66-3.27 1.35-4.88 2.06l14.88 11.95c1.68-.75 3.38-1.48 5.12-2.17zm104.62-4.3 10.14-13.42c-1.84-.5-3.65-1.03-5.52-1.48l-10.4 13.35c1.96.47 3.87 1.02 5.78 1.56zm37.5 17.56c1.32.98 2.6 1.97 3.8 2.97l20.42-8.65a96.8 96.8 0 0 0-3.61-2.83zm-7.2-4.81q2.23 1.34 4.3 2.73l18.72-9.84q-1.98-1.33-4.08-2.6zm9.05-15.18-17.05 10.82q2.42 1.18 4.73 2.47l16.84-10.93q-2.23-1.21-4.52-2.36zm-114.33-1.33-8.1-13.97c-1.92.33-3.8.76-5.71 1.14l7.79 14c2-.4 3.99-.83 6.02-1.17zm143.93 22.34c-.97-1.02-2.05-2.02-3.1-3.02l-22.05 7.23a65.84 65.84 0 0 1 3.25 3.17zm-154.3-20.27-10.55-13.4c-1.86.45-3.67.97-5.5 1.47l10.28 13.46c1.91-.53 3.81-1.07 5.76-1.53zm64.68-2.6 5.07-14.38c-1.98-.27-3.93-.58-5.92-.8l-5.37 14.37c2.09.22 4.15.51 6.22.8zm-74.6 5.3L129 231.15c-1.77.56-3.49 1.17-5.22 1.78l12.65 12.77c1.81-.64 3.62-1.28 5.47-1.86zm63.8-6.5 2.44-14.61c-2.01-.16-4.02-.31-6.03-.41l-2.73 14.6c2.11.1 4.22.25 6.33.42zm-21.92-.44-2.89-14.62c-2.01.09-4.02.24-6.03.39l2.6 14.62c2.1-.16 4.2-.3 6.32-.4zm-10.9.76-5.51-14.38c-2 .2-3.95.51-5.92.78l5.23 14.39c2.06-.3 4.12-.58 6.2-.8zm92.84-2.1-15 11.79c1.75.69 3.45 1.43 5.14 2.18l14.75-11.9c-1.61-.7-3.24-1.41-4.9-2.08zm31.05 63.79 25.45-.04c.04-1.17.03-2.34-.02-3.5l-25.45-.14a35.02 35.02 0 0 1 .02 3.68zm-10.21 24.45 23.32 5.93c.86-1.05 1.76-2.1 2.54-3.17l-23.2-6.1c-.8 1.13-1.75 2.23-2.66 3.34zm-5.25 5.55 22.13 7.3c1.05-1 2.1-2 3.07-3l-21.98-7.46c-1 1.07-2.1 2.11-3.22 3.16zm-6.23 5.2 20.7 8.59a97.16 97.16 0 0 0 3.57-2.82l-20.52-8.73c-1.18 1-2.45 1.99-3.75 2.96zm-86.03 23.3.23 14.7q3.04.04 6.07 0l.07-14.69c-2.13.03-4.24.03-6.37-.01zm-102-62.56-25.46.04c-.04 1.17-.03 2.34.02 3.5l25.46.14a35.07 35.07 0 0 1-.03-3.68zm107.71-58.5-.23-14.7a204.7 204.7 0 0 0-6.07 0l-.06 14.69c2.12-.03 4.24-.03 6.36.01zm100.36 49.92 24.88-3.1c-.38-1.14-.91-2.27-1.38-3.41l-24.9 2.92c.51 1.2 1.02 2.39 1.4 3.6zm1.4 6.3 25.3-1.58c-.18-1.16-.45-2.32-.71-3.48l-25.3 1.4a37.15 37.15 0 0 1 .7 3.66zm-7.55-18.49 23.13-6c-.78-1.08-1.7-2.13-2.57-3.18l-23.26 5.85c.93 1.1 1.9 2.2 2.7 3.33zm3.64 6 24.16-4.58c-.59-1.11-1.35-2.2-2.02-3.3l-24.21 4.4c.72 1.16 1.48 2.31 2.07 3.48zm1.27 31.37 24.92 3.01c.46-1.13.99-2.26 1.35-3.41l-24.9-3.19c-.38 1.2-.87 2.4-1.37 3.59zm2.01-6.23 25.32 1.5c.25-1.16.51-2.32.67-3.48L296.55 302a36.65 36.65 0 0 1-.67 3.65zm-5.13 12.3 24.26 4.5c.66-1.1 1.41-2.2 1.98-3.31l-24.2-4.67c-.59 1.17-1.33 2.32-2.04 3.47zm-36.66-86.58-12.77 12.64c1.86.58 3.68 1.23 5.49 1.88l12.51-12.73c-1.73-.61-3.46-1.23-5.23-1.79zM119.6 340.95l-16.83 10.93q2.22 1.22 4.51 2.36l17.06-10.82c-1.61-.79-3.19-1.61-4.74-2.47zm80.42 16.8 2.89 14.61c2.02-.09 4.02-.24 6.03-.38l-2.6-14.63c-2.1.17-4.2.3-6.32.4zm-43.24-3.48-7.65 13.97c1.92.4 3.8.83 5.74 1.17l7.94-13.95c-2.04-.34-4.03-.78-6.03-1.2zm21.32 3.03-2.43 14.62c2 .15 4.01.3 6.03.4l2.73-14.6c-2.12-.1-4.22-.25-6.33-.42zm-50.16-12.2L113.2 357c1.61.72 3.24 1.42 4.9 2.09l15-11.8a122.6 122.6 0 0 1-5.15-2.18zm9.04 3.64-12.5 12.73c1.72.61 3.45 1.23 5.22 1.8l12.77-12.65c-1.86-.58-3.67-1.23-5.49-1.88zm9.65 3.06-10.13 13.43c1.83.5 3.65 1.03 5.51 1.48l10.4-13.35c-1.95-.47-3.86-1.02-5.78-1.56zm20.67 4.3-5.06 14.38c1.97.27 3.93.58 5.92.8l5.36-14.37c-2.09-.22-4.15-.51-6.22-.8zm92.66-12.43 17.17 10.88q2.28-1.14 4.5-2.34l-16.96-11q-2.31 1.28-4.71 2.46zm-8.7 3.84 15.12 11.84c1.65-.65 3.27-1.35 4.88-2.06l-14.89-11.95a121.2 121.2 0 0 1-5.12 2.17zm-40.34 9.47 5.52 14.38c1.98-.2 3.94-.5 5.9-.77l-5.21-14.4c-2.07.3-4.13.58-6.21.79zm57-17.65 19.04 9.8q2.09-1.28 4.06-2.6l-18.84-9.92a92.77 92.77 0 0 1-4.26 2.72zM241.9 350.8l12.9 12.69c1.77-.56 3.5-1.17 5.22-1.78l-12.65-12.77c-1.8.64-3.62 1.28-5.47 1.86zm-20.28 4.77 8.09 13.98c1.93-.33 3.81-.77 5.72-1.15l-7.8-14c-2 .4-3.98.83-6.01 1.17zm10.37-2.07 10.54 13.4c1.86-.45 3.68-.97 5.5-1.47l-10.28-13.46c-1.91.53-3.8 1.07-5.76 1.53zM88.68 307.93l-24.88 3.1c.38 1.15.91 2.28 1.39 3.41l24.9-2.92a39.74 39.74 0 0 1-1.41-3.6zm4.36-31.24-24.25-4.5c-.66 1.1-1.42 2.19-1.99 3.3l24.2 4.67c.59-1.17 1.33-2.32 2.04-3.47zm-3.12 6.06L65 279.74c-.46 1.14-.98 2.27-1.35 3.41l24.91 3.19c.37-1.2.87-2.4 1.36-3.59zm7.33-11.9-23.32-5.94c-.86 1.06-1.77 2.1-2.54 3.17l23.2 6.1c.79-1.13 1.74-2.23 2.66-3.33zm11.47-10.75-20.7-8.6a96.35 96.35 0 0 0-3.57 2.82l20.52 8.73c1.19-1 2.45-1.98 3.75-2.95zm-6.23 5.2-22.12-7.31c-1.06 1-2.11 2-3.08 3.01l21.98 7.45c1-1.07 2.1-2.11 3.22-3.16zm-9.18 80.87q1.98 1.33 4.08 2.61l18.94-9.72q-2.23-1.34-4.29-2.73zm-5.4-57.2-25.32-1.49c-.25 1.16-.51 2.32-.67 3.48l25.32 1.67a36.14 36.14 0 0 1 .67-3.65zm27.96-33.66-19.04-9.8c-1.39.86-2.74 1.72-4.05 2.6l18.84 9.92q2.04-1.4 4.25-2.72zm-28.58 46.32-25.3 1.58c.17 1.16.44 2.32.7 3.48L88 305.3a37.08 37.08 0 0 1-.71-3.66zm-9.6 31.6c.96 1.02 2.04 2.02 3.1 3.02l22.05-7.22a67.12 67.12 0 0 1-3.26-3.18zm7.22 6.7a96.7 96.7 0 0 0 3.61 2.83l20.6-8.51a78.24 78.24 0 0 1-3.78-2.97zm9.92-19.81-23.13 6c.78 1.08 1.7 2.13 2.58 3.19l23.25-5.86c-.92-1.1-1.89-2.2-2.7-3.33zm-3.64-6-24.15 4.58c.58 1.12 1.34 2.2 2.02 3.31l24.2-4.41c-.72-1.16-1.47-2.31-2.07-3.49zm32.65-63.15-17.18-10.88q-2.28 1.14-4.49 2.34l16.96 11q2.3-1.28 4.7-2.46z" opacity=".2" style="mix-blend-mode:screen"/><path d="M274.67 260.4c1.3.97 2.59 1.96 3.78 2.96l20.43-8.65a96.8 96.8 0 0 0-3.61-2.83zm-132.78-16.56L129 231.15c-1.77.56-3.49 1.17-5.22 1.78l12.65 12.77c1.81-.64 3.62-1.28 5.47-1.86zm63.8-6.5 2.44-14.61c-2.01-.16-4.02-.31-6.03-.41l-2.73 14.6c2.11.1 4.22.25 6.33.42zm-21.92-.44-2.89-14.62c-2.01.09-4.02.24-6.03.39l2.6 14.62c2.1-.16 4.2-.3 6.32-.4zm81.94-1.35-15 11.8c1.75.69 3.45 1.43 5.14 2.18l14.75-11.9a150.2 150.2 0 0 0-4.9-2.08zm9.36 99 20.7 8.59a97.16 97.16 0 0 0 3.57-2.82l-20.52-8.73c-1.18 1-2.45 1.99-3.75 2.96zm-86.03 23.3.23 14.7q3.04.04 6.07 0l.07-14.69c-2.13.03-4.24.03-6.37-.01zm-102-62.56-25.46.04c-.04 1.17-.03 2.34.02 3.5l25.46.14a35.07 35.07 0 0 1-.03-3.68zm208.07-8.58 24.88-3.1c-.38-1.14-.91-2.27-1.38-3.41l-24.9 2.92c.51 1.2 1.02 2.39 1.4 3.6zm-1.24 25.18 24.92 3.01c.46-1.13.99-2.26 1.35-3.41l-24.9-3.19c-.38 1.2-.87 2.4-1.37 3.59zM146.63 351.8l-10.13 13.43c1.83.5 3.65 1.03 5.51 1.48l10.4-13.35c-1.95-.47-3.86-1.02-5.78-1.56zm95.27-1 12.9 12.69c1.77-.56 3.5-1.17 5.22-1.78l-12.65-12.77c-1.8.64-3.62 1.28-5.47 1.86zM88.68 307.93l-24.88 3.1c.38 1.15.91 2.28 1.39 3.41l24.9-2.92a39.74 39.74 0 0 1-1.41-3.6zm20.04-47.83-20.7-8.6a96.35 96.35 0 0 0-3.57 2.82l20.52 8.73c1.19-1 2.45-1.98 3.75-2.95zm-23.8 79.83a96.7 96.7 0 0 0 3.6 2.83l20.6-8.51a78.24 78.24 0 0 1-3.78-2.97z" opacity=".5" style="mix-blend-mode:screen"/><path d="m132.54 247.13-15.12-11.84c-1.66.66-3.27 1.35-4.88 2.06l14.88 11.95c1.68-.75 3.38-1.48 5.12-2.17zm104.62-4.3 10.14-13.42c-1.84-.5-3.65-1.03-5.52-1.48l-10.4 13.35c1.96.47 3.87 1.02 5.78 1.56zm39.35-2.43-17.05 10.82q2.42 1.18 4.73 2.47l16.84-10.93q-2.23-1.21-4.52-2.36zm-124.7.74-10.55-13.4c-1.86.45-3.67.97-5.5 1.47l10.28 13.46c1.91-.53 3.81-1.07 5.76-1.53zm64.68-2.6 5.07-14.38c-1.98-.27-3.93-.58-5.92-.8l-5.37 14.37c2.09.22 4.15.51 6.22.8zm64.81 90.8 22.13 7.31c1.05-1 2.1-2 3.07-3l-21.98-7.46c-1 1.07-2.1 2.11-3.22 3.16zm15.2-36.33 25.3-1.58c-.17-1.16-.44-2.32-.7-3.48l-25.3 1.4a37.15 37.15 0 0 1 .7 3.66zm-7.54-18.49 23.13-6c-.78-1.08-1.7-2.13-2.57-3.18l-23.26 5.85c.93 1.1 1.9 2.2 2.7 3.34zm3.64 6 24.16-4.58c-.59-1.11-1.35-2.2-2.02-3.3l-24.21 4.4c.72 1.16 1.48 2.31 2.07 3.48zm-1.85 37.43 24.26 4.5c.66-1.1 1.41-2.19 1.98-3.3l-24.2-4.67c-.59 1.17-1.33 2.32-2.04 3.47zM178.1 357.3l-2.43 14.62c2 .15 4.01.3 6.03.4l2.73-14.6c-2.12-.1-4.22-.25-6.33-.42zm-50.16-12.2L113.2 357c1.61.72 3.24 1.42 4.9 2.09l15-11.8c-1.75-.69-3.46-1.43-5.15-2.18zm39.36 11-5.06 14.38c1.97.27 3.93.58 5.92.8l5.36-14.37a168.8 168.8 0 0 1-6.22-.8zm83.95-8.6 15.13 11.85c1.65-.65 3.27-1.35 4.88-2.06l-14.89-11.95c-1.68.75-3.37 1.48-5.12 2.17zm-29.63 8.07 8.09 13.98c1.93-.33 3.81-.77 5.72-1.15l-7.8-14c-2 .4-3.98.83-6.01 1.17zM88.68 307.93l-24.88 3.1c.38 1.15.91 2.28 1.39 3.41l24.9-2.92a39.74 39.74 0 0 1-1.41-3.6zm1.24-25.18L65 279.74c-.46 1.14-.98 2.27-1.35 3.41l24.91 3.19c.37-1.2.87-2.4 1.36-3.59zm18.8-22.65-20.7-8.6a96.35 96.35 0 0 0-3.57 2.82l20.52 8.73c1.19-1 2.45-1.98 3.75-2.95zm-13.89 60.02-23.13 6c.78 1.08 1.7 2.13 2.58 3.19l23.25-5.86c-.92-1.1-1.89-2.2-2.7-3.33z" opacity=".3" style="mix-blend-mode:screen"/><path d="M284.55 298.06c-.15 12.65-7.94 24.25-20.85 33.33l5.33 2.59c14.98-10.5 22.34-22.26 22.47-35.9z" opacity=".2"/><path d="m209.52 354.13c22.5-2.25 43.14-9.08 58.22-19.26l-5.33-2.6c-16.96 11.43-42.15 18.65-70.26 18.6a148.12 148.12 0 0 1-45.52-6.98l-3.43 3.44c20.3 6.64 43.82 9.05 66.32 6.8z" opacity=".6" style="mix-blend-mode:screen"/><path d="M99.15 297.17c-.16-29.51 41.3-53.45 92.42-53.36 5.14.01 10.19.27 15.11.75l1.19-3.96a162.19 162.19 0 0 0-50.37 2.6c-39.18 8.17-65.42 29.85-65.29 53.94a36.6 36.6 0 0 0 5.8 19.13l6.47-1.35a34 34 0 0 1-5.33-17.75z" opacity=".3" style="mix-blend-mode:screen"/><path d="m105.18 316.01-6.47 1.35c8.34 12.8 22.34 22.42 42.74 29.38l3.44-3.44c-18.03-6.21-32.17-15.83-39.71-27.29z" opacity=".2" style="mix-blend-mode:screen"/><path d="m284.55 296.9 6.94.01c-.3-13.44-8.56-26.39-23.3-36.53-14.76-10.13-35.44-17.07-58.33-19.58l-1.2 3.96c42.68 4.69 75.24 26.27 75.89 52.14z" opacity=".5" style="mix-blend-mode:screen"/></g><ellipse transform="rotate(-64.34)" cx="-230.99" cy="272.62" rx="52.88" ry="18.77" fill="url(#k)" opacity=".15" style="mix-blend-mode:color-dodge"/><ellipse transform="rotate(-5.89 292.23 291.72)" cx="292.23" cy="291.72" rx="52.88" ry="18.77" fill="url(#l)" opacity=".1" style="mix-blend-mode:color-dodge"/><ellipse transform="rotate(-81.66 209.06 237.02)" cx="209.06" cy="237.02" rx="52.88" ry="18.77" fill="url(#m)" opacity=".3" style="mix-blend-mode:color-dodge"/><ellipse transform="rotate(-12.57 276.63 252.24)" cx="276.63" cy="252.24" rx="62.76" ry="28.66" fill="url(#n)" opacity=".1" style="mix-blend-mode:color-dodge"/><ellipse transform="rotate(-58.18 273.88 339.65)" cx="273.88" cy="339.65" rx="28.66" ry="62.76" fill="url(#o)" opacity=".3" style="mix-blend-mode:color-dodge"/><ellipse transform="rotate(-53.56 126.39 249.87)" cx="126.39" cy="249.87" rx="28.66" ry="62.76" fill="url(#p)" opacity=".15" style="mix-blend-mode:color-dodge"/><g fill="#27043d"><path d="m242.32 267.3 3.35-1.92c-26.78-15.04-67.74-16.76-97.49-5.1l2.73 2.25c27.92-10.94 66.24-9.33 91.41 4.78z" opacity=".8"/><path d="m192.61 245.79.03 4.8c19.02.16 36.5 4.12 50.25 10.62l5.32-3.66c-15.2-7.2-34.55-11.6-55.6-11.76Zm50.2 14.4c-14.16-6.6-31.17-10.22-49.29-10.49l-.01-3.01c19.15.27 37.84 4.16 52.91 11.01z" opacity=".6" style="mix-blend-mode:screen"/><path d="m227.02 240.37 7.64-13.97c-1.91-.39-3.8-.83-5.74-1.17L221 239.18c2.03.34 4.03.78 6.03 1.2zm10.14 2.47 10.14-13.43c-1.84-.5-3.65-1.03-5.52-1.48l-10.4 13.35c1.96.47 3.87 1.02 5.78 1.56zm-74.98-3.77-8.1-13.97c-1.92.33-3.8.76-5.71 1.14l7.79 14c2-.4 3.99-.83 6.02-1.17zm-10.38 2.07-10.54-13.4c-1.86.45-3.67.97-5.5 1.47l10.28 13.46c1.91-.53 3.81-1.07 5.76-1.53zm64.69-2.6 5.07-14.38c-1.98-.27-3.93-.58-5.92-.8l-5.37 14.37c2.09.22 4.15.51 6.22.8zm-10.8-1.2 2.44-14.61c-2.01-.16-4.02-.31-6.03-.41l-2.73 14.6c2.11.1 4.22.25 6.33.42zm-21.92-.44-2.89-14.62c-2.01.09-4.02.24-6.03.39l2.6 14.62c2.1-.16 4.2-.3 6.32-.4zm-10.9.76-5.51-14.38c-2 .2-3.95.51-5.92.78l5.23 14.39c2.06-.3 4.12-.58 6.2-.8zm92.84-2.1-15 11.79c1.75.69 3.45 1.43 5.14 2.18l14.75-11.9c-1.61-.7-3.24-1.41-4.9-2.08zm-70.96 1.23-.23-14.7a204.7 204.7 0 0 0-6.07 0l-.06 14.69c2.12-.03 4.24-.03 6.36.01zm59.34-5.41-12.77 12.64c1.86.58 3.68 1.23 5.49 1.88l12.51-12.73c-1.73-.61-3.46-1.23-5.23-1.79z" opacity=".2" style="mix-blend-mode:screen"/><path d="m205.7 237.34 2.43-14.61c-2.01-.16-4.02-.31-6.03-.41l-2.73 14.6c2.11.1 4.22.25 6.33.42zm-21.93-.44-2.89-14.62c-2.01.09-4.02.24-6.03.39l2.6 14.62c2.1-.16 4.2-.3 6.32-.4zm81.94-1.35-15 11.8c1.75.69 3.45 1.43 5.14 2.18l14.75-11.9c-1.61-.7-3.24-1.41-4.9-2.08z" opacity=".5" style="mix-blend-mode:screen"/><path d="m237.16 242.84 10.14-13.43c-1.84-.5-3.65-1.03-5.52-1.48l-10.4 13.35c1.96.47 3.87 1.02 5.78 1.56zm-85.36-1.7-10.54-13.4c-1.86.45-3.67.97-5.5 1.47l10.28 13.46c1.91-.53 3.81-1.07 5.76-1.53zm64.69-2.6 5.07-14.38c-1.98-.27-3.93-.58-5.92-.8l-5.37 14.37c2.09.22 4.15.51 6.22.8z" opacity=".3" style="mix-blend-mode:screen"/><path d="M228.27 204.61c-1.73-.23-3.44-.54-5.18-.74l-3.85 10.31q2.72.3 5.42.68zm-7.8 8.82 3.21-8.59c.78.1 1.57.22 2.33.34l1.06.16-3 8.54a245.7 245.7 0 0 0-3.6-.45zm24.41-6.05c-1.68-.34-3.34-.72-5.03-1.03l-5.68 9.99q2.64.47 5.27 1zm-9.32 8.3 4.75-8.34 2.45.5.76.17-4.55 8.32-3.4-.65zm-24.3-12.82c-1.76-.13-3.51-.3-5.28-.38l-1.96 10.46q2.76.14 5.51.34zm-6.18 9.25 1.63-8.7 2.66.2.86.06-1.44 8.67c-1.2-.09-2.43-.16-3.7-.23zm71.1 3.71c-1.53-.53-3.04-1.07-4.6-1.57l-9.11 9.03q2.42.78 4.8 1.61zm-12.05 7.07 7.7-7.62c.92.3 1.83.62 2.73.93l-7.53 7.67c-1-.35-1.96-.67-2.9-.98zm-3.22-11.76c-1.61-.44-3.2-.9-4.84-1.3l-7.44 9.55q2.55.63 5.06 1.3zm-10.74 7.72 6.25-8.02 2.63.7.36.1-6.06 8.04c-1.03-.27-2.08-.55-3.18-.82zm-71.31-5.95-2.07-10.48c-1.77.09-3.52.24-5.29.37l1.85 10.43q2.75-.2 5.5-.32zm-5.52-9.36 2.72-.19 1.73 8.71-3.7.22-1.54-8.68.79-.06zm-24.6 12.64-5.78-10c-1.7.3-3.34.68-5.02 1l5.55 9.98q2.62-.52 5.26-.98zm-8.64-8.53 2.4-.49 4.84 8.37c-1.14.2-2.28.41-3.39.63l-4.64-8.35.79-.16zm23.55 6.43-3.97-10.32c-1.73.2-3.43.5-5.16.72l3.72 10.26q2.7-.36 5.4-.66zm-6.87-9.03c.76-.1 1.54-.23 2.32-.33l3.3 8.6-3.57.44-3.1-8.55 1.05-.16zm37.43 7.58-.17-10.5-3.2-.02h-2.12l-.05 10.5h2.32l3.22.02zm-4.6-9.63h3.56l.13 8.73-2.31-.01h-1.43z" opacity=".2" style="mix-blend-mode:screen"/><path d="M211.27 202.86c-1.77-.13-3.52-.3-5.3-.38l-1.95 10.46q2.76.14 5.51.34zm-6.19 9.25 1.63-8.7 2.66.2.86.06-1.44 8.67c-1.2-.09-2.43-.16-3.7-.23zm71.1 3.71c-1.53-.53-3.04-1.07-4.6-1.57l-9.11 9.03q2.42.78 4.8 1.61zm-12.05 7.07 7.7-7.62c.92.3 1.83.62 2.73.93l-7.53 7.67c-1-.35-1.96-.67-2.9-.98zm-3.22-11.76c-1.61-.44-3.2-.9-4.84-1.3l-7.44 9.55q2.55.63 5.06 1.3zm-10.74 7.72 6.25-8.02 2.63.7.36.1-6.06 8.04a210.1 210.1 0 0 0-3.18-.82zm-86.52-4.77-3.97-10.32c-1.73.2-3.43.5-5.16.72l3.72 10.26q2.7-.36 5.4-.66zm-6.87-9.03c.76-.1 1.54-.23 2.32-.33l3.3 8.6-3.57.44-3.1-8.55 1.05-.16z" opacity=".2" style="mix-blend-mode:screen"/><path d="M261.82 256.43c-14.08-7.99-32.2-13.46-51.96-15.63l-1.2 3.96c19.73 2.17 37.3 7.95 50.54 16.1.9-1.47 1.77-2.94 2.62-4.43z" opacity=".5" style="mix-blend-mode:screen"/><g opacity=".5" style="mix-blend-mode:screen"><path d="m129.14 227.34.1 1.83a215.22 215.22 0 0 1 61.81-8.72c29.54 0 57.64 5.48 80.87 15.58l.69-1.64c-23.45-10.2-51.79-15.72-81.56-15.72a217.22 217.22 0 0 0-61.9 8.67z"/><path d="m129.07 224.06.02.92a226.46 226.46 0 0 1 61.92-8.33c30.04 0 58.64 5.42 82.54 15.43l.33-.82c-24-10.06-52.72-15.5-82.87-15.5a227.48 227.48 0 0 0-61.94 8.3z"/></g><path d="M131.77 251.25c.3 1.57.6 3.14.95 4.68 15.99-7.6 36.5-12.16 58.85-12.12 5.14.01 10.19.27 15.11.75l1.19-3.96a162.18 162.18 0 0 0-50.37 2.6 132.46 132.46 0 0 0-25.73 8.05z" opacity=".5" style="mix-blend-mode:screen"/><path d="M134.8 264.01c14.36-8.2 34.02-13.3 55.76-13.43l-.02-4.8c-21.9.12-41.88 4.8-57.24 12.5l.21.88c15.17-7.61 34.86-12.25 56.14-12.48l.02 3.02c-21.2.26-40.7 5.3-55.1 13.47l.24.84z" opacity=".5" style="mix-blend-mode:screen"/></g><path d="M238.8 277.9c-.6 0-1.2.04-1.78.08a6.45 6.45 0 0 0 .17-1.36c0-5.62-7.32-10.18-16.34-10.18a22.1 22.1 0 0 0-11.6 3.02c-2.9-3.98-9.31-6.75-16.78-6.75-6.51 0-12.22 2.1-15.5 5.28a19.96 19.96 0 0 0-10.55-2.77c-7.41 0-13.53 3.4-14.6 7.83-.68-.06-1.38-.1-2.08-.1-8.51 0-15.41 4.3-15.41 9.6s6.9 9.6 15.4 9.6c7.95 0 14.49-3.75 15.32-8.56.45.03.9.04 1.37.04a19.67 19.67 0 0 0 10.87-2.98c3.32 3 8.88 4.98 15.18 4.98 5.66 0 10.71-1.6 14.09-4.1 2.78 3.14 8.14 5.26 14.3 5.26a25.6 25.6 0 0 0 4.7-.44c.18 4.46 6.03 8.04 13.23 8.04 7.32 0 13.24-3.69 13.24-8.24 0-4.56-5.92-8.25-13.24-8.25z" fill="url(#q)" opacity=".3"/><path d="M150.39 272.92c.65-.03 1.3-.03 1.97-.02.89-3.27 4.75-5.98 9.9-6.94a22.74 22.74 0 0 1 4.45-.39 21.3 21.3 0 0 1 6.59 1.09 20.37 20.37 0 0 1 3.68 1.65 23.28 23.28 0 0 1 3.26-2.27 24.52 24.52 0 0 1 12.23-3.01 23.72 23.72 0 0 1 13.12 3.57 18.66 18.66 0 0 1 3.65 3.19 28.26 28.26 0 0 1 2.6-1.28 22.98 22.98 0 0 1 9.01-1.74c7.03 0 12.86 2.8 14.95 6.5a3.07 3.07 0 0 1 .16.3 8.02 8.02 0 0 1 .75 3.14 7.12 7.12 0 0 1-.11 1.33c.54 0 1.1 0 1.68.03a29.46 29.46 0 0 1 4.87.7q.21.06.43.1c.5.13.98.28 1.44.44 3.96 1.34 6.54 3.91 6.54 6.69 0 2.44-2.04 4.79-5.32 6.16a19.29 19.29 0 0 1-8.18 1.33 21.35 21.35 0 0 1-4.14-.77 28.5 28.5 0 0 1-3.26-1.05c-.3-.12-.59-.24-.86-.37a11.3 11.3 0 0 1-3.03-1.95 6.07 6.07 0 0 1-2.04-3.63 24.78 24.78 0 0 1-4.7.23c-.59-.03-1.16-.09-1.71-.16a48.66 48.66 0 0 1-7.29-1.57 14.58 14.58 0 0 1-5.3-2.98 18.81 18.81 0 0 1-4.32 2.15 26.4 26.4 0 0 1-9.85 1.4c-.68-.03-1.35-.1-2-.18a68.01 68.01 0 0 1-6.6-1.2 18.33 18.33 0 0 1-6.6-3.12l-.5.3a14.64 14.64 0 0 1-1.14.56 30.1 30.1 0 0 1-6.64 2.13 19.74 19.74 0 0 1-2.4.29c-.44.03-.9.03-1.34.02a8.72 8.72 0 0 1-4.68 5.36 22.25 22.25 0 0 1-10.85 2.17c-7.74-.2-13.46-4.29-13.08-9.12a6.31 6.31 0 0 1 1.06-3.1 7.9 7.9 0 0 1 .52-.69c2.47-2.93 7.47-5.05 13.08-5.29z" fill="url(#r)" opacity=".34"/><path d="M151.04 272.89c.59-.06 1.2-.1 1.85-.13.94-3.07 4.73-5.65 9.78-6.52a22.42 22.42 0 0 1 4.34-.32 20.44 20.44 0 0 1 6.38 1.15 27.81 27.81 0 0 1 3.59 1.57c.97-.72 2.1-1.47 3.3-2.2a23.64 23.64 0 0 1 12.19-3.09c5.38 0 10.05 1.5 13.06 3.68a33.14 33.14 0 0 1 3.71 3.08c.82-.4 1.7-.81 2.61-1.23a22.23 22.23 0 0 1 9-1.8c7.01 0 12.69 2.86 14.57 6.36a1.87 1.87 0 0 1 .14.3 9.97 9.97 0 0 1 .68 3.07 8.14 8.14 0 0 1-.07 1.3c.52.03 1.04.06 1.59.13 1.62.2 3.25.5 4.77.81l.43.1c.51.1.99.23 1.44.37 4.1 1.24 6.69 3.77 6.69 6.32 0 2.26-2.1 4.62-5.6 5.86a19.06 19.06 0 0 1-8.15.89 24.95 24.95 0 0 1-3.93-1.08 87.14 87.14 0 0 1-4.13-1.38 11.74 11.74 0 0 1-3.1-1.72 6.13 6.13 0 0 1-2.3-3.32 23.78 23.78 0 0 1-4.67.02c-.59-.06-1.15-.15-1.68-.26l-4.18-.85c-1.08-.21-2.13-.4-3.07-.63a14.91 14.91 0 0 1-5.37-2.44 19 19 0 0 1-4.4 2 25.78 25.78 0 0 1-9.86 1.01 20.3 20.3 0 0 1-1.97-.28c-1.23-.23-2.47-.45-3.67-.65-1.01-.17-2-.31-2.92-.47a18.22 18.22 0 0 1-6.67-2.6l-.5.26c-.3.14-.6.28-.92.4l-.25.1c-2.03.8-4.3 1.75-6.49 2.35a15.7 15.7 0 0 1-2.3.45c-.45.06-.89.08-1.34.1a8.7 8.7 0 0 1-4.96 4.98 23.24 23.24 0 0 1-10.78 1.51c-6.96-.4-11.52-4.23-10.75-8.64a6.26 6.26 0 0 1 1.12-2.78 7.82 7.82 0 0 1 .5-.62c2.46-2.65 7.19-4.68 12.29-5.16z" fill="url(#s)" opacity=".37"/><path d="M151.69 272.86c.53-.08 1.11-.17 1.74-.25.99-2.87 4.7-5.32 9.66-6.1a22.08 22.08 0 0 1 4.21-.24 19.57 19.57 0 0 1 6.18 1.2c1.25.48 2.44.98 3.5 1.49a322.4 322.4 0 0 0 3.33-2.12 22.8 22.8 0 0 1 12.16-3.17c5.49 0 10.16 1.59 13 3.78 1.37 1.06 2.69 2.09 3.77 2.98.83-.36 1.72-.75 2.63-1.18a21.52 21.52 0 0 1 8.98-1.84c7 0 12.52 2.9 14.19 6.2a1.35 1.35 0 0 1 .11.3 13.43 13.43 0 0 1 .62 3 9.84 9.84 0 0 1-.02 1.25c.48.08.97.15 1.5.25 1.54.29 3.15.64 4.67.92l.43.07c.51.1.98.21 1.43.33 4.22 1.13 6.83 3.63 6.83 5.96 0 2.07-2.16 4.44-5.86 5.54a18.16 18.16 0 0 1-8.14.46 34.44 34.44 0 0 1-3.7-1.39c-1.12-.4-2.23-.75-3.27-1.07l-.88-.27a12.3 12.3 0 0 1-3.18-1.5 6.36 6.36 0 0 1-2.53-3 22.63 22.63 0 0 1-4.66-.19 14.9 14.9 0 0 1-1.65-.36c-1.36-.37-2.78-.7-4.14-.94-1.09-.2-2.14-.32-3.08-.45a15.3 15.3 0 0 1-5.44-1.89 19.25 19.25 0 0 1-4.46 1.83 25.14 25.14 0 0 1-9.88.64 17.83 17.83 0 0 1-1.94-.39 36.87 36.87 0 0 0-3.65-.73c-1.01-.15-2-.23-2.92-.32a18 18 0 0 1-6.74-2.07l-.52.23-.93.35-.26.09c-2.08.7-4.33 1.78-6.34 2.57a12.28 12.28 0 0 1-2.22.6c-.43.09-.87.13-1.32.17a8.83 8.83 0 0 1-5.23 4.61c-3.68 1.4-7.6 1.17-10.72.86-6.17-.61-9.59-4.13-8.42-8.17a6.3 6.3 0 0 1 1.18-2.46c.15-.19.32-.37.5-.55 2.43-2.37 6.89-4.32 11.48-5.03z" fill="url(#t)" opacity=".41"/><path d="M152.33 272.83c.49-.11 1.03-.25 1.63-.36 1.05-2.68 4.67-5 9.55-5.67a21.72 21.72 0 0 1 4.09-.18 18.7 18.7 0 0 1 5.96 1.26l3.42 1.4a37.2 37.2 0 0 0 3.37-2.04 22 22 0 0 1 12.12-3.25c5.6 0 10.27 1.68 12.95 3.89 1.33 1.1 2.67 2.1 3.82 2.87a29.2 29.2 0 0 0 2.65-1.13 20.85 20.85 0 0 1 8.96-1.89c6.99 0 12.34 2.93 13.8 6.04a1.06 1.06 0 0 1 .1.3 21.15 21.15 0 0 1 .55 2.93c.03.42.03.83.03 1.22l1.4.35a48.54 48.54 0 0 0 5 1.1c.52.07.98.17 1.43.28 4.36 1.01 6.98 3.48 6.98 5.6 0 1.87-2.23 4.26-6.13 5.22a23.75 23.75 0 0 1-8.13.02 31.97 31.97 0 0 0-3.49-1.7 28.39 28.39 0 0 0-3.26-1.08l-.89-.23a13 13 0 0 1-3.25-1.26 6.78 6.78 0 0 1-2.78-2.7 21.42 21.42 0 0 1-4.64-.39 12.7 12.7 0 0 1-1.61-.46 23.35 23.35 0 0 0-4.12-1.04 27.7 27.7 0 0 0-3.08-.27 15.7 15.7 0 0 1-5.5-1.33 19.55 19.55 0 0 1-4.53 1.67 24.47 24.47 0 0 1-9.9.25 15.68 15.68 0 0 1-1.9-.49 20.6 20.6 0 0 0-3.63-.8 24.42 24.42 0 0 0-2.92-.17 17.66 17.66 0 0 1-6.82-1.56l-.53.2c-.31.12-.63.22-.95.31l-.26.08a34.5 34.5 0 0 0-6.2 2.79 9.62 9.62 0 0 1-2.13.76c-.42.1-.85.17-1.3.24a9.08 9.08 0 0 1-5.51 4.24c-4 1.25-7.92.61-10.65.2-5.39-.82-8.36-4.33-6.1-7.7a4.51 4.51 0 0 1 1.24-2.15c.15-.15.31-.32.5-.47 2.4-2.1 6.59-3.96 10.66-4.9z" fill="url(#u)" opacity=".45"/><path d="M152.98 272.8c.43-.14.93-.32 1.52-.48 1.1-2.47 4.64-4.66 9.42-5.24a21.33 21.33 0 0 1 3.97-.11 17.84 17.84 0 0 1 5.76 1.31c1.16.5 2.29.94 3.33 1.32a19.6 19.6 0 0 0 3.4-1.95 21.25 21.25 0 0 1 12.09-3.33c5.7 0 10.37 1.77 12.9 3.98a22.38 22.38 0 0 0 3.87 2.78 17.35 17.35 0 0 0 2.67-1.09 20.22 20.22 0 0 1 8.94-1.93c6.98 0 12.17 2.97 13.42 5.88a.9.9 0 0 1 .08.3c.14.93.38 1.89.48 2.86.04.4.06.8.07 1.18.4.16.84.3 1.3.46a23.9 23.9 0 0 0 4.5 1.14l.43.05c.51.06.97.15 1.4.23 4.5.9 7.14 3.33 7.14 5.23 0 1.7-2.3 4.09-6.4 4.91a22.03 22.03 0 0 1-8.12-.41 15.8 15.8 0 0 0-3.27-2.01 17.12 17.12 0 0 0-3.26-1.1l-.9-.17a13.83 13.83 0 0 1-3.32-1.04 7.46 7.46 0 0 1-3.03-2.38 20.18 20.18 0 0 1-4.62-.6 11.04 11.04 0 0 1-1.58-.55 15.43 15.43 0 0 0-4.08-1.15 16.34 16.34 0 0 0-3.09-.08 16.05 16.05 0 0 1-5.57-.78 19.94 19.94 0 0 1-4.6 1.5 23.8 23.8 0 0 1-9.9-.12 14.06 14.06 0 0 1-1.88-.6 14.28 14.28 0 0 0-3.61-.88 15.56 15.56 0 0 0-2.92-.02 17.2 17.2 0 0 1-6.9-1.03 14.69 14.69 0 0 1-1.5.43l-.27.06a18.98 18.98 0 0 0-6.04 3.01 7.68 7.68 0 0 1-2.05.93c-.4.12-.84.21-1.29.3a9.48 9.48 0 0 1-5.78 3.87c-4.32 1.1-8.22.06-10.6-.46-4.57-1-6.59-4.33-3.76-7.22a4.2 4.2 0 0 1 1.3-1.83l.48-.4a37.31 37.31 0 0 1 9.87-4.77z" fill="url(#v)" opacity=".48"/><path d="M153.63 272.76c.38-.17.84-.38 1.4-.59 1.15-2.27 4.62-4.32 9.3-4.8a20.91 20.91 0 0 1 3.86-.06 16.98 16.98 0 0 1 5.55 1.38 27.44 27.44 0 0 0 3.24 1.24 13.29 13.29 0 0 0 3.44-1.88c2.5-1.86 6.71-3.41 12.05-3.41 5.8 0 10.48 1.87 12.83 4.09a14.21 14.21 0 0 0 3.94 2.67 12.35 12.35 0 0 0 2.69-1.04 19.62 19.62 0 0 1 8.92-1.98c6.96 0 12 3 13.04 5.73a.79.79 0 0 1 .05.28c.09.92.3 1.87.41 2.8l.13 1.15c.37.2.78.38 1.2.57a15.5 15.5 0 0 0 4.4 1.24l.43.04c.52.05.97.12 1.4.19 4.64.76 7.28 3.18 7.28 4.86 0 1.5-2.35 3.91-6.67 4.6a19.47 19.47 0 0 1-8.1-.86 10.4 10.4 0 0 0-3.05-2.31 12.28 12.28 0 0 0-3.26-1.1 14 14 0 0 0-.9-.14 14.79 14.79 0 0 1-3.4-.8 8.44 8.44 0 0 1-3.28-2.07 18.97 18.97 0 0 1-4.6-.8 9.8 9.8 0 0 1-1.55-.66 11.1 11.1 0 0 0-7.13-1.15 16.27 16.27 0 0 1-5.64-.22 20.38 20.38 0 0 1-4.67 1.34 23.15 23.15 0 0 1-9.92-.5 12.86 12.86 0 0 1-1.85-.7 10.94 10.94 0 0 0-3.59-.97 11.36 11.36 0 0 0-2.92.14 16.67 16.67 0 0 1-6.97-.52 15.19 15.19 0 0 1-1.53.36l-.28.05a12.93 12.93 0 0 0-5.88 3.23 6.3 6.3 0 0 1-1.98 1.08 12.44 12.44 0 0 1-1.26.38 10.05 10.05 0 0 1-6.06 3.49c-4.64.95-8.52-.48-10.53-1.11-3.77-1.19-4.84-4.34-1.44-6.75a4.02 4.02 0 0 1 1.36-1.51c.15-.11.3-.23.48-.34a83.63 83.63 0 0 1 9.06-4.64z" fill="url(#w)" opacity=".52"/><path d="M154.28 272.73a10.32 10.32 0 0 1 1.3-.7c1.19-2.07 4.57-4 9.17-4.39a20.45 20.45 0 0 1 3.73.02 16.13 16.13 0 0 1 5.35 1.44 16.44 16.44 0 0 0 3.15 1.15 10.05 10.05 0 0 0 3.48-1.8c2.37-1.86 6.57-3.49 12-3.49 5.92 0 10.59 1.97 12.79 4.2a10.42 10.42 0 0 0 4 2.56 9.61 9.61 0 0 0 2.7-1 19.06 19.06 0 0 1 8.9-2.02c6.95 0 11.82 3.05 12.66 5.58a.74.74 0 0 1 .03.28 22.96 22.96 0 0 0 .34 2.74l.17 1.1a12.52 12.52 0 0 0 1.12.68 11.3 11.3 0 0 0 4.3 1.35l.43.03c.52.02.97.07 1.39.13 4.78.63 7.43 3.04 7.43 4.5 0 1.32-2.42 3.73-6.95 4.28a16.7 16.7 0 0 1-8.08-1.29 7.88 7.88 0 0 0-2.83-2.62 9.6 9.6 0 0 0-3.26-1.1c-.3-.05-.61-.08-.92-.1a15.85 15.85 0 0 1-3.46-.57 9.81 9.81 0 0 1-3.53-1.76 17.82 17.82 0 0 1-4.58-1.02 8.85 8.85 0 0 1-1.51-.75 9.17 9.17 0 0 0-4.02-1.35 8.95 8.95 0 0 0-3.1.29 16.35 16.35 0 0 1-5.7.32 20.87 20.87 0 0 1-4.73 1.19 22.51 22.51 0 0 1-9.94-.89 11.93 11.93 0 0 1-1.81-.8 8.78 8.78 0 0 0-6.5-.75 16.1 16.1 0 0 1-7.04 0 15.84 15.84 0 0 1-1.85.32 9.76 9.76 0 0 0-5.73 3.44 5.32 5.32 0 0 1-1.89 1.25 11.62 11.62 0 0 1-1.25.44 10.8 10.8 0 0 1-6.34 3.12 17.77 17.77 0 0 1-10.45-1.76c-2.95-1.35-3.08-4.36.88-6.28a4.08 4.08 0 0 1 1.42-1.2l.47-.26c2.39-1.23 5.74-2.9 8.26-4.5z" fill="url(#x)" opacity=".55"/><path d="M154.93 272.7a6.48 6.48 0 0 1 1.18-.82c1.25-1.87 4.55-3.67 9.06-3.96a19.95 19.95 0 0 1 3.6.1 15.28 15.28 0 0 1 5.15 1.48 11.33 11.33 0 0 0 3.06 1.07 8.1 8.1 0 0 0 3.52-1.71c2.25-1.86 6.43-3.58 11.97-3.58 6.01 0 10.67 2.07 12.72 4.3a8.25 8.25 0 0 0 4.05 2.46 7.88 7.88 0 0 0 2.72-.94 18.52 18.52 0 0 1 8.9-2.08c6.93 0 11.64 3.1 12.26 5.43a.74.74 0 0 1 .02.27 12.9 12.9 0 0 0 .27 2.67l.22 1.07a8.72 8.72 0 0 0 1.02.79 8.81 8.81 0 0 0 4.2 1.45l.44.02c.52 0 .96.04 1.37.08 4.93.49 7.59 2.9 7.59 4.13 0 1.14-2.49 3.57-7.22 3.98a14.13 14.13 0 0 1-8.07-1.73 6.54 6.54 0 0 0-2.61-2.94 7.85 7.85 0 0 0-4.19-1.15 16.98 16.98 0 0 1-3.53-.35 11.62 11.62 0 0 1-3.78-1.44 16.73 16.73 0 0 1-4.57-1.22 8.14 8.14 0 0 1-1.47-.86 7.62 7.62 0 0 0-3.99-1.44 7.35 7.35 0 0 0-3.09.47 16.3 16.3 0 0 1-5.78.87 21.43 21.43 0 0 1-4.8 1.02 21.9 21.9 0 0 1-9.95-1.26 11.26 11.26 0 0 1-1.78-.91 7.42 7.42 0 0 0-6.48-.68 15.55 15.55 0 0 1-7.12.52l-.57.1a16.36 16.36 0 0 1-1.3.13 7.86 7.86 0 0 0-5.59 3.67 4.63 4.63 0 0 1-1.8 1.4 10.94 10.94 0 0 1-1.23.52 11.76 11.76 0 0 1-6.62 2.74 15.6 15.6 0 0 1-10.4-2.42c-2.11-1.44-1.3-4.36 3.22-5.8a4.56 4.56 0 0 1 1.48-.88l.46-.19a27.1 27.1 0 0 0 7.46-4.38z" fill="url(#y)" opacity=".59"/><path d="M155.58 272.67a4.4 4.4 0 0 1 1.06-.94c1.3-1.67 4.53-3.33 8.95-3.52a19.38 19.38 0 0 1 3.48.15 14.45 14.45 0 0 1 4.93 1.55 8.4 8.4 0 0 0 2.97.98 6.8 6.8 0 0 0 3.56-1.63c2.13-1.86 6.3-3.66 11.94-3.66 6.12 0 10.77 2.18 12.67 4.4a6.86 6.86 0 0 0 4.1 2.36 6.7 6.7 0 0 0 2.74-.9 18.01 18.01 0 0 1 8.87-2.12c6.93 0 11.47 3.14 11.9 5.27a.8.8 0 0 1-.01.27 8.8 8.8 0 0 0 .2 2.61 9.83 9.83 0 0 0 .27 1.03 6.8 6.8 0 0 0 .93.9 7.18 7.18 0 0 0 4.1 1.56h.43c.53 0 .97.01 1.37.04 5.07.33 7.73 2.75 7.73 3.76 0 .96-2.55 3.39-7.49 3.66-4.8.2-7.47-1.67-8.05-2.16a5.8 5.8 0 0 0-2.4-3.25 6.67 6.67 0 0 0-4.18-1.12 18.16 18.16 0 0 1-3.61-.11 13.91 13.91 0 0 1-4.03-1.13 15.74 15.74 0 0 1-4.55-1.43 7.63 7.63 0 0 1-1.44-.96 6.57 6.57 0 0 0-3.95-1.54 6.34 6.34 0 0 0-3.1.65 16.17 16.17 0 0 1-5.84 1.43 22.05 22.05 0 0 1-4.87.86 21.32 21.32 0 0 1-9.97-1.65 10.79 10.79 0 0 1-1.75-1.01 6.5 6.5 0 0 0-3.53-1.2 6.43 6.43 0 0 0-2.92.6 15.03 15.03 0 0 1-7.2 1.04l-.58.06a16.8 16.8 0 0 1-1.03.07l-.3.01a6.62 6.62 0 0 0-5.43 3.88 4.14 4.14 0 0 1-1.72 1.57 10.4 10.4 0 0 1-1.22.58 12.97 12.97 0 0 1-6.89 2.37c-5.6.41-9.36-1.99-10.33-3.07-1.32-1.48.67-3.56 5.54-5.33a11.5 11.5 0 0 1 1.54-.56l.45-.12a13.29 13.29 0 0 0 6.66-4.25z" fill="url(#z)" opacity=".63"/><path d="M156.23 272.64a3.24 3.24 0 0 1 .95-1.05c1.35-1.47 4.5-3 8.82-3.1a18.75 18.75 0 0 1 3.36.22 13.63 13.63 0 0 1 4.73 1.6 6.51 6.51 0 0 0 2.88.9 5.89 5.89 0 0 0 3.6-1.55c2.01-1.85 6.15-3.73 11.9-3.73 6.23 0 10.86 2.28 12.6 4.5a5.9 5.9 0 0 0 4.18 2.26 5.84 5.84 0 0 0 2.75-.85 17.53 17.53 0 0 1 8.85-2.17c6.92 0 11.3 3.17 11.5 5.11a1.04 1.04 0 0 1-.02.27 6.58 6.58 0 0 0 .14 2.54 6.83 6.83 0 0 0 .31 1 5.76 5.76 0 0 0 .84 1 6.04 6.04 0 0 0 4.01 1.66h.43c.53-.03.96-.03 1.36-.02 5.21.17 7.88 2.6 7.88 3.4 0 .77-2.61 3.21-7.76 3.35-5.08.1-7.74-2.05-8.04-2.6a5.41 5.41 0 0 0-2.17-3.56 5.87 5.87 0 0 0-3.25-1.13 5.78 5.78 0 0 0-.95.05 19.31 19.31 0 0 1-3.69.11 16.7 16.7 0 0 1-4.27-.81 14.86 14.86 0 0 1-4.53-1.64 7.27 7.27 0 0 1-1.4-1.06 5.8 5.8 0 0 0-3.93-1.64 5.66 5.66 0 0 0-3.1.84 16.03 16.03 0 0 1-5.9 1.98 22.72 22.72 0 0 1-4.95.7 20.78 20.78 0 0 1-9.98-2.03 10.53 10.53 0 0 1-1.71-1.12 5.75 5.75 0 0 0-6.44-.53 14.59 14.59 0 0 1-7.27 1.56l-.6.04a17.38 17.38 0 0 1-1.35.02 5.79 5.79 0 0 0-5.28 4.1 3.8 3.8 0 0 1-1.63 1.72 9.93 9.93 0 0 1-1.2.66 14.46 14.46 0 0 1-7.17 2c-5.92.2-9.72-2.42-10.27-3.73-.6-1.46 2.27-3.92 7.88-4.86a15.88 15.88 0 0 1 1.59-.24l.44-.05a7.92 7.92 0 0 0 5.86-4.12z" fill="url(#bz)" opacity=".66"/><path d="M238.8 287.52c-5.37 0-8-2.44-8.03-3.04a5.2 5.2 0 0 0-6.16-4.91 20.46 20.46 0 0 1-3.76.34c-5.03 0-8.85-1.76-10.4-3.5a5.21 5.21 0 0 0-7-.73c-2.59 1.93-6.7 3.07-10.98 3.07-4.73 0-9.2-1.39-11.68-3.63a5.2 5.2 0 0 0-6.42-.45 14.57 14.57 0 0 1-7.95 2.09c-.36 0-.71-.02-1.06-.04h-.31a5.21 5.21 0 0 0-5.13 4.31c-.26 1.48-3.98 4.24-10.18 4.24-6.23 0-10.2-2.88-10.2-4.39 0-1.5 3.97-4.38 10.2-4.38.47 0 1 .02 1.65.08l.43.01a5.21 5.21 0 0 0 5.06-3.98c.33-1.34 3.89-3.84 9.54-3.84a14.9 14.9 0 0 1 7.76 1.95 5.21 5.21 0 0 0 6.43-.66c1.9-1.84 6.01-3.81 11.86-3.81 6.33 0 10.95 2.39 12.55 4.6a5.21 5.21 0 0 0 7 1.36 17.07 17.07 0 0 1 8.83-2.22c6.9 0 11.13 3.21 11.13 4.96a2.05 2.05 0 0 1-.05.26 5.21 5.21 0 0 0 5.09 6.32c.14 0 .29 0 .43-.02.53-.04.96-.06 1.34-.06 5.36 0 8.03 2.45 8.03 3.03 0 .58-2.67 3.04-8.03 3.04z" fill="url(#by)" opacity=".7"/><path d="m182.75 221.03c-12.16 38.55-14.06 53.67-33.8 65.51-41.31 24.8 82.79 29.22 95.77 18.94 12.99-10.28-20.9-16.55-26.51-35.71-9.58-32.7-16.01-49.44-16.01-49.44z" fill="url(#bx)" opacity=".8" style="mix-blend-mode:screen"/><path d="m185.02 222.64c-9.72 37.86-11.25 52.7-27.04 64.34-33.05 24.34 66.23 28.7 76.62 18.6 10.4-10.1-16.72-16.26-21.21-35.07-7.66-32.11-12.8-48.55-12.8-48.55z" fill="url(#bw)" style="mix-blend-mode:screen"/><path d="M260.64 299.53c0-6.33-8.24-11.47-18.41-11.47l-.72.03c0-.13.03-.25.03-.37 0-6.33-8.25-11.46-18.41-11.46-.59 0-1.16.02-1.73.05-.65-2.8-5.5-4.96-11.38-4.96-6.34 0-11.47 2.5-11.47 5.6 0 2.56 3.53 4.72 8.33 5.38a8.25 8.25 0 0 0-2.16 5.39c0 3.77 2.95 7.11 7.47 9.2a24.03 24.03 0 0 0-10.75 5.13 18.24 18.24 0 0 0-8.62-1.92 19.76 19.76 0 0 0-7.38 1.32c-3.17-6.12-12.4-10.56-23.3-10.56-.5 0-.99.02-1.48.03a9.98 9.98 0 0 0-3.34-4.8c3.75-.92 6.33-2.81 6.33-5 0-3.1-5.14-5.6-11.47-5.6-6.33 0-11.46 2.5-11.46 5.6a2.75 2.75 0 0 0 .04.4c-9.33.56-16.62 5.45-16.62 11.4 0 3.93 3.17 7.38 8 9.44a3.42 3.42 0 0 0-1.06 2.33c0 2.39 3.07 4.42 7.37 5.23 2.51 6.1 10.94 10.72 21.25 11.36 1.98 1.68 5.68 2.82 9.94 2.82a22.76 22.76 0 0 0 3.27-.23c2.82 4.06 9.3 6.92 16.87 6.92 5.82 0 10.98-1.7 14.36-4.32a22.32 22.32 0 0 0 4.05.37c4.49 0 8.36-1.27 10.24-3.1.41.01.81.05 1.22.05 10.02 0 15.92-4.1 19.16-7.65l.64.01c6.33 0 11.46-2.5 11.46-5.6a2.79 2.79 0 0 0-.04-.46c4.78-1.22 9.77-4.05 9.77-10.56z" fill="url(#bv)" opacity=".3"/><path d="M140.75 281.63a4.87 4.87 0 0 1 2.4-3.22 14.6 14.6 0 0 1 2.54-1.4 19.93 19.93 0 0 1 6.5-1.02 21.97 21.97 0 0 1 3.61.3 11.37 11.37 0 0 1 4.32 1.87 5.68 5.68 0 0 1 2.65 3.77 3.29 3.29 0 0 1-.9 2.43 8.36 8.36 0 0 1-4.24 2.67l.16.12q.51.4.97.82a9.32 9.32 0 0 1 2.43 3.45h1.5a32.75 32.75 0 0 1 14.45 3.4 40.81 40.81 0 0 1 4.82 2.97c.55.4 1.07.8 1.54 1.2a13.61 13.61 0 0 1 2.47 2.82 14.75 14.75 0 0 1 1.44-.46 20.4 20.4 0 0 1 5.96-.63c.9.04 1.8.1 2.65.2a29.35 29.35 0 0 1 3.7.6 13.02 13.02 0 0 1 2.21.75 20.96 20.96 0 0 1 5.95-3.5c1.52-.6 3.12-1.18 4.75-1.67-.38-.23-.75-.46-1.11-.7a19.08 19.08 0 0 1-4.69-4.35 7.71 7.71 0 0 1-1.57-4.17 6.35 6.35 0 0 1 .16-1.87 7.13 7.13 0 0 1 .85-2.02 13.7 13.7 0 0 1 1.05-1.5 19.09 19.09 0 0 1-3.33-1.12 9.32 9.32 0 0 1-4.37-3.3 2.75 2.75 0 0 1-.36-1.12c.1-1.49 1.47-2.84 3.64-3.76a18.98 18.98 0 0 1 7.57-1.3 22.32 22.32 0 0 1 2.47.2c4.07.63 7.39 2.32 8.34 4.32a2.72 2.72 0 0 1 .14.37 30.8 30.8 0 0 1 1.68-.05h.5c9.67.16 17.34 5.04 17.45 10.92l-.02.35c.22.01.44 0 .66.02l.18.02a51.74 51.74 0 0 1 7.75 1.59c.22.06.5.13.7.2 5.88 1.78 9.85 5.54 9.85 9.7 0 6.03-4.54 8.83-9.34 10.08a2.56 2.56 0 0 1 .02.43 2.71 2.71 0 0 1-.3 1.1c-1.18 2.35-5.52 4.23-10.53 4.42l-.64.01a18.89 18.89 0 0 1-4.09 3.19l-.48.27a41.35 41.35 0 0 1-3.5 1.82 27.36 27.36 0 0 1-11.27 2.44c-.42 0-.82-.03-1.23-.03a8.97 8.97 0 0 1-2.22 1.33l-.39.16-.48.18a13.68 13.68 0 0 1-.13.05 28.1 28.1 0 0 1-3.54.98 20.15 20.15 0 0 1-3.59.38 21.69 21.69 0 0 1-2.78-.13q-.67-.08-1.3-.19-.6.4-1.26.76l-.75.4c-.9.45-1.85.88-2.85 1.3a25.68 25.68 0 0 1-9.64 1.83l-.98-.01a23.19 23.19 0 0 1-12.11-3.49 21 21 0 0 1-3.54-2.95l-.41-.46a22.13 22.13 0 0 1-2.7.22h-.55a19.27 19.27 0 0 1-6.7-1.12 13.1 13.1 0 0 1-3.16-1.7c-7.6-.46-14.06-3.12-17.78-6.8a19.81 19.81 0 0 1-3.2-4.05l-.27-.5a17.68 17.68 0 0 1-1.82-.46 14.13 14.13 0 0 1-2.37-1.22c-1.67-1.07-2.82-2.36-2.92-3.72a3 3 0 0 1 .83-2.18c-3.44-1.5-5.98-3.7-7.03-6.26a6.9 6.9 0 0 1-.5-2.82c.15-5.6 7.1-10.25 16.1-10.8a2.08 2.08 0 0 1-.02-.36z" fill="url(#bu)" opacity=".35"/><path d="M140.79 282.14a5.86 5.86 0 0 1 2.53-3.09 20.84 20.84 0 0 1 2.4-1.53 19.22 19.22 0 0 1 6.46-1.06 21.32 21.32 0 0 1 3.63.3 8.82 8.82 0 0 1 3.53 2.08 7.68 7.68 0 0 1 2.55 3.91 3.14 3.14 0 0 1-.64 2.41 6.59 6.59 0 0 1-3.32 2.78l.17.11c.35.24.68.48 1 .73a9.56 9.56 0 0 1 2.63 3.14l1.5.01a30.43 30.43 0 0 1 14.28 3.8c1.67.99 3.33 2.01 4.8 2.95.56.35 1.1.7 1.58 1.05a13.78 13.78 0 0 1 2.61 2.44 14.67 14.67 0 0 1 1.45-.42 19.69 19.69 0 0 1 5.98-.44c.9.07 1.78.16 2.63.24 1.33.13 2.59.25 3.68.42a13.25 13.25 0 0 1 2.18.53 20.97 20.97 0 0 1 6-3.4c1.54-.59 3.12-1.23 4.65-1.83-.32-.24-.64-.5-.97-.77a34.08 34.08 0 0 1-4.51-4.43 7.67 7.67 0 0 1-1.8-4.03 5.6 5.6 0 0 1 .08-1.86 6.36 6.36 0 0 1 .86-2.01c.32-.5.66-1.01 1.04-1.5a23.34 23.34 0 0 1-3-1.4 12.86 12.86 0 0 1-4.35-3.28 2.65 2.65 0 0 1-.45-1.04c.18-1.36 1.54-2.61 3.64-3.42a18.69 18.69 0 0 1 7.32-1.1 21.22 21.22 0 0 1 2.36.25c3.74.78 6.95 2.43 8 4.24a2.47 2.47 0 0 1 .16.34c.53-.04 1.07-.06 1.62-.06h.48c9.42.14 16.8 4.84 17.01 10.37l-.01.35.6.05.16.04c1.14.28 2.37.63 3.63.98 1.3.35 2.62.66 3.87 1 .2.06.51.12.7.19 6.08 1.6 10.18 5.36 10.18 9.35 0 5.55-4.08 8.32-8.9 9.6a2.38 2.38 0 0 1 0 .4 2.53 2.53 0 0 1-.33 1c-1.27 2.19-5.35 4.05-9.88 4.44l-.63.04a16.8 16.8 0 0 1-4.24 2.97c-.13.08-.36.17-.5.24-1.08.6-2.3 1.17-3.54 1.8a25.95 25.95 0 0 1-11.25 2.76c-.42.02-.82 0-1.24 0a9.65 9.65 0 0 1-2.28 1.21 11.04 11.04 0 0 1-.9.3l-.13.04c-1.1.33-2.3.73-3.55 1.03a17.96 17.96 0 0 1-3.59.48 20.97 20.97 0 0 1-2.8-.09q-.67-.07-1.32-.17c-.41.23-.84.45-1.3.66l-.76.34-2.89 1.29a24.57 24.57 0 0 1-9.68 1.96h-1a22.07 22.07 0 0 1-12.15-3.61 46.95 46.95 0 0 1-3.61-2.88l-.45-.41a21.62 21.62 0 0 1-2.68.22h-.55a16.9 16.9 0 0 1-9.78-2.81c-7.74-.48-14.2-3.26-17.68-6.96a36.43 36.43 0 0 1-3.26-3.95q-.16-.23-.3-.47a16.92 16.92 0 0 1-1.82-.46 16.8 16.8 0 0 1-2.11-1.38c-1.53-1.14-2.72-2.42-2.94-3.72a2.63 2.63 0 0 1 .61-2.02c-3.3-1.47-5.73-3.61-6.67-6.04a6.38 6.38 0 0 1-.4-2.7c.31-5.23 6.93-9.64 15.59-10.17a1.6 1.6 0 0 1 0-.33z" fill="url(#bt)" opacity=".39"/><path d="M140.82 282.65a7.52 7.52 0 0 1 2.67-2.96c.72-.56 1.48-1.14 2.25-1.66a18.5 18.5 0 0 1 6.44-1.1 20.7 20.7 0 0 1 3.64.32 7.62 7.62 0 0 1 2.73 2.27 11.9 11.9 0 0 1 2.46 4.05 3.04 3.04 0 0 1-.38 2.39c-.75 1.36-1.4 2.49-2.4 2.89l.17.1c.36.2.7.42 1.04.64a10.07 10.07 0 0 1 2.83 2.82c.5 0 1 .02 1.5.04a28.42 28.42 0 0 1 14.1 4.17 61.48 61.48 0 0 0 4.79 2.94c.57.32 1.12.6 1.63.9a14 14 0 0 1 2.74 2.07 14.68 14.68 0 0 1 1.46-.38 18.93 18.93 0 0 1 5.99-.25c.88.1 1.77.22 2.62.29 1.32.11 2.58.16 3.66.22a13.57 13.57 0 0 1 2.16.31 21 21 0 0 1 6.05-3.3 42.92 42.92 0 0 0 4.54-1.98l-.82-.83a206.47 206.47 0 0 1-4.35-4.53 7.68 7.68 0 0 1-2-3.88 5.02 5.02 0 0 1-.02-1.85 5.72 5.72 0 0 1 .86-2.01 53 53 0 0 1 1.03-1.51c-.85-.45-1.74-1.05-2.67-1.64a21.12 21.12 0 0 1-4.32-3.3 2.65 2.65 0 0 1-.54-.94c.27-1.24 1.6-2.38 3.64-3.08a18.4 18.4 0 0 1 7.07-.89 19.77 19.77 0 0 1 2.26.3c3.4.92 6.49 2.52 7.65 4.15a2.32 2.32 0 0 1 .18.3 28.4 28.4 0 0 1 1.55-.05h.47c9.17.12 16.27 4.64 16.57 9.82v.33l.55.1.14.06c1 .41 2.15.87 3.39 1.3 1.25.43 2.58.75 3.85 1.07.18.05.54.1.7.16 6.29 1.42 10.52 5.18 10.52 9 0 5.08-3.63 7.82-8.48 9.13a2.19 2.19 0 0 1-.02.35 2.37 2.37 0 0 1-.36.92c-1.35 2.02-5.16 3.87-9.21 4.45l-.63.07a15.37 15.37 0 0 1-4.4 2.75c-.1.08-.38.16-.5.22-1.12.56-2.37 1.1-3.58 1.8a24.73 24.73 0 0 1-11.24 3.07c-.42.02-.83 0-1.25.01a10.56 10.56 0 0 1-2.35 1.1 10.64 10.64 0 0 1-.9.26l-.14.04c-1.13.3-2.34.72-3.56 1.08a16.07 16.07 0 0 1-3.6.58 20.39 20.39 0 0 1-2.81-.06q-.69-.06-1.34-.16c-.43.2-.88.4-1.34.56l-.79.3c-.94.36-1.93.8-2.92 1.27a23.46 23.46 0 0 1-9.73 2.1h-1c-5.18-.12-9.54-1.66-12.2-3.73-1.3-1.01-2.58-2-3.69-2.81l-.48-.36a21.12 21.12 0 0 1-2.66.21h-.54a17.29 17.29 0 0 1-6.58-1.21 32.04 32.04 0 0 1-3.13-1.6c-7.89-.48-14.33-3.38-17.58-7.08-1.18-1.35-2.34-2.7-3.32-3.86q-.18-.21-.34-.43a16.1 16.1 0 0 1-1.81-.47c-.63-.46-1.24-1-1.86-1.54-1.38-1.21-2.62-2.48-2.95-3.73a2.32 2.32 0 0 1 .4-1.87c-3.18-1.43-5.49-3.5-6.32-5.8a5.86 5.86 0 0 1-.3-2.57c.47-4.88 6.75-9.05 15.08-9.57a1.25 1.25 0 0 1 .03-.3z" fill="url(#bs)" opacity=".44"/><path d="M140.85 283.16a10.73 10.73 0 0 1 2.8-2.83c.72-.59 1.43-1.22 2.12-1.8a17.76 17.76 0 0 1 6.41-1.12 20.09 20.09 0 0 1 3.64.32 8.82 8.82 0 0 1 1.94 2.46 25.86 25.86 0 0 1 2.37 4.2 3 3 0 0 1-.13 2.37c-.62 1.46-.88 2.65-1.47 3l.18.09c.37.18.72.36 1.07.56a10.9 10.9 0 0 1 3.03 2.5c.5.01 1 .03 1.5.07 5.86.4 10.82 2.18 13.93 4.55a27.24 27.24 0 0 0 4.77 2.92c.58.28 1.15.5 1.67.73a14.22 14.22 0 0 1 2.88 1.71 14.75 14.75 0 0 1 1.47-.34 18.14 18.14 0 0 1 6-.07c.88.15 1.76.28 2.61.34a29.63 29.63 0 0 0 3.63.03 13.9 13.9 0 0 1 2.14.1 21.03 21.03 0 0 1 6.1-3.21 22.34 22.34 0 0 0 4.44-2.12c-.21-.29-.43-.59-.68-.9a48.33 48.33 0 0 0-4.17-4.63 7.75 7.75 0 0 1-2.22-3.73 4.54 4.54 0 0 1-.11-1.84 5.2 5.2 0 0 1 .87-2l1.01-1.53c-.69-.54-1.45-1.23-2.33-1.89-1.6-1.2-3.26-2.32-4.3-3.3a2.76 2.76 0 0 1-.63-.85c.36-1.11 1.68-2.14 3.64-2.75a17.55 17.55 0 0 1 8.97-.32c3.07 1.06 6.03 2.61 7.31 4.06a2.25 2.25 0 0 1 .2.26c.49-.03.99-.05 1.5-.05h.44c8.92.11 15.73 4.45 16.13 9.28l.01.32.5.14.11.07a20.66 20.66 0 0 0 3.15 1.63 25.08 25.08 0 0 0 3.84 1.14c.16.04.56.09.7.14 6.5 1.24 10.85 5 10.85 8.66 0 4.59-3.17 7.3-8.04 8.64a2.03 2.03 0 0 1-.04.32 2.25 2.25 0 0 1-.4.82c-1.43 1.86-4.98 3.69-8.54 4.47l-.63.1a14.38 14.38 0 0 1-4.55 2.53c-.1.07-.4.14-.53.2a30.69 30.69 0 0 0-3.6 1.77 23.63 23.63 0 0 1-11.23 3.4l-1.25.03a11.67 11.67 0 0 1-2.42.98l-.41.1c-.17.04-.34.09-.52.12l-.14.03a33.5 33.5 0 0 0-3.57 1.13 14.44 14.44 0 0 1-3.6.68 19.6 19.6 0 0 1-2.83-.02c-.46-.03-.91-.08-1.36-.15-.44.18-.9.33-1.37.47q-.4.11-.81.25a20.41 20.41 0 0 0-2.95 1.24 22.54 22.54 0 0 1-9.78 2.24h-1c-5.34-.1-9.74-1.74-12.26-3.85a32.33 32.33 0 0 0-3.76-2.73 26 26 0 0 0-.52-.31 20.62 20.62 0 0 1-2.64.21h-.54a16.36 16.36 0 0 1-6.5-1.26c-1.15-.54-2.21-1.1-3.13-1.55-8.03-.5-14.46-3.52-17.48-7.22a48.45 48.45 0 0 0-3.39-3.77 7.54 7.54 0 0 1-.37-.39 15.36 15.36 0 0 1-1.8-.48c-.51-.51-1.03-1.1-1.6-1.7a13.4 13.4 0 0 1-2.97-3.73 2.08 2.08 0 0 1 .19-1.71c-3.05-1.4-5.24-3.41-5.97-5.58a5.38 5.38 0 0 1-.2-2.44c.62-4.52 6.58-8.45 14.56-8.95a1 1 0 0 1 .06-.26z" fill="url(#br)" opacity=".48"/><path d="M140.88 283.67a19.25 19.25 0 0 1 2.94-2.7c.7-.62 1.37-1.3 1.97-1.94a17.03 17.03 0 0 1 6.4-1.15 19.51 19.51 0 0 1 3.64.34c.27.41.56 1.42 1.14 2.65.68 1.43 1.6 3 2.28 4.33a3.04 3.04 0 0 1 .13 2.36c-.49 1.58-.37 2.81-.54 3.11l.17.07c.38.16.75.31 1.1.48a12.13 12.13 0 0 1 3.24 2.19c.5.02 1 .04 1.49.09 5.97.5 10.9 2.46 13.77 4.93a17.16 17.16 0 0 0 4.74 2.91c.6.23 1.18.41 1.72.57a14.35 14.35 0 0 1 3.02 1.34 14.96 14.96 0 0 1 1.48-.3 17.36 17.36 0 0 1 6.02.12 17.85 17.85 0 0 0 2.6.39 16.96 16.96 0 0 0 3.6-.17 14.16 14.16 0 0 1 2.11-.12 21.08 21.08 0 0 1 6.16-3.1 14.96 14.96 0 0 0 4.33-2.28c-.16-.3-.33-.63-.53-.96a21.34 21.34 0 0 0-4.01-4.72 7.87 7.87 0 0 1-2.43-3.59 4.16 4.16 0 0 1-.2-1.83 4.76 4.76 0 0 1 .88-2c.35-.5.68-1.01 1-1.53a19.6 19.6 0 0 0-2-2.15c-1.46-1.29-3.12-2.41-4.29-3.3a3.01 3.01 0 0 1-.71-.76c.45-.99 1.76-1.9 3.65-2.41a17.82 17.82 0 0 1 6.55-.47 16.13 16.13 0 0 1 2.06.4 30.05 30.05 0 0 1 6.97 3.98 2.35 2.35 0 0 1 .2.22l1.44-.05h.44c8.66.1 15.2 4.25 15.69 8.74l.01.3.43.18.1.1a12 12 0 0 0 2.91 1.95 16.75 16.75 0 0 0 3.82 1.2c.15.04.59.08.71.12 6.7 1.07 11.2 4.83 11.2 8.32 0 4.11-2.73 6.8-7.62 8.16a1.94 1.94 0 0 1-.07.28 2.2 2.2 0 0 1-.43.73c-1.52 1.7-4.8 3.5-7.88 4.48l-.62.13a13.73 13.73 0 0 1-4.7 2.32c-.09.06-.44.12-.55.16a19.38 19.38 0 0 0-3.64 1.77 22.63 22.63 0 0 1-11.2 3.72c-.42.03-.84.03-1.27.05a13.02 13.02 0 0 1-2.49.86l-.41.08a34.32 34.32 0 0 1-.67.13 19.27 19.27 0 0 0-3.58 1.18 13.05 13.05 0 0 1-3.61.77 19.12 19.12 0 0 1-2.85.02c-.47-.02-.92-.07-1.37-.13-.46.14-.93.26-1.41.37q-.41.08-.83.2a13.91 13.91 0 0 0-3 1.22 21.72 21.72 0 0 1-9.81 2.38h-1.02c-5.49-.09-9.93-1.84-12.3-3.97a17.64 17.64 0 0 0-3.84-2.66c-.18-.1-.36-.18-.54-.26a20.14 20.14 0 0 1-2.63.2h-.54a15.48 15.48 0 0 1-6.44-1.3c-1.1-.56-2.17-1.1-3.11-1.5-8.17-.5-14.6-3.66-17.38-7.35a21.9 21.9 0 0 0-3.45-3.68 7.42 7.42 0 0 1-.4-.36 14.59 14.59 0 0 1-1.8-.5c-.4-.55-.82-1.2-1.35-1.85a26.73 26.73 0 0 1-2.98-3.72 1.92 1.92 0 0 1-.03-1.57c-2.92-1.37-5-3.3-5.62-5.35a4.92 4.92 0 0 1-.08-2.31c.75-4.16 6.39-7.86 14.04-8.34a.86.86 0 0 1 .08-.23z" fill="url(#bq)" opacity=".53"/><path d="M140.91 284.17c.69-.73 1.93-1.5 3.07-2.56a15.1 15.1 0 0 0 1.84-2.07 16.3 16.3 0 0 1 6.36-1.18 18.96 18.96 0 0 1 3.65.34 6.88 6.88 0 0 0 .36 2.85 22.13 22.13 0 0 0 2.18 4.47 3.14 3.14 0 0 1 .39 2.33 4.39 4.39 0 0 0 .38 3.23l.18.06c.39.13.76.25 1.13.4a13.88 13.88 0 0 1 3.44 1.86c.5.03 1 .07 1.49.12 6.06.61 10.95 2.75 13.6 5.31a12.46 12.46 0 0 0 4.72 2.9 12.3 12.3 0 0 0 1.76.4 14.32 14.32 0 0 1 3.17.98c.47-.1.97-.2 1.49-.26a16.6 16.6 0 0 1 6.02.31 12.87 12.87 0 0 0 2.59.43 11.84 11.84 0 0 0 3.58-.36 14.3 14.3 0 0 1 2.08-.34 21.13 21.13 0 0 1 6.21-3 11.21 11.21 0 0 0 4.23-2.42 9.56 9.56 0 0 0-.39-1.03 13.66 13.66 0 0 0-3.84-4.82 8.06 8.06 0 0 1-2.64-3.43 3.85 3.85 0 0 1-.29-1.83 4.4 4.4 0 0 1 .88-2 16.4 16.4 0 0 0 1-1.54 10.22 10.22 0 0 0-1.68-2.4 21.77 21.77 0 0 0-4.26-3.3 3.47 3.47 0 0 1-.8-.67 5.84 5.84 0 0 1 3.65-2.07 17.51 17.51 0 0 1 6.3-.26 14.07 14.07 0 0 1 1.95.45c2.4 1.35 5.1 2.82 6.63 3.9a2.7 2.7 0 0 1 .22.18c.46-.03.92-.05 1.38-.05h.42c8.4.08 14.67 4.05 15.25 8.19l.02.29.38.22.08.11a8.47 8.47 0 0 0 2.66 2.29 12.56 12.56 0 0 0 3.81 1.26c.14.03.61.06.72.1 6.9.88 11.52 4.64 11.52 7.97 0 3.63-2.27 6.29-7.18 7.68a1.96 1.96 0 0 1-.1.25 2.23 2.23 0 0 1-.46.63 29.18 29.18 0 0 1-7.21 4.5l-.63.16a13.33 13.33 0 0 1-4.85 2.1c-.07.05-.46.1-.56.13a14.1 14.1 0 0 0-3.68 1.76 21.72 21.72 0 0 1-11.18 4.03c-.42.04-.85.06-1.28.08a14.64 14.64 0 0 1-2.55.74l-.43.06-.53.08-.15.02a13.48 13.48 0 0 0-3.59 1.23 11.86 11.86 0 0 1-3.61.88 18.73 18.73 0 0 1-2.87.06c-.47-.03-.93-.07-1.38-.13-.48.11-.97.2-1.46.27q-.42.06-.85.16a10.64 10.64 0 0 0-3.02 1.2 20.98 20.98 0 0 1-9.86 2.51h-1.03c-5.65-.06-10.12-1.92-12.35-4.08a12.21 12.21 0 0 0-3.91-2.6l-.58-.2a19.67 19.67 0 0 1-2.6.2h-.54a14.64 14.64 0 0 1-6.38-1.35 22.7 22.7 0 0 0-3.1-1.45c-8.32-.52-14.71-3.8-17.27-7.49a14.1 14.1 0 0 0-3.53-3.59c-.15-.1-.3-.2-.43-.31a13.85 13.85 0 0 1-1.8-.5 12.03 12.03 0 0 0-1.09-2.02c-.96-1.4-2.25-2.63-2.99-3.73a1.88 1.88 0 0 1-.24-1.4c-2.8-1.35-4.75-3.22-5.27-5.14a4.49 4.49 0 0 1 .03-2.18c.87-3.8 6.2-7.26 13.52-7.72a.8.8 0 0 1 .1-.2z" fill="url(#bp)" opacity=".57"/><path d="M140.95 284.68a29.55 29.55 0 0 0 3.2-2.43 10.29 10.29 0 0 0 1.7-2.2 15.58 15.58 0 0 1 6.33-1.22 18.43 18.43 0 0 1 3.66.35 3.87 3.87 0 0 0-.44 3.04 12.17 12.17 0 0 0 2.09 4.62 3.33 3.33 0 0 1 .64 2.31c-.17 1.83.65 3.14 1.31 3.34l.19.05 1.16.3a16.28 16.28 0 0 1 3.64 1.56c.5.04 1 .08 1.49.14 6.16.73 11 3.04 13.42 5.7a9.74 9.74 0 0 0 4.7 2.87 8.91 8.91 0 0 0 1.81.25 14.13 14.13 0 0 1 3.3.61c.49-.1 1-.17 1.5-.22a15.85 15.85 0 0 1 6.04.5 10 10 0 0 0 2.58.47 9.13 9.13 0 0 0 3.56-.55 14.28 14.28 0 0 1 2.05-.56 21.2 21.2 0 0 1 6.26-2.9 8.97 8.97 0 0 0 4.13-2.57 6.86 6.86 0 0 0-.24-1.1 10.08 10.08 0 0 0-3.67-4.9 8.32 8.32 0 0 1-2.86-3.3 3.6 3.6 0 0 1-.38-1.8 4.08 4.08 0 0 1 .89-2 11.43 11.43 0 0 0 .98-1.55 7.11 7.11 0 0 0-1.34-2.65 13.02 13.02 0 0 0-4.24-3.3 4.22 4.22 0 0 1-.9-.6 6.47 6.47 0 0 1 3.66-1.73 17.17 17.17 0 0 1 6.05-.05 12.05 12.05 0 0 1 1.85.5 56.6 56.6 0 0 0 6.28 3.81l.24.15c.43-.03.87-.04 1.32-.05h.4c8.16.06 14.15 3.86 14.81 7.65l.04.27.3.26.07.14a6.74 6.74 0 0 0 2.42 2.61 10.03 10.03 0 0 0 3.8 1.33c.12.02.63.04.72.07 7.1.7 11.85 4.47 11.85 7.63 0 3.15-1.81 5.78-6.74 7.2a2.12 2.12 0 0 1-.12.2 2.4 2.4 0 0 1-.5.55 95.54 95.54 0 0 1-6.55 4.51c-.18.07-.38.13-.62.2a13.15 13.15 0 0 1-5 1.88c-.06.04-.5.07-.58.1a11.01 11.01 0 0 0-3.71 1.75 20.9 20.9 0 0 1-11.17 4.35c-.42.05-.85.07-1.29.1a16.58 16.58 0 0 1-2.61.61l-.44.06-.54.05-.15.02a10.33 10.33 0 0 0-3.6 1.28 10.84 10.84 0 0 1-3.62.97 18.6 18.6 0 0 1-2.9.1q-.7-.03-1.39-.11c-.5.08-1 .14-1.49.17a8.16 8.16 0 0 0-.87.1 8.67 8.67 0 0 0-3.06 1.19 20.31 20.31 0 0 1-9.9 2.65h-1.04c-5.8-.05-10.31-2.02-12.4-4.2a9.38 9.38 0 0 0-3.98-2.52 5.15 5.15 0 0 0-.62-.16 19.21 19.21 0 0 1-2.59.2h-.53a13.85 13.85 0 0 1-6.31-1.4 14.02 14.02 0 0 0-3.1-1.4c-8.45-.53-14.82-3.94-17.16-7.62a10.4 10.4 0 0 0-3.6-3.5 8.05 8.05 0 0 1-.46-.28 13.15 13.15 0 0 1-1.8-.52 7.93 7.93 0 0 0-.82-2.17 25.56 25.56 0 0 0-3-3.73 2.02 2.02 0 0 1-.46-1.25c-2.67-1.31-4.5-3.11-4.92-4.9a4.07 4.07 0 0 1 .13-2.06c1-3.44 6.02-6.66 13-7.11a.86.86 0 0 1 .14-.16z" fill="url(#bo)" opacity=".62"/><path d="M140.98 285.2a12.92 12.92 0 0 0 3.33-2.3 7.92 7.92 0 0 0 1.56-2.35 14.86 14.86 0 0 1 6.31-1.24 17.92 17.92 0 0 1 3.66.36 3.54 3.54 0 0 0-1.23 3.23 8.67 8.67 0 0 0 2 4.75 3.6 3.6 0 0 1 .9 2.3c0 1.94 1.16 3.3 2.24 3.45l.18.04c.4.06.8.14 1.2.22a19.44 19.44 0 0 1 3.83 1.24c.5.04 1 .1 1.5.16 6.25.84 11.06 3.33 13.25 6.08a7.99 7.99 0 0 0 4.69 2.86 7.14 7.14 0 0 0 1.85.09 13.84 13.84 0 0 1 3.44.24c.49-.08 1-.15 1.5-.18a15.15 15.15 0 0 1 6.05.69 8.16 8.16 0 0 0 2.57.52 7.5 7.5 0 0 0 3.54-.75 14.08 14.08 0 0 1 2.03-.77 21.26 21.26 0 0 1 6.3-2.8 7.5 7.5 0 0 0 4.03-2.73 5.68 5.68 0 0 0-.1-1.16 8.04 8.04 0 0 0-3.5-5 8.65 8.65 0 0 1-3.07-3.14 3.39 3.39 0 0 1-.47-1.8 3.8 3.8 0 0 1 .9-2 8.78 8.78 0 0 0 .96-1.56 5.8 5.8 0 0 0-1-2.9 9.34 9.34 0 0 0-4.23-3.3 5.4 5.4 0 0 1-.97-.5 7.48 7.48 0 0 1 3.65-1.4 16.78 16.78 0 0 1 5.8.16 10.15 10.15 0 0 1 1.74.55 19.3 19.3 0 0 0 5.94 3.73l.25.1c.42-.02.84-.04 1.27-.04h.39c7.9.04 13.62 3.65 14.36 7.1l.05.26a3.6 3.6 0 0 1 .25.3l.04.15a5.85 5.85 0 0 0 2.19 2.94 8.32 8.32 0 0 0 3.78 1.4c.1.01.65.02.72.04 7.31.53 12.19 4.3 12.19 7.29 0 2.67-1.36 5.27-6.3 6.72l-.15.17a2.8 2.8 0 0 1-.53.45 43.7 43.7 0 0 0-5.9 4.53l-.6.22a13.15 13.15 0 0 1-5.17 1.67c-.04.03-.51.05-.59.07a8.95 8.95 0 0 0-3.74 1.73 20.17 20.17 0 0 1-11.16 4.68c-.42.05-.85.08-1.3.11a18.88 18.88 0 0 1-2.68.5l-.44.04-.55.03-.16.01a8.34 8.34 0 0 0-3.6 1.33 9.97 9.97 0 0 1-3.63 1.07 18.21 18.21 0 0 1-2.91.14q-.71-.02-1.41-.1c-.51.05-1.02.08-1.53.08a6.95 6.95 0 0 0-.9.05 7.37 7.37 0 0 0-3.09 1.16 19.7 19.7 0 0 1-9.95 2.79q-.52.02-1.04.01c-5.96-.04-10.5-2.12-12.45-4.32a7.7 7.7 0 0 0-4.06-2.45 5.82 5.82 0 0 0-.65-.1 18.77 18.77 0 0 1-2.57.19h-.53a13.09 13.09 0 0 1-6.24-1.44 10.03 10.03 0 0 0-3.09-1.37c-8.6-.53-14.94-4.08-17.06-7.75a8.23 8.23 0 0 0-3.66-3.4l-.5-.25a12.47 12.47 0 0 1-1.78-.53 6.26 6.26 0 0 0-.58-2.33 12.78 12.78 0 0 0-3.02-3.72 2.5 2.5 0 0 1-.67-1.1c-2.53-1.29-4.25-3.01-4.56-4.69a3.7 3.7 0 0 1 .23-1.92c1.12-3.08 5.85-6.06 12.49-6.5a1.08 1.08 0 0 1 .16-.12z" fill="url(#bn)" opacity=".66"/><path d="M141.01 285.7a8.37 8.37 0 0 0 3.46-2.17 6.57 6.57 0 0 0 1.42-2.48 14.16 14.16 0 0 1 6.3-1.27 17.43 17.43 0 0 1 3.66.37 3.84 3.84 0 0 0-2.03 3.43 6.91 6.91 0 0 0 1.9 4.89 3.98 3.98 0 0 1 1.17 2.28 3.75 3.75 0 0 0 3.16 3.56l.19.02 1.23.15a23.46 23.46 0 0 1 4.03.91l1.5.19c6.35.95 11.1 3.63 13.08 6.46a6.77 6.77 0 0 0 4.66 2.85 6.13 6.13 0 0 0 1.9-.07 13.58 13.58 0 0 1 3.58-.13c.5-.07 1-.12 1.52-.15a14.5 14.5 0 0 1 6.06.88 6.87 6.87 0 0 0 2.55.57 6.43 6.43 0 0 0 3.52-.94 13.83 13.83 0 0 1 2-.99 21.34 21.34 0 0 1 6.36-2.7 6.5 6.5 0 0 0 3.93-2.87 5.2 5.2 0 0 0 .04-1.23 6.73 6.73 0 0 0-3.33-5.1 9.06 9.06 0 0 1-3.3-2.99 3.22 3.22 0 0 1-.54-1.8 3.57 3.57 0 0 1 .9-2 7.14 7.14 0 0 0 .94-1.55 5.26 5.26 0 0 0-.67-3.16 7.33 7.33 0 0 0-4.2-3.3 7.27 7.27 0 0 1-1.06-.41 9.1 9.1 0 0 1 3.65-1.06 16.3 16.3 0 0 1 5.54.36 8.45 8.45 0 0 1 1.65.61 10.82 10.82 0 0 0 5.6 3.64l.26.07c.4-.03.8-.04 1.2-.05h.38c7.65.03 13.12 3.46 13.92 6.56l.06.24a2.71 2.71 0 0 1 .2.34c0 .06 0 .12.02.18a5.4 5.4 0 0 0 1.94 3.27 7.06 7.06 0 0 0 3.77 1.45c.08.01.68.01.72.03 7.52.35 12.53 4.11 12.53 6.94 0 2.2-.91 4.76-5.88 6.24-.05.04-.1.1-.17.14a3.77 3.77 0 0 1-.56.35 14.72 14.72 0 0 0-5.23 4.54 8.5 8.5 0 0 1-.6.26 13.33 13.33 0 0 1-5.32 1.45c-.03.02-.54.03-.6.04a7.44 7.44 0 0 0-3.79 1.72 19.58 19.58 0 0 1-11.13 5c-.43.05-.86.1-1.31.13a21.61 21.61 0 0 1-2.75.38l-.45.02-.56.01h-.16a6.98 6.98 0 0 0-3.62 1.39 9.22 9.22 0 0 1-3.63 1.17 17.84 17.84 0 0 1-2.93.17q-.72-.01-1.43-.08c-.52.01-1.05 0-1.57-.03a6.05 6.05 0 0 0-.9.01 6.4 6.4 0 0 0-3.14 1.14 19.2 19.2 0 0 1-10 2.92l-1.04.02c-6.12-.03-10.68-2.22-12.5-4.44a6.58 6.58 0 0 0-4.13-2.38 5.39 5.39 0 0 0-.69-.05 18.31 18.31 0 0 1-2.55.18h-.53a12.37 12.37 0 0 1-6.17-1.48 7.74 7.74 0 0 0-3.08-1.32c-8.74-.54-15.05-4.23-16.96-7.88a6.86 6.86 0 0 0-3.72-3.32l-.53-.2a11.8 11.8 0 0 1-1.79-.55 5.52 5.52 0 0 0-.32-2.49 8.52 8.52 0 0 0-3.02-3.72 3.71 3.71 0 0 1-.9-.95c-2.4-1.25-4-2.91-4.2-4.46a3.37 3.37 0 0 1 .34-1.8c1.21-2.71 5.66-5.45 11.97-5.87a1.73 1.73 0 0 1 .18-.09z" fill="url(#bm)" opacity=".71"/><path d="M141.04 286.21a6.32 6.32 0 0 0 3.6-2.04 5.73 5.73 0 0 0 1.28-2.61 13.48 13.48 0 0 1 6.26-1.3 16.95 16.95 0 0 1 3.67.37 4.43 4.43 0 0 0-2.81 3.63 5.88 5.88 0 0 0 1.8 5.03 4.46 4.46 0 0 1 1.43 2.26 4.4 4.4 0 0 0 4.08 3.67l.2.01 1.26.06a28.64 28.64 0 0 1 4.23.6q.76.09 1.49.21c6.45 1.08 11.15 3.92 12.91 6.84a5.88 5.88 0 0 0 4.65 2.84 5.54 5.54 0 0 0 1.94-.24 13.38 13.38 0 0 1 3.72-.5c.5-.05 1.01-.08 1.53-.1a13.88 13.88 0 0 1 6.07 1.07 5.92 5.92 0 0 0 2.55.61 5.7 5.7 0 0 0 3.49-1.13 13.58 13.58 0 0 1 1.97-1.2 21.43 21.43 0 0 1 6.42-2.6 5.76 5.76 0 0 0 3.82-3.03 5.1 5.1 0 0 0 .19-1.3 5.84 5.84 0 0 0-3.17-5.18 9.54 9.54 0 0 1-3.5-2.85 3.09 3.09 0 0 1-.64-1.78 3.35 3.35 0 0 1 .9-2 6.04 6.04 0 0 0 .94-1.57 5.12 5.12 0 0 0-.34-3.4 6.07 6.07 0 0 0-4.18-3.32 10.24 10.24 0 0 1-1.15-.31 11.8 11.8 0 0 1 3.65-.73 15.72 15.72 0 0 1 5.29.58 7 7 0 0 1 1.54.66 7.17 7.17 0 0 0 5.25 3.55c.1 0 .2.02.29.03l1.15-.05h.35c7.4.02 12.62 3.26 13.49 6.02l.06.23a2.29 2.29 0 0 1 .14.38v.2a5.22 5.22 0 0 0 1.7 3.59 6.09 6.09 0 0 0 3.76 1.52h.72c7.73.18 12.86 3.94 12.86 6.6 0 1.71-.45 4.25-5.44 5.76l-.2.1a6.36 6.36 0 0 1-.59.27 7.99 7.99 0 0 0-4.56 4.55c-.17.09-.37.18-.61.28a13.67 13.67 0 0 1-5.46 1.24l-.63.01a6.23 6.23 0 0 0-3.81 1.71 18.95 18.95 0 0 1-11.12 5.32c-.43.06-.87.1-1.32.15a25.2 25.2 0 0 1-2.81.26h-1.04a5.66 5.66 0 0 0-.16 0 5.97 5.97 0 0 0-3.63 1.42 8.56 8.56 0 0 1-3.63 1.27 17.47 17.47 0 0 1-2.95.21 17.79 17.79 0 0 1-1.44-.07c-.54-.02-1.08-.05-1.6-.12a5.54 5.54 0 0 0-.94-.04 5.72 5.72 0 0 0-3.16 1.12 18.68 18.68 0 0 1-10.05 3.06q-.52.02-1.06.02c-6.26-.02-10.85-2.33-12.54-4.56a5.8 5.8 0 0 0-4.2-2.31 5.22 5.22 0 0 0-.73 0 17.88 17.88 0 0 1-2.53.18h-.52a11.68 11.68 0 0 1-6.11-1.53 6.25 6.25 0 0 0-3.07-1.28c-8.88-.55-15.16-4.37-16.85-8a5.9 5.9 0 0 0-3.8-3.24l-.56-.16a11.18 11.18 0 0 1-1.78-.55 5.23 5.23 0 0 0-.06-2.66 6.43 6.43 0 0 0-3.04-3.72 6.68 6.68 0 0 1-1.1-.8c-2.28-1.21-3.77-2.8-3.87-4.22a3.07 3.07 0 0 1 .45-1.68c1.3-2.37 5.48-4.85 11.45-5.26l.21-.05z" fill="url(#bl)" opacity=".75"/><path d="M189.78 325.58c-6.42 0-11.03-2.43-12.6-4.69a5.22 5.22 0 0 0-5.02-2.18 17.44 17.44 0 0 1-2.52.18c-3.46 0-5.82-.94-6.56-1.58a5.21 5.21 0 0 0-3.06-1.23c-9.03-.56-15.26-4.52-16.75-8.14a5.2 5.2 0 0 0-3.86-3.14 11.36 11.36 0 0 1-2.37-.7 5.21 5.21 0 0 0-2.86-6.53c-2.89-1.23-4.83-3.1-4.83-4.64 0-2.3 4.46-5.77 11.72-6.2a5.2 5.2 0 0 0 4.88-4.67 12.81 12.81 0 0 1 6.23-1.33 16.5 16.5 0 0 1 3.68.39 5.2 5.2 0 0 0-1.9 8.98 5.03 5.03 0 0 1 1.68 2.25 5.21 5.21 0 0 0 5.01 3.78h.2c.43-.02.86-.03 1.3-.03 9.62 0 16.67 3.9 18.66 7.75a5.2 5.2 0 0 0 6.61 2.42 14.62 14.62 0 0 1 5.4-.93 13.3 13.3 0 0 1 6.08 1.26 5.21 5.21 0 0 0 6-.66 19.01 19.01 0 0 1 8.42-3.93 5.21 5.21 0 0 0 1.05-9.82c-2.7-1.25-4.44-3-4.44-4.47a3.18 3.18 0 0 1 .9-2 5.2 5.2 0 0 0-3.23-8.55c-.45-.06-.87-.14-1.25-.22a16.46 16.46 0 0 1 3.67-.4c3.56 0 5.8 1 6.47 1.5a5.21 5.21 0 0 0 4.9 3.47h.3c.48-.04.95-.05 1.44-.05 7.78 0 13 3.61 13.19 6.1l-.02.22a5.21 5.21 0 0 0 5.2 5.5l.73-.02c7.93 0 13.2 3.77 13.2 6.26 0 1.3 0 4.02-5.86 5.52a5.21 5.21 0 0 0-3.9 4.57 12.85 12.85 0 0 1-6.22 1.32l-.64-.01a5.21 5.21 0 0 0-3.85 1.7c-2.47 2.71-7.14 5.95-15.3 5.95l-.48-.02-.58-.03a4.75 4.75 0 0 0-.17 0 5.2 5.2 0 0 0-3.63 1.48c-.54.52-2.87 1.61-6.6 1.61a17.1 17.1 0 0 1-3.11-.28 5.2 5.2 0 0 0-4.15 1.02c-2.6 2.01-6.76 3.22-11.16 3.22z" fill="url(#bk)" opacity=".8"/><path d="M233.2 291.36c-8.33 0-15.37 3.45-17.63 8.18q-.77.28-1.49.61a36.1 36.1 0 0 0-26.37.16 21.61 21.61 0 0 0-2.12-.87c-.22-6.21-8.36-11.2-18.38-11.2-10.17 0-18.41 5.13-18.41 11.46 0 4.3 3.8 8.03 9.4 9.99.23 6.2 8.36 11.2 18.38 11.2a29.08 29.08 0 0 0 4.46-.35c4.23 4.1 11.62 6.82 20.03 6.82 8.35 0 15.7-2.68 19.94-6.73a29.26 29.26 0 0 0 3.85.26c8.34 0 15.37-3.45 17.64-8.18 5.44-2 9.1-5.67 9.1-9.88 0-6.33-8.23-11.47-18.4-11.47z" fill="url(#bj)" opacity=".3"/><path d="M149.22 299.63c0-3.85 3.45-7.4 8.69-9.25a26.05 26.05 0 0 1 10.29-1.43 21.17 21.17 0 0 1 2.77.38 50.6 50.6 0 0 1 5.1 1.37q.74.23 1.44.5a52.02 52.02 0 0 1 3.48 1.53c3.28 1.67 5.49 4.16 5.96 6.95a22.4 22.4 0 0 1 2.14.8 32.78 32.78 0 0 1 8.75-1.9 114.78 114.78 0 0 1 5.77-.29c1.36 0 2.68 0 3.91.07a31.86 31.86 0 0 1 7.67 1.47q.72-.31 1.5-.58a10.54 10.54 0 0 1 3.19-3.4c3.72-2.56 9.06-3.67 14.47-3.52 9.24.28 16.52 5.01 16.22 10.88a9.22 9.22 0 0 1-3.24 6.16 17.02 17.02 0 0 1-5.53 3.3c-2.28 4.43-9 7.67-16.98 7.67a28.61 28.61 0 0 1-3.19-.18l-.67-.07a33.04 33.04 0 0 1-3.18 2.31c-4.22 2.73-10.19 4.42-16.76 4.42-6.6 0-12.6-1.71-16.83-4.47a32.59 32.59 0 0 1-3.2-2.36l-.78.1a28.13 28.13 0 0 1-3.67.25c-6.67 0-12.38-2.23-15.32-5.4a10.64 10.64 0 0 1-2.91-5.77c-5.42-1.9-9.09-5.48-9.09-9.54z" fill="url(#bi)" opacity=".35"/><path d="M149.65 299.56c0-3.72 3.63-7.3 9.14-8.96a25.19 25.19 0 0 1 10.4-.93 15.02 15.02 0 0 1 2.67.61c1.55.5 3.23 1.17 4.94 1.7.5.17.98.34 1.46.53.64.26 1.28.5 1.9.74.57.22 1.13.42 1.65.64 3.3 1.33 5.67 3.53 6.5 6.04.75.21 1.46.46 2.15.73a32.7 32.7 0 0 1 8.76-1.52 96.27 96.27 0 0 0 4.51-.24c.4-.03.8-.06 1.2-.07 1.36-.05 2.64-.26 3.81-.2a40.98 40.98 0 0 1 7.56.89q.72-.31 1.5-.57a10.4 10.4 0 0 1 3.36-3.11c4.1-2.38 9.47-2.85 14.34-2.53 8.31.54 14.64 4.88 14.03 10.28a9.87 9.87 0 0 1-3.2 5.81 16 16 0 0 1-5.24 3.22c-2.27 4.14-8.7 7.18-16.32 7.18a28.07 28.07 0 0 1-3.18-.18l-.68-.08c-.98.71-2.08 1.46-3.22 2.23-4.14 2.78-10.14 4.5-16.71 4.5-6.63 0-12.65-1.74-16.8-4.55a119.9 119.9 0 0 1-3.24-2.27l-.78.1a27.66 27.66 0 0 1-3.67.25c-6.79 0-12.48-2.35-15.1-5.48a14 14 0 0 1-2.97-5.67c-5.22-1.83-8.77-5.26-8.77-9.1z" fill="url(#bh)" opacity=".41"/><path d="M150.08 299.49c0-3.58 3.8-7.2 9.58-8.66a24.3 24.3 0 0 1 10.53-.45 10.95 10.95 0 0 1 2.56.85 38.73 38.73 0 0 0 4.77 2.05c.5.16 1 .33 1.48.53.66.27 1.3.5 1.94.72.59.2 1.16.35 1.7.52a11.62 11.62 0 0 1 7.03 5.13c.75.19 1.47.41 2.17.66a32.51 32.51 0 0 1 8.75-1.14 33.53 33.53 0 0 0 4.47-.22l1.2-.12c1.34-.1 2.59-.33 3.7-.47a26.9 26.9 0 0 1 7.45.3q.73-.29 1.5-.54a10.49 10.49 0 0 1 3.53-2.82c4.51-2.2 9.86-2.03 14.22-1.55 7.36.8 12.75 4.76 11.83 9.7a10.91 10.91 0 0 1-3.17 5.45 14.99 14.99 0 0 1-4.93 3.14c-2.28 3.86-8.4 6.68-15.67 6.68a27.57 27.57 0 0 1-3.18-.18l-.67-.07a67.18 67.18 0 0 0-3.27 2.14c-4.06 2.83-10.08 4.6-16.67 4.6-6.63 0-12.69-1.79-16.75-4.66a68.71 68.71 0 0 0-3.29-2.18l-.78.1a27.17 27.17 0 0 1-3.67.25c-6.9 0-12.58-2.47-14.89-5.55a21.32 21.32 0 0 1-3.02-5.56c-5.03-1.77-8.45-5.05-8.45-8.65z" fill="url(#bg)" opacity=".46"/><path d="M150.5 299.42c0-3.45 4-7.09 10.04-8.36a23.4 23.4 0 0 1 10.64.04 8.36 8.36 0 0 1 2.46 1.08 19.14 19.14 0 0 0 4.61 2.38c.5.17 1 .35 1.5.56a17.76 17.76 0 0 0 1.97.68c.6.17 1.2.3 1.74.4a12.98 12.98 0 0 1 7.57 4.23c.75.16 1.48.36 2.18.58a32.24 32.24 0 0 1 8.76-.75 20 20 0 0 0 4.42-.2 26 26 0 0 1 1.19-.16 27.16 27.16 0 0 0 3.6-.74 23.6 23.6 0 0 1 7.34-.28q.73-.28 1.51-.52a10.83 10.83 0 0 1 3.69-2.53c4.93-2 10.25-1.22 14.09-.58 6.41 1.07 10.86 4.63 9.64 9.1a12.72 12.72 0 0 1-3.14 5.11 13.96 13.96 0 0 1-4.62 3.07c-2.29 3.56-8.1 6.18-15.02 6.18a27.09 27.09 0 0 1-3.17-.19l-.68-.07a26.34 26.34 0 0 0-3.3 2.06c-3.99 2.89-10.04 4.68-16.64 4.68-6.64 0-12.73-1.82-16.7-4.74a26.53 26.53 0 0 0-3.33-2.1q-.4.04-.78.1a26.71 26.71 0 0 1-3.67.26c-7.04 0-12.68-2.6-14.68-5.64a48.6 48.6 0 0 1-3.09-5.45c-4.83-1.7-8.13-4.83-8.13-8.2z" fill="url(#bf)" opacity=".52"/><path d="M150.93 299.34c0-3.3 4.17-6.96 10.49-8.05a22.52 22.52 0 0 1 10.75.52 6.7 6.7 0 0 1 2.36 1.33 12.58 12.58 0 0 0 4.45 2.71c.51.17 1.01.36 1.51.57a12.6 12.6 0 0 0 2.01.66 14.21 14.21 0 0 0 1.79.29 14.87 14.87 0 0 1 8.1 3.3c.76.15 1.49.32 2.2.52a31.88 31.88 0 0 1 8.75-.37 14.22 14.22 0 0 0 1.99.08 16.96 16.96 0 0 0 2.4-.26c.38-.08.77-.14 1.17-.2a16.59 16.59 0 0 0 3.5-1.02 20.43 20.43 0 0 1 7.23-.85q.73-.28 1.52-.51a11.43 11.43 0 0 1 3.85-2.24c5.35-1.77 10.62-.41 13.96.4 5.44 1.32 8.98 4.5 7.46 8.52a16.28 16.28 0 0 1-3.11 4.75 12.93 12.93 0 0 1-4.32 3c-2.3 3.26-7.8 5.67-14.36 5.67a26.6 26.6 0 0 1-3.18-.19l-.68-.06a16.34 16.34 0 0 0-3.35 1.96c-3.9 2.95-9.98 4.77-16.59 4.77-6.65 0-12.76-1.85-16.66-4.82a16.4 16.4 0 0 0-3.37-2 13.87 13.87 0 0 0-.78.08 26.3 26.3 0 0 1-3.67.26c-7.16 0-12.77-2.74-14.47-5.7-1.06-1.87-2.17-3.86-3.14-5.36-4.64-1.63-7.81-4.61-7.81-7.76z" fill="url(#be)" opacity=".57"/><path d="M151.36 299.27c0-3.17 4.35-6.85 10.94-7.75a21.67 21.67 0 0 1 10.87 1 5.64 5.64 0 0 1 2.25 1.57 9.42 9.42 0 0 0 4.29 3.05c.51.17 1.02.36 1.53.58a9.88 9.88 0 0 0 2.04.64 15.38 15.38 0 0 0 1.83.17 19.65 19.65 0 0 1 8.64 2.4c.76.11 1.5.26 2.2.43a31.44 31.44 0 0 1 8.77.03 11 11 0 0 0 1.98.12 12.69 12.69 0 0 0 2.35-.3l1.17-.24a11.7 11.7 0 0 0 3.41-1.28 17.66 17.66 0 0 1 7.11-1.44q.74-.27 1.53-.49a12.33 12.33 0 0 1 4-1.94c5.8-1.53 10.98.38 13.84 1.37 4.46 1.54 7.1 4.38 5.27 7.93a25.68 25.68 0 0 1-3.08 4.4 11.9 11.9 0 0 1-4.01 2.92c-2.3 2.98-7.5 5.18-13.71 5.18a26.14 26.14 0 0 1-3.17-.2l-.69-.06a11.87 11.87 0 0 0-3.38 1.88c-3.82 3-9.94 4.86-16.55 4.86-6.67 0-12.8-1.88-16.62-4.92a11.88 11.88 0 0 0-3.42-1.91c-.26.02-.52.04-.78.08a25.86 25.86 0 0 1-3.67.27c-7.28 0-12.85-2.9-14.25-5.8a27.1 27.1 0 0 0-3.2-5.24c-4.44-1.56-7.5-4.4-7.5-7.3z" fill="url(#bd)" opacity=".63"/><path d="M151.78 299.2c0-3.03 4.54-6.73 11.4-7.45a20.86 20.86 0 0 1 10.98 1.49 4.97 4.97 0 0 1 2.15 1.8 7.65 7.65 0 0 0 4.13 3.38c.51.18 1.02.38 1.54.6a7.94 7.94 0 0 0 3.95.67 19.93 19.93 0 0 1 9.18 1.48q1.14.14 2.22.37a30.93 30.93 0 0 1 8.76.4 8.96 8.96 0 0 0 1.98.18 10.04 10.04 0 0 0 2.31-.32l1.17-.29a9 9 0 0 0 3.3-1.56 15.4 15.4 0 0 1 7-2.02q.74-.25 1.53-.47a13.56 13.56 0 0 1 4.18-1.65c6.22-1.26 11.3 1.16 13.7 2.35 3.46 1.7 5.21 4.26 3.08 7.34a95.67 95.67 0 0 1-3.04 4.05 10.81 10.81 0 0 1-3.71 2.85c-2.31 2.68-7.2 4.67-13.06 4.67a25.71 25.71 0 0 1-3.17-.2q-.34-.04-.68-.05a9.34 9.34 0 0 0-3.43 1.79c-3.74 3.05-9.89 4.94-16.51 4.94-6.67 0-12.85-1.91-16.58-5a9.34 9.34 0 0 0-3.46-1.83 8.94 8.94 0 0 0-.78.08 25.46 25.46 0 0 1-3.67.27c-7.4 0-12.92-3.04-14.03-5.86a14.81 14.81 0 0 0-3.26-5.15c-4.25-1.49-7.18-4.17-7.18-6.86z" fill="url(#bc)" opacity=".68"/><path d="M152.2 299.13c0-2.9 4.73-6.62 11.85-7.15a20.1 20.1 0 0 1 11.1 1.97 4.56 4.56 0 0 1 2.05 2.04 6.58 6.58 0 0 0 3.96 3.72c.53.18 1.04.38 1.57.62a7.09 7.09 0 0 0 2.12.58 6.92 6.92 0 0 0 1.9-.06 22.69 22.69 0 0 1 9.72.57q1.14.1 2.24.3a30.36 30.36 0 0 1 8.76.79 7.57 7.57 0 0 0 1.97.23 8.25 8.25 0 0 0 2.27-.36c.38-.12.77-.23 1.16-.33a7.36 7.36 0 0 0 3.2-1.83c1.27-1.18 3.78-2.14 6.9-2.6q.73-.25 1.53-.45a15.22 15.22 0 0 1 4.34-1.36c6.66-.98 11.96 1.51 13.58 3.32 2.77 1.25 3.32 4.14.88 6.75a38.25 38.25 0 0 0-3 3.7 9.78 9.78 0 0 1-3.41 2.77c-2.32 2.4-6.9 4.18-12.4 4.18a25.28 25.28 0 0 1-3.18-.2l-.68-.06a7.73 7.73 0 0 0-3.47 1.7c-3.66 3.11-9.84 5.04-16.47 5.04-6.68 0-12.88-1.95-16.53-5.1a7.72 7.72 0 0 0-3.5-1.73 7.58 7.58 0 0 0-.8.07 25.08 25.08 0 0 1-3.65.28c-7.54 0-12.98-3.2-13.83-5.95a10.11 10.11 0 0 0-3.3-5.03c-4.07-1.43-6.87-3.96-6.87-6.42z" fill="url(#bb)" opacity=".74"/><path d="M152.63 299.06c0-2.76 4.9-6.5 12.3-6.85 4.82-.23 8.82.89 11.22 2.46a4.32 4.32 0 0 1 1.94 2.27 5.9 5.9 0 0 0 3.8 4.06c.53.18 1.05.39 1.58.63a6.25 6.25 0 0 0 2.16.56 6.08 6.08 0 0 0 1.95-.18 25.26 25.26 0 0 1 10.25-.34q1.14.07 2.25.22a29.75 29.75 0 0 1 8.76 1.18 6.56 6.56 0 0 0 1.97.28 6.94 6.94 0 0 0 2.23-.4l1.15-.37a6.32 6.32 0 0 0 3.1-2.1c1.1-1.32 3.57-2.54 6.79-3.18q.74-.24 1.54-.43a17.36 17.36 0 0 1 4.5-1.07c7.09-.67 12.37 2.27 13.45 4.3 1.85 1.4 1.44 4.01-1.3 6.17a13.88 13.88 0 0 0-2.98 3.34 8.78 8.78 0 0 1-3.1 2.7c-2.32 2.1-6.6 3.67-11.75 3.67a24.88 24.88 0 0 1-3.17-.2 4.61 4.61 0 0 0-4.2 1.57c-3.58 3.15-9.78 5.11-16.42 5.11-6.7 0-12.93-1.98-16.5-5.18a4.61 4.61 0 0 0-4.33-1.58 24.7 24.7 0 0 1-3.66.28c-7.66 0-13.03-3.35-13.61-6.02a7.66 7.66 0 0 0-3.37-4.93c-3.87-1.36-6.55-3.74-6.55-5.97z" fill="url(#ba)" opacity=".79"/><path d="M153.06 298.99c0-2.63 5.08-6.37 12.75-6.55 5.03-.11 9.06 1.25 11.33 2.94a4.2 4.2 0 0 1 1.84 2.51 5.48 5.48 0 0 0 3.64 4.4 16.8 16.8 0 0 1 1.6.64 5.66 5.66 0 0 0 2.2.53 5.56 5.56 0 0 0 1.98-.3 27.46 27.46 0 0 1 10.8-1.24q1.14.03 2.25.15a29.14 29.14 0 0 1 8.77 1.56 5.8 5.8 0 0 0 1.97.33 5.97 5.97 0 0 0 2.19-.42q.55-.23 1.13-.42a5.64 5.64 0 0 0 3.01-2.37c.93-1.48 3.36-2.95 6.67-3.77q.74-.23 1.54-.4a20.12 20.12 0 0 1 4.67-.78c7.51-.34 12.45 3.12 13.32 5.27.68 1.68-.45 3.9-3.5 5.58a7.87 7.87 0 0 0-2.94 3 7.77 7.77 0 0 1-2.8 2.62c-2.32 1.8-6.29 3.17-11.09 3.17a24.47 24.47 0 0 1-3.17-.2 4.9 4.9 0 0 0-4.24 1.47c-3.5 3.21-9.73 5.2-16.38 5.2-6.7 0-12.97-2.01-16.45-5.26a4.9 4.9 0 0 0-4.38-1.5 24.35 24.35 0 0 1-3.66.29c-7.78 0-13.06-3.51-13.4-6.1a6.18 6.18 0 0 0-3.42-4.83c-3.67-1.29-6.23-3.52-6.23-5.52z" fill="url(#aa)" opacity=".85"/><path d="M200.55 321.37c-6.72 0-13-2.05-16.4-5.35a5.21 5.21 0 0 0-4.43-1.41 24 24 0 0 1-3.66.29c-7.9 0-13.09-3.66-13.18-6.18a5.21 5.21 0 0 0-3.48-4.73c-3.48-1.22-5.91-3.3-5.91-5.07 0-2.49 5.26-6.25 13.2-6.25 7.9 0 13.08 3.66 13.18 6.18a5.21 5.21 0 0 0 3.48 4.72 16.59 16.59 0 0 1 1.61.67 5.2 5.2 0 0 0 4.27.09 30.91 30.91 0 0 1 22.36-.14 5.21 5.21 0 0 0 4.12-.07q.54-.25 1.12-.46a5.2 5.2 0 0 0 2.91-2.65c1.22-2.53 6.16-5.22 12.94-5.22 7.93 0 13.2 3.77 13.2 6.25 0 1.72-2.34 3.77-5.7 5a5.21 5.21 0 0 0-2.9 2.63c-1.22 2.53-6.16 5.23-12.94 5.23a24.1 24.1 0 0 1-3.16-.22 5.2 5.2 0 0 0-4.29 1.4c-3.42 3.27-9.68 5.3-16.34 5.3z" fill="url(#ab)" opacity=".9"/><path d="M238.22 285.09a4.45 4.45 0 0 0 .56-2.12c0-3.7-4.8-6.69-10.74-6.69l-.55.02a5.46 5.46 0 0 0 .18-1.3c0-4.73-6.16-8.57-13.75-8.57a20.86 20.86 0 0 0-5.76.8 14.65 14.65 0 0 0-7.47-1.89c-3.93 0-7.36 1.32-9.23 3.28a19.65 19.65 0 0 0-8.92-2c-5.45 0-10.16 1.95-12.46 4.79a15.64 15.64 0 0 0-5.95-1.12c-5.93 0-10.73 3-10.73 6.69a4.36 4.36 0 0 0 .35 1.67 21.14 21.14 0 0 0-7-1.15c-7.85 0-14.22 3.96-14.22 8.85a6.48 6.48 0 0 0 1.86 4.38c-2.83 1.77-4.58 4.22-4.58 6.91 0 5.01 6.03 9.14 13.82 9.74.08 5.04 6.66 9.1 14.77 9.1 5.49 0 10.26-1.86 12.81-4.62 3.29 3.34 9.18 5.57 15.92 5.57 5.83 0 11.02-1.66 14.45-4.26a26.43 26.43 0 0 0 11.6 2.53c9.82 0 17.85-4.72 18.6-10.7h.15c9.17 0 16.6-4.63 16.6-10.34 0-4.33-4.26-8.03-10.31-9.57zm-39.48 11.6a26.43 26.43 0 0 0-11.6-2.52c-7.84 0-14.54 3-17.32 7.27a17.9 17.9 0 0 0-8.52-3.18c.03-.2.05-.41.05-.62a7.8 7.8 0 0 0-3.25-5.96 7 7 0 0 0 2.88-5.33 6.02 6.02 0 0 0-.98-3.2 16.5 16.5 0 0 0 4.13.51 14.03 14.03 0 0 0 8.23-2.39 18.68 18.68 0 0 0 10.18 2.76c6.23 0 11.5-2.54 13.3-6.04a16.14 16.14 0 0 0 4.85.72c.28 0 .56 0 .84-.02 2.21 2.87 6.92 4.87 12.39 4.87a21.67 21.67 0 0 0 3.4-.28 5.73 5.73 0 0 0 2.74 4.15 10.13 10.13 0 0 0-4.39 5.12c-.81-.06-1.64-.11-2.49-.11-5.82 0-11.02 1.66-14.44 4.26z" fill="url(#ac)" opacity=".3"/><path d="M186.07 314.15c-5.63 0-10.88-1.77-13.7-4.63a3.12 3.12 0 0 0-2.22-.94h-.05a3.13 3.13 0 0 0-2.25 1c-2.03 2.2-6.16 3.63-10.51 3.63-6.8 0-11.6-3.18-11.65-6.04a3.13 3.13 0 0 0-2.89-3.06c-6.75-.52-10.92-3.84-10.92-6.62 0-1.47 1.13-3.02 3.1-4.27a3.13 3.13 0 0 0 .65-4.75 3.4 3.4 0 0 1-1.04-2.27c0-2.7 4.75-5.73 11.1-5.73a18.13 18.13 0 0 1 5.95.97 3.13 3.13 0 0 0 3.93-4.14 1.29 1.29 0 0 1-.11-.48c0-1.41 3.03-3.55 7.6-3.55a12.5 12.5 0 0 1 4.75.87 3.12 3.12 0 0 0 3.63-.91c1.79-2.2 5.73-3.63 10.04-3.63a16.63 16.63 0 0 1 7.48 1.65 3.13 3.13 0 0 0 3.7-.62c1.01-1.07 3.45-2.31 6.97-2.31a11.67 11.67 0 0 1 5.85 1.43 3.13 3.13 0 0 0 2.48.33 17.65 17.65 0 0 1 4.9-.67c6.07 0 10.62 2.87 10.62 5.43a2.46 2.46 0 0 1-.1.56 3.13 3.13 0 0 0 3.05 3.87l.55-.01c4.57 0 7.61 2.14 7.61 3.56a1.37 1.37 0 0 1-.19.64 3.13 3.13 0 0 0 1.98 4.5c4.7 1.2 7.97 3.89 7.97 6.54 0 3.42-5.54 7.22-13.48 7.22h-.15a3.13 3.13 0 0 0-3.1 2.73c-.48 3.83-6.55 7.97-15.5 7.97a23.5 23.5 0 0 1-10.22-2.2 3.13 3.13 0 0 0-3.27.31c-3.04 2.3-7.61 3.62-12.56 3.62zm-27.13-34.28a3.13 3.13 0 0 0-2.65 4.78 2.9 2.9 0 0 1 .5 1.55 4.13 4.13 0 0 1-1.75 2.92 3.13 3.13 0 0 0 .02 4.84 4.94 4.94 0 0 1 2.1 3.53l-.03.3a3.13 3.13 0 0 0 2.73 3.42 14.82 14.82 0 0 1 7.02 2.57 3.13 3.13 0 0 0 4.5-.79c1.9-2.9 7.17-5.85 14.69-5.85a23.51 23.51 0 0 1 10.22 2.2 3.12 3.12 0 0 0 3.27-.3c3.04-2.3 7.61-3.63 12.56-3.63a27.01 27.01 0 0 1 2.49.12 3.13 3.13 0 0 0 2.96-2.14 7.18 7.18 0 0 1 3.1-3.47 3.13 3.13 0 0 0 .1-5.21 2.84 2.84 0 0 1-1.39-1.81 3.13 3.13 0 0 0-3.11-2.9 3.2 3.2 0 0 0-.5.04 18.66 18.66 0 0 1-2.92.24c-4.9 0-8.51-1.84-9.9-3.65a3.13 3.13 0 0 0-2.49-1.22h-.14c-.23.01-.46.03-.7.03a12.95 12.95 0 0 1-3.9-.58 3.13 3.13 0 0 0-3.71 1.54c-1.12 2.17-5.1 4.35-10.53 4.35a15.69 15.69 0 0 1-8.46-2.23 3.12 3.12 0 0 0-3.59.09 11.08 11.08 0 0 1-6.36 1.78 13.34 13.34 0 0 1-3.35-.42 3.1 3.1 0 0 0-.78-.1z" fill="url(#ad)" opacity=".4"/><path d="M185.82 310.13c-5.02 0-9.8-1.57-12.2-4.01a5.2 5.2 0 0 0-3.72-1.56h-.08a5.2 5.2 0 0 0-3.75 1.68c-1.35 1.46-4.66 2.95-8.98 2.95-6.17 0-9.55-2.83-9.57-3.99a5.21 5.21 0 0 0-4.8-5.1c-5.83-.45-9.01-3.24-9.01-4.55 0-.7.84-1.68 2.14-2.5a5.2 5.2 0 0 0 1.07-7.93 1.61 1.61 0 0 1-.5-.85c0-.94 3.1-3.65 9.02-3.65a16.03 16.03 0 0 1 5.26.85 5.22 5.22 0 0 0 2.81.19 5.2 5.2 0 0 0 .76 2.16 1.04 1.04 0 0 1 .18.45c0 .24-.3.75-.98 1.3a5.21 5.21 0 0 0 .03 8.07 3.27 3.27 0 0 1 1.33 1.83l-.02.18a5.21 5.21 0 0 0 4.54 5.69 12.94 12.94 0 0 1 6.02 2.16 5.2 5.2 0 0 0 7.5-1.3c1.54-2.37 6.25-4.9 12.95-4.9a21.39 21.39 0 0 1 9.3 1.98 5.21 5.21 0 0 0 5.45-.52c2.64-2 6.87-3.2 11.3-3.2a24.44 24.44 0 0 1 2.49.11 5.2 5.2 0 0 0 4.94-3.56 5.28 5.28 0 0 1 2.25-2.37 5.21 5.21 0 0 0 .16-8.68 2.56 2.56 0 0 1-.52-.46 5.21 5.21 0 0 0-6-4.56 16.38 16.38 0 0 1-2.59.22c-4.17 0-7.2-1.47-8.26-2.84a5.2 5.2 0 0 0-4.13-2.03h-.26l-.57.02a11.06 11.06 0 0 1-3.28-.48 5.2 5.2 0 0 0-3.19.02 5.18 5.18 0 0 0 1-.82 8.14 8.14 0 0 1 5.47-1.67 9.57 9.57 0 0 1 4.77 1.14 5.2 5.2 0 0 0 4.14.55 15.63 15.63 0 0 1 4.31-.6c5.51 0 8.54 2.52 8.54 3.36v-.01a.62.62 0 0 0-.02.07 5.21 5.21 0 0 0 5.06 6.45l.55-.02a8.48 8.48 0 0 1 5.38 1.57 5.21 5.21 0 0 0 3.5 7.08c3.96 1 6.4 3.13 6.4 4.52 0 1.8-4.3 5.1-11.32 5.13h-.22a5.21 5.21 0 0 0-5.17 4.55c-.32 2.57-5.59 6.15-13.43 6.15a21.37 21.37 0 0 1-9.3-1.99 5.21 5.21 0 0 0-5.46.52c-2.63 2-6.86 3.2-11.3 3.2zm-4.59-33.4a13.58 13.58 0 0 1-7.3-1.89 5.2 5.2 0 0 0-2.83-.87 5.2 5.2 0 0 0 1.7-1.36c1.12-1.38 4.24-2.86 8.43-2.86a14.52 14.52 0 0 1 6.52 1.41 5.21 5.21 0 0 0 4.02.33 5.2 5.2 0 0 0-1.87 2.02c-.66 1.3-3.89 3.22-8.67 3.22zm-18.41-.37a11.2 11.2 0 0 1-2.82-.34 5.23 5.23 0 0 0-2.4-.06 5.2 5.2 0 0 0-.2-.95 8.39 8.39 0 0 1 5.42-1.6 10.31 10.31 0 0 1 3.95.72 5.19 5.19 0 0 0 1.93.4 5.2 5.2 0 0 0-.76.47 8.98 8.98 0 0 1-5.12 1.36z" fill="url(#ae)" opacity=".5"/><path d="M185.82 307c-4.1 0-8.2-1.26-9.98-3.07a6.75 6.75 0 0 0-.21-.21c.96-1.19 4.4-3.3 10.19-3.3a18.21 18.21 0 0 1 7.9 1.66 8.34 8.34 0 0 0 8.74-.83c2.09-1.58 5.7-2.57 9.4-2.57.53 0 1.1.03 1.8.09l.7.03a8.32 8.32 0 0 0 7.87-5.6 4 4 0 0 1 1-.83 8.35 8.35 0 0 0 3.37-9.84h.23a7.66 7.66 0 0 1 1.75.2 8.33 8.33 0 0 0 6.27 8.35 10.65 10.65 0 0 1 3.44 1.49 13.56 13.56 0 0 1-7.55 2 8 8 0 0 0-.27 0 8.35 8.35 0 0 0-8.25 7.18c-.52 1.04-4.2 3.52-10.35 3.52a18.2 18.2 0 0 1-7.9-1.66 8.34 8.34 0 0 0-8.75.83c-2.08 1.58-5.68 2.57-9.4 2.57zm-28.73-.94c-3.67 0-5.78-1.17-6.5-1.75a8.3 8.3 0 0 0-7.63-7.33 12.32 12.32 0 0 1-5.2-1.44 8.34 8.34 0 0 0 2.68-10.82 11.75 11.75 0 0 1 5-.98 12.88 12.88 0 0 1 4.22.68l.47.15a8.34 8.34 0 0 0 1.4 11.5l.13.1a8.28 8.28 0 0 0 7.3 8.27 12.52 12.52 0 0 1 3.02.75 13.27 13.27 0 0 1-4.9.87zm24.14-32.45a13.32 13.32 0 0 1-3.15-.37 13.04 13.04 0 0 1 3.15-.37 13.35 13.35 0 0 1 3.14.37 13.02 13.02 0 0 1-3.14.37zm31.37-.48a13.22 13.22 0 0 1-2.45-.22 12.94 12.94 0 0 1 2.45-.23 13.22 13.22 0 0 1 2.49.22 8.14 8.14 0 0 0-.4.06 13.26 13.26 0 0 1-2.09.17z" fill="url(#af)" opacity=".7"/><circle cx="270.78" cy="46.28" r="5" fill="url(#ag)" style="mix-blend-mode:screen"/><circle cx="228.64" cy="58.07" r="10" fill="url(#ah)" style="mix-blend-mode:screen"/><circle cx="285.8" cy="95.73" r="9.43" fill="url(#ai)" style="mix-blend-mode:screen"/><circle cx="252.64" cy="137.4" r="6" fill="url(#aj)" style="mix-blend-mode:screen"/><circle cx="138.78" cy="34.95" r="5" fill="url(#ak)" style="mix-blend-mode:screen"/><circle cx="207.3" cy="16.4" r="3.5" fill="url(#al)" style="mix-blend-mode:screen"/><circle cx="268.8" cy="177.23" r="3.5" fill="url(#am)" style="mix-blend-mode:screen"/><circle cx="121.44" cy="100.95" r="10" fill="url(#an)" style="mix-blend-mode:screen"/><circle cx="106.78" cy="159.61" r="6" fill="url(#ao)" style="mix-blend-mode:screen"/><circle cx="81.3" cy="81.73" r="5" fill="url(#ap)" style="mix-blend-mode:screen"/><path d="m217.38 183.96 21.96 11.7v-14.8a11.5 11.5 0 0 0-1.16-5.35l-9.48-18.05c-2.04-3.88-6.46-4.57-11.32-1.77z" fill="url(#aq)"/><path d="m167.71 183.96-21.96 11.7v-14.8a11.5 11.5 0 0 1 1.15-5.35l9.49-18.05c2.04-3.88 6.46-4.57 11.32-1.77z" fill="url(#ar)"/><path d="m204.22 234.02c0 12.43-5.23 44.96-11.68 44.96-6.44 0-11.67-32.53-11.67-44.96 0-10.94 5.23-13.58 11.67-13.58 6.45 0 11.68 2.64 11.68 13.58z" fill="url(#as)" style="mix-blend-mode:screen"/><path d="m203.6 233.87c0 12.13-4.95 44.35-11.06 44.35-6.1 0-11.05-32.22-11.05-44.35 0-10.68 4.95-13.25 11.05-13.25s11.05 2.57 11.05 13.25z" fill="url(#at)" style="mix-blend-mode:screen"/><path d="m202.97 233.72c0 11.84-4.67 43.75-10.43 43.75-5.75 0-10.42-31.91-10.42-43.75 0-10.42 4.66-12.93 10.42-12.93s10.43 2.5 10.43 12.93z" fill="url(#au)" style="mix-blend-mode:screen"/><path d="m202.35 233.57c0 11.54-4.4 43.14-9.8 43.14-5.42 0-9.81-31.6-9.81-43.14 0-10.16 4.39-12.61 9.8-12.61 5.42 0 9.8 2.45 9.8 12.6z" fill="url(#av)" style="mix-blend-mode:screen"/><path d="m201.72 233.42c0 11.24-4.1 42.53-9.18 42.53-5.07 0-9.18-31.29-9.18-42.53 0-9.9 4.11-12.29 9.18-12.29s9.18 2.39 9.18 12.29z" fill="url(#aw)" style="mix-blend-mode:screen"/><path d="m201.1 233.27c0 10.95-3.83 41.92-8.56 41.92-4.72 0-8.55-30.97-8.55-41.92 0-9.64 3.83-11.97 8.55-11.97 4.73 0 8.56 2.33 8.56 11.97z" fill="url(#ax)" style="mix-blend-mode:screen"/><path d="m200.48 233.11c0 10.66-3.56 41.33-7.94 41.33s-7.93-30.67-7.93-41.33c0-9.38 3.55-11.64 7.93-11.64 4.39 0 7.94 2.26 7.94 11.64z" fill="url(#ay)" style="mix-blend-mode:screen"/><path d="m199.85 232.96c0 10.36-3.27 40.72-7.3 40.72-4.04 0-7.32-30.36-7.32-40.72 0-9.12 3.28-11.31 7.31-11.31 4.04 0 7.31 2.2 7.31 11.31z" fill="url(#az)" style="mix-blend-mode:screen"/><path d="m199.23 232.81c0 10.07-3 40.11-6.69 40.11s-6.68-30.04-6.68-40.1c0-8.87 2.99-11 6.68-11 3.7 0 6.7 2.13 6.7 11z" fill="url(#aA)" style="mix-blend-mode:screen"/><path d="m198.6 232.66c0 9.77-2.7 39.5-6.06 39.5-3.35 0-6.06-29.73-6.06-39.5 0-8.6 2.71-10.67 6.06-10.67s6.07 2.07 6.07 10.67z" fill="url(#aB)" style="mix-blend-mode:screen"/><path d="m197.98 232.51c0 9.47-2.43 38.9-5.44 38.9-3 0-5.44-29.43-5.44-38.9 0-8.34 2.44-10.35 5.44-10.35s5.44 2.01 5.44 10.35z" fill="url(#aC)" style="mix-blend-mode:screen"/><path d="m197.36 232.36c0 9.18-2.16 38.29-4.82 38.29s-4.81-29.11-4.81-38.3c0-8.07 2.15-10.02 4.81-10.02s4.82 1.95 4.82 10.03z" fill="url(#aD)" style="mix-blend-mode:screen"/><path d="M203 216.67h-20.91v3.03c0 3.37 4.68 6.1 10.45 6.1 5.78 0 10.46-2.73 10.46-6.1v-.08z" fill="url(#aE)"/><path d="M217.52 190.51h-49.95v15.04c0 8.04 11.18 14.55 24.97 14.55 13.8 0 24.98-6.51 24.98-14.55v-.2z" fill="url(#aF)"/><path d="M217.52 191.03h-49.95v12c0 6.4 11.18 11.6 24.97 11.6 13.8 0 24.98-5.2 24.98-11.6v-.16z" fill="#c7bcd6" opacity=".5" style="mix-blend-mode:multiply"/><path d="M231.6 141.38a87.71 87.71 0 0 0-14.48-60.25q-.77-1.1-1.56-2.19l-23.02-31.53-23.01 31.53q-.8 1.09-1.56 2.2a87.71 87.71 0 0 0-14.48 60.24l5.88 49.17h.01l-.01.26c0 10.67 14.85 19.32 33.17 19.32s33.18-8.65 33.18-19.32l-.02-.26h.02z" fill="url(#aG)"/><path d="m215.56 78.94-23.02-31.53-23.01 31.53-.38.53c3.98 5.22 12.95 8.87 23.4 8.87 10.43 0 19.4-3.65 23.39-8.87l-.38-.53z" fill="url(#aH)"/><path d="m215.56 78.94-23.02-31.53-23.01 31.53-.38.53c3.98 5.22 12.95 8.87 23.4 8.87 10.43 0 19.4-3.65 23.39-8.87l-.38-.53z" fill="url(#aI)" opacity=".3"/><path d="M231.6 141.38a87.71 87.71 0 0 0-14.48-60.25q-.77-1.1-1.56-2.19l-23.02-31.53-23.01 31.53q-.8 1.09-1.56 2.2a87.71 87.71 0 0 0-14.48 60.24l5.88 49.17h.01l-.01.26c0 10.67 14.85 19.32 33.17 19.32s33.18-8.65 33.18-19.32l-.02-.26h.02z" fill="url(#aJ)" opacity=".5" style="mix-blend-mode:multiply"/><path d="M208.13 114.06c-6.6-26.5-20.26-57.01-17.01-58.49 5.71-2.6 29.6 27.13 36.19 53.63 5.8 23.33-.75 81.41-6.78 82.91-6.04 1.5-6.6-54.72-12.4-78.05z" fill="url(#aK)" opacity=".7" style="mix-blend-mode:color-dodge"/><path d="M187.52 154.44c0 4.59-1.58 7.84-4.16 9.41l-2.55 1.61c-2.67 1.5-.96-1.9-5.03-4.25-8.18-4.72-14.8-16.16-14.8-25.54 0-4.65-4.3-4.68-1.67-6.23l3.06-1.69c2.67-1.44 6.31-1.18 10.34 1.15 8.18 4.72 14.8 16.16 14.8 25.54z" fill="url(#aL)"/><ellipse transform="rotate(-30.31 169.78 147.62)" cx="169.78" cy="147.62" rx="12.06" ry="20.88" fill="url(#aM)"/><ellipse transform="rotate(-30.31 169.78 147.62)" cx="169.78" cy="147.62" rx="9.79" ry="16.96" fill="url(#aN)"/><path d="m179.31 150.76c0 5.74-4.05 8.05-9.05 5.16-5-2.88-9.05-9.87-9.05-15.6 0-5.74 4.05-8.06 9.05-5.17s9.05 9.88 9.05 15.61z" fill="url(#aO)" style="mix-blend-mode:screen"/><path d="M172.15 160.43c-6.64-3.83-12.03-13.12-12.03-20.74 0-3.52 1.15-6.06 3.03-7.41-3.25.6-5.4 3.59-5.4 8.4 0 7.62 5.39 16.9 12.03 20.74 3.58 2.07 6.8 2.13 9 .55a9.9 9.9 0 0 1-6.63-1.54z" fill="url(#aP)"/><path d="m170.22 130.25c-3.92-2.26-7.98-2.11-9.86-1.22a12.57 12.57 0 0 1 9.28 1.64c8.18 4.72 14.81 16.16 14.81 25.55 0 4.89-2.22 8.35-5.1 9.79 3.02-1.12 5.68-4.63 5.68-10.21 0-9.39-6.63-20.83-14.81-25.55z" fill="url(#aQ)" style="mix-blend-mode:color-dodge"/><path d="m177.1 117.46c6.78-29.63 20.8-63.76 17.47-65.41-5.87-2.9-28.95 30.61-35.72 60.25-5.96 26.08-3.14 56.76 3.06 58.44s9.24-27.2 15.2-53.28z" fill="url(#aR)" style="mix-blend-mode:color-dodge"/><path d="m167.95 204.27-17.48 33.47-3.53-2.09v-14.17a20.82 20.82 0 0 1 1.1-6.39l9.08-27.75c1.95-5.97 6.18-11.52 10.83-14.2l3.4 2.05z" fill="url(#aS)"/><path d="m171.49 206.35-21.02 31.4v-14.18a20.82 20.82 0 0 1 1.1-6.4l9.08-27.74c1.96-5.98 6.19-11.52 10.84-14.2z" fill="url(#aT)"/><path d="M150.78 223.95a20.82 20.82 0 0 1 1.1-6.39l9.08-27.75c1.87-5.7 5.81-11.01 10.22-13.82v-.84c-4.65 2.68-8.88 8.23-10.83 14.2l-9.08 27.75a20.82 20.82 0 0 0-1.1 6.4v14.16l.61-.92z" fill="url(#aU)" style="mix-blend-mode:color-dodge"/><path d="m217.13 204.27 17.48 33.47 3.54-2.09v-14.17a20.82 20.82 0 0 0-1.1-6.39l-9.08-27.75c-1.96-5.97-6.18-11.52-10.84-14.2l-3.4 2.05z" fill="url(#aV)"/><path d="m213.6 206.35 21.01 31.4v-14.18a20.82 20.82 0 0 0-1.1-6.4l-9.08-27.74c-1.95-5.98-6.18-11.52-10.83-14.2z" fill="url(#aW)"/><path d="m233.97 217.18-9.07-27.75c-1.96-5.98-6.19-11.52-10.84-14.2v.17a27.1 27.1 0 0 1 9.73 13.5l9.08 27.76a20.82 20.82 0 0 1 1.1 6.39v13.05l1.1 1.64v-14.17a20.82 20.82 0 0 0-1.1-6.4z" fill="url(#aX)" style="mix-blend-mode:color-dodge"/></g></svg>
