<?xml version="1.0" encoding="UTF-8"?>
<svg width="182.68" height="177.36" version="1.1" xmlns="http://www.w3.org/2000/svg" xmlns:xlink="http://www.w3.org/1999/xlink"><defs><linearGradient id="g" x1="69.37" x2="123.85" y1="96.69" y2="96.69" gradientUnits="userSpaceOnUse" xlink:href="#_%C3%82%C3%81_%C3%8F_%C3%8C%C3%8C_%C3%88_%C3%8B%C3%82%C3%8C%C3%9A_377"/><linearGradient id="f" x1="69.37" x2="123.85" y1="102.92" y2="102.92" gradientUnits="userSpaceOnUse" xlink:href="#_%C3%82%C3%81_%C3%8F_%C3%8C%C3%8C_%C3%88_%C3%8B%C3%82%C3%8C%C3%9A_388"/><linearGradient id="e" x1="327.26" x2="352.95" y1="714.28" y2="692.03" gradientTransform="matrix(.87 .5 -1 .58 504.11 -485.69)" gradientUnits="userSpaceOnUse" xlink:href="#_%C3%82%C3%81_%C3%8F_%C3%8C%C3%8C_%C3%88_%C3%8B%C3%82%C3%8C%C3%9A_300"/><linearGradient id="d" x1="330.61" x2="349.74" y1="711.38" y2="694.81" gradientTransform="matrix(.87 .5 -1 .58 504.11 -485.69)" gradientUnits="userSpaceOnUse" xlink:href="#_%C3%82%C3%81_%C3%8F_%C3%8C%C3%8C_%C3%88_%C3%8B%C3%82%C3%8C%C3%9A_302"/><linearGradient id="c" x1="69.37" x2="123.85" y1="65.45" y2="65.45" gradientUnits="userSpaceOnUse" xlink:href="#_%C3%82%C3%81_%C3%8F_%C3%8C%C3%8C_%C3%88_%C3%8B%C3%82%C3%8C%C3%9A_337"/><linearGradient id="b" x1="95.96" x2="95.96" y1="35.29" y2="6.76" gradientUnits="userSpaceOnUse" xlink:href="#_%C3%82%C3%81_%C3%8F_%C3%8C%C3%8C_%C3%88_%C3%8B%C3%82%C3%8C%C3%9A_384"/><linearGradient id="a" x1="168.89" x2="173.92" y1="106.82" y2="138.61" gradientUnits="userSpaceOnUse" xlink:href="#_%C3%82%C3%81_%C3%8F_%C3%8C%C3%8C_%C3%88_%C3%8B%C3%82%C3%8C%C3%9A_422"/><clipPath id="q" transform="translate(0 -1.86)"><path class="cls-1" d="M94.48 106.3 66.19 90c-.82-.47-.88-88.32.06-88.86L93.84.45A3.53 3.53 0 0 1 97 .32l27.69.78c.82.47 1.73 88.45.8 89l-27.84 16.07a3.52 3.52 0 0 1-3.17.13z"/></clipPath><clipPath id="o" transform="translate(0 -1.86)"><path class="cls-1" d="m94.64 97-10.25-5.88c-.73-.42-.64-1.15.2-1.64l9.84-5.68a3.14 3.14 0 0 1 2.84-.12l10.25 5.92c.73.42.64 1.16-.2 1.64l-9.84 5.68a3.14 3.14 0 0 1-2.84.08Z"/></clipPath><clipPath id="n" transform="translate(0 -1.86)"><path class="cls-1" d="m94.64 83.24-10.25-5.92c-.73-.42-.64-1.16.2-1.64L94.43 70a3.14 3.14 0 0 1 2.84-.12l10.25 5.92c.73.42.64 1.15-.2 1.64l-9.84 5.68a3.18 3.18 0 0 1-2.84.12z"/></clipPath><clipPath id="m" transform="translate(0 -1.86)"><path class="cls-1" d="m94.64 59.56-10.25-5.91c-.73-.42-.64-1.16.2-1.64l9.84-5.68a3.14 3.14 0 0 1 2.84-.12l10.25 5.91c.73.42.64 1.16-.2 1.65l-9.84 5.68a3.14 3.14 0 0 1-2.84.11z"/></clipPath><clipPath id="l" transform="translate(0 -1.86)"><path class="cls-1" d="m94.64 35.64-10.25-5.92c-.73-.42-.64-1.15.2-1.64l9.84-5.68a3.14 3.14 0 0 1 2.84-.12l10.25 5.92c.73.42.64 1.16-.2 1.64l-9.84 5.68a3.14 3.14 0 0 1-2.84.12z"/></clipPath><clipPath id="k" transform="translate(0 -1.86)"><path class="cls-1" d="m73.83 140.91-28.3-16.33c-.81-.47-.88-90.76.06-91.31l27.59.23a3.53 3.53 0 0 1 3.17-.13l27.7-.1c.81.47 1.73 90.9.79 91.44L77 140.78a3.53 3.53 0 0 1-3.17.13z"/></clipPath><clipPath id="j" transform="translate(0 -1.86)"><path class="cls-1" d="m74 131.65-10.25-5.91c-.73-.42-.64-1.16.2-1.64l9.84-5.68a3.16 3.16 0 0 1 2.85-.12l10.24 5.91c.73.43.64 1.16-.2 1.65l-9.84 5.68a3.14 3.14 0 0 1-2.84.11Z"/></clipPath><clipPath id="i" transform="translate(0 -1.86)"><path class="cls-1" d="m74 117.85-10.25-5.92c-.73-.42-.64-1.15.2-1.64l9.84-5.68a3.2 3.2 0 0 1 2.85-.12l10.24 5.92c.73.42.64 1.16-.2 1.64l-9.84 5.68a3.14 3.14 0 0 1-2.84.12Z"/></clipPath><clipPath id="h" transform="translate(0 -1.86)"><path class="cls-1" d="m74 94.18-10.27-5.92c-.73-.42-.64-1.15.2-1.64l9.84-5.68a3.16 3.16 0 0 1 2.85-.12l10.24 5.92c.73.42.64 1.15-.2 1.64l-9.84 5.68a3.14 3.14 0 0 1-2.82.12Z"/></clipPath><clipPath id="p" transform="translate(0 -1.86)"><path class="cls-1" d="m122.06 146.71-10.77-6.22c-.77-.44-.67-1.21.21-1.72l10.35-6a3.28 3.28 0 0 1 3-.13l10.78 6.22c.76.44.67 1.22-.22 1.73l-10.34 6a3.3 3.3 0 0 1-3.01.12z"/></clipPath><style>.cls-1{fill:none}.cls-7,.cls-8{fill:#6ee8fc}.cls-7{opacity:.3}.cls-9{fill:#fff}.cls-10{fill:#071033}.cls-11{fill:#0d143a}.cls-17{fill:#d4088c}.cls-20,.cls-30,.cls-36{fill:#6de0f6}.cls-22{fill:#267fe5}.cls-23{fill:#25bfec}.cls-24{fill:#18d0f7}.cls-30{opacity:.5}.cls-36{opacity:.15}.cls-64{fill:#0c0f38;opacity:.6}</style></defs><g transform="translate(-28.51 .4)" style="isolation:isolate"><g data-name="Layer 2"><g data-name="—ÎÓÈ_1"><path class="cls-7" transform="translate(0 -1.86)" d="m75.8 146.1a13 13 0 0 1-6.39-1.55l-28.36-16.37c-2-1.14-3.07-2.75-3.07-4.52s1.09-3.37 3.07-4.51l28.36-16.38c1-0.59 1.63-1.34 1.63-2s-0.6-1.43-1.63-2l-8.51-4.98c-2-1.14-3.07-2.74-3.07-4.51s1.09-3.38 3.07-4.52l28.36-16.37a13.91 13.91 0 0 1 12.77 0l28.37 16.37c2 1.15 3.06 2.75 3.06 4.52s-1.09 3.37-3.06 4.51l-28.4 16.38c-1 0.6-1.64 1.34-1.64 2s0.6 1.44 1.64 2l8.5 4.91c2 1.14 3.07 2.74 3.07 4.51s-1.09 3.38-3.07 4.52l-28.32 16.44a12.93 12.93 0 0 1-6.38 1.55zm19.85-76.39a10.13 10.13 0 0 0-5 1.16l-28.32 16.37c-1 0.6-1.63 1.34-1.63 2s0.59 1.43 1.63 2l8.51 4.92c2 1.14 3.06 2.74 3.06 4.51s-1.09 3.37-3.06 4.52l-28.36 16.44c-1 0.6-1.64 1.34-1.64 2s0.6 1.44 1.64 2l28.36 16.37a11.14 11.14 0 0 0 9.91 0l28.36-16.37c1-0.6 1.64-1.34 1.64-2s-0.6-1.43-1.64-2l-8.51-4.91c-2-1.14-3.06-2.75-3.06-4.52s1.09-3.37 3.06-4.51l28.4-16.38c1-0.6 1.64-1.34 1.64-2s-0.6-1.44-1.64-2l-28.4-16.44a10.11 10.11 0 0 0-4.95-1.16z"/><path class="cls-8" transform="translate(0 -1.86)" d="M75.8 145a11.84 11.84 0 0 1-5.8-1.44l-28.38-16.37a4.25 4.25 0 0 1-2.49-3.53c0-1.34.88-2.59 2.49-3.52L70 103.77a3.18 3.18 0 0 0 0-6.06l-8.53-4.91c-1.61-.93-2.47-2.18-2.47-3.52a4.24 4.24 0 0 1 2.49-3.52l28.34-16.38a12.88 12.88 0 0 1 11.63 0l28.36 16.38a4.24 4.24 0 0 1 2.49 3.52c0 1.34-.88 2.59-2.49 3.52l-28.36 16.38a3.18 3.18 0 0 0 0 6l8.51 4.91c1.61.93 2.49 2.18 2.49 3.52a4.25 4.25 0 0 1-2.49 3.53l-28.36 16.42A11.83 11.83 0 0 1 75.8 145Zm19.85-76.44a11.28 11.28 0 0 0-5.53 1.32L61.76 86.25a3.71 3.71 0 0 0-2.21 3c0 1.13.78 2.2 2.21 3l8.51 4.91c1.6.93 2.49 2.18 2.49 3.52 0 1.34-.89 2.59-2.49 3.52L41.9 120.64a3.18 3.18 0 0 0 0 6l28.37 16.38a12.22 12.22 0 0 0 11 0l28.36-16.38a3.18 3.18 0 0 0 0-6l-8.5-4.91c-1.61-.93-2.5-2.18-2.5-3.53 0-1.35.89-2.59 2.5-3.52l28.36-16.37a3.19 3.19 0 0 0 0-6.06l-28.31-16.37a11.33 11.33 0 0 0-5.53-1.32z"/><path class="cls-9" transform="translate(0 -1.86)" d="M107.94 105.11a1.27 1.27 0 1 1-1.75-.48 1.28 1.28 0 0 1 1.75.48zm6.61-3.82a1.27 1.27 0 1 1-1.74-.48 1.28 1.28 0 0 1 1.74.48zm6.62-3.82a1.28 1.28 0 0 1-.46 1.75 1.29 1.29 0 1 1 .46-1.75zm6.62-3.82a1.27 1.27 0 1 1-1.75-.48 1.29 1.29 0 0 1 1.75.48zm3.96-5.57a1 1 0 0 1 1 .07 1.44 1.44 0 0 1 .4.47 1.8 1.8 0 0 1 .15.71 1.45 1.45 0 0 1-.58 1.17 1 1 0 0 1-1 0 2 2 0 0 1-.71-.64 1 1 0 0 1-.27-.6.52.52 0 0 1 .08-.28 1.06 1.06 0 0 1 .21-.31 2 2 0 0 1 .72-.59zm-6.1-4.41a1.27 1.27 0 1 1 .46 1.76 1.28 1.28 0 0 1-.46-1.76zM119 79.85a1.27 1.27 0 1 1 .46 1.75 1.28 1.28 0 0 1-.46-1.75ZM112.41 76a1.28 1.28 0 1 1 .46 1.75 1.29 1.29 0 0 1-.46-1.75zm-6.62-3.79a1.28 1.28 0 1 1 .46 1.75 1.29 1.29 0 0 1-.46-1.75zM99 68.71a1.28 1.28 0 1 1 2.35 1 1.28 1.28 0 0 1-2.35-1zm-7.5.23a1.28 1.28 0 1 1 2.5-.56 1.27 1.27 0 0 1-2.48.56zm-6.69 3.67A1.27 1.27 0 1 1 87 71.34a1.27 1.27 0 1 1-2.21 1.27Zm-6.62 3.82a1.27 1.27 0 1 1 1.75.48 1.28 1.28 0 0 1-1.75-.48zm-6.61 3.82a1.27 1.27 0 1 1 1.74.48 1.28 1.28 0 0 1-1.74-.48zM65 84.07a1.27 1.27 0 1 1 1.74.48 1.28 1.28 0 0 1-1.74-.48Zm-5.7 4.77a1 1 0 0 1-.78-.63 1.41 1.41 0 0 1 .17-1.21 1.18 1.18 0 0 1 1.92-.26 1.54 1.54 0 0 1 .24 1.65 1 1 0 0 1-.59.38 2.26 2.26 0 0 1-.96.07zM64.2 94a1.27 1.27 0 1 1-.46-1.75A1.28 1.28 0 0 1 64.2 94Zm6.59 3.91a1.6 1.6 0 0 1-.81.54 1.13 1.13 0 0 1-.44 0 1.25 1.25 0 0 1-.47-.16 1.29 1.29 0 0 1 1.28-2.23 1.14 1.14 0 0 1 .38.34 1.27 1.27 0 0 1 .25.49 1.1 1.1 0 0 1-.19 1.02zm-.67 6.09a1.43 1.43 0 0 1 .19-1.71 1.52 1.52 0 0 1 1.68 0 1 1 0 0 1 .5.86 1.38 1.38 0 0 1-.48 1.06 1.21 1.21 0 0 1-1.89-.21zm-6.61 3.84a1.27 1.27 0 1 1 1.74.47 1.27 1.27 0 0 1-1.74-.47zm-6.62 3.82a1.27 1.27 0 1 1 1.74.47 1.27 1.27 0 0 1-1.74-.47zm-6.62 3.82A1.28 1.28 0 1 1 52 116a1.28 1.28 0 0 1-1.73-.52Zm-6.62 3.82a1.28 1.28 0 1 1 1.75.47 1.28 1.28 0 0 1-1.75-.47zm-3.96 5.56a1 1 0 0 1-1-.07 1.73 1.73 0 0 1-.4-.47 1.76 1.76 0 0 1-.15-.71 1.4 1.4 0 0 1 .59-1.16 1 1 0 0 1 1 0 1.94 1.94 0 0 1 .71.64 1.07 1.07 0 0 1 .27.6.43.43 0 0 1-.08.28 1.49 1.49 0 0 1-.2.32 2.16 2.16 0 0 1-.74.57zm6.11 4.41a1.28 1.28 0 1 1-.46-1.75 1.28 1.28 0 0 1 .46 1.75zm6.61 3.82a1.27 1.27 0 1 1-.46-1.75 1.27 1.27 0 0 1 .46 1.75zm6.59 3.82a1.27 1.27 0 1 1-.46-1.75 1.27 1.27 0 0 1 .46 1.75zm6.65 3.82a1.27 1.27 0 1 1-.46-1.75 1.29 1.29 0 0 1 .46 1.75zm6.76 3.5a1.22 1.22 0 0 1-1.69.79 1.21 1.21 0 0 1-.66-1.74 1.39 1.39 0 0 1 1.63-.64 1.36 1.36 0 0 1 .72 1.59zm7.53-.23a1.27 1.27 0 1 1-2.48.57 1.27 1.27 0 0 1 2.48-.57zm6.69-3.67a1.27 1.27 0 1 1-1.74-.48 1.27 1.27 0 0 1 1.74.48zm6.62-3.82a1.27 1.27 0 1 1-1.75-.51 1.28 1.28 0 0 1 1.75.51zm6.62-3.82a1.27 1.27 0 1 1-1.75-.48 1.28 1.28 0 0 1 1.75.48zm6.61-3.82a1.27 1.27 0 1 1-1.74-.48 1.27 1.27 0 0 1 1.74.48zm5.66-4.77a1 1 0 0 1 .78.63 1.41 1.41 0 0 1-.17 1.24 1.18 1.18 0 0 1-1.92.26 1.54 1.54 0 0 1-.24-1.65 1 1 0 0 1 .59-.38 2.26 2.26 0 0 1 .96-.1zm-4.89-5.2a1.27 1.27 0 1 1 .46 1.75 1.27 1.27 0 0 1-.46-1.75zm-6.59-3.9a1.5 1.5 0 0 1 .8-.55 1.35 1.35 0 0 1 .44 0 1.2 1.2 0 0 1 .47.16 1.29 1.29 0 0 1-1.28 2.23 1.24 1.24 0 0 1-.38-.34 1.47 1.47 0 0 1-.25-.48 1.1 1.1 0 0 1 .2-1.02zm.66-6.07a1.42 1.42 0 0 1-.19 1.7 1.52 1.52 0 0 1-1.67 0 1 1 0 0 1-.51-.86 1.4 1.4 0 0 1 .48-1.07 1.21 1.21 0 0 1 1.89.23z"/><path class="cls-7" transform="translate(0 -1.86)" d="M123.44 174.08a9.89 9.89 0 0 1-4.88-1.15L87.2 154.82a4.21 4.21 0 0 1-2.37-3.63c0-1.65 1.11-3.24 3-4.37l29.46-17c3.28-1.9 8.1-2.07 11-.4l31.37 18.11a4.21 4.21 0 0 1 2.37 3.64c0 1.65-1.12 3.24-3.06 4.36l-29.46 17a12.49 12.49 0 0 1-6.07 1.55zm0-43a9.73 9.73 0 0 0-4.71 1.17l-29.45 17c-1.2.7-1.63 1.43-1.63 1.89 0 .46.59.95.94 1.15L120 170.45c2 1.17 5.74 1 8.13-.4l29.46-17c1.2-.69 1.62-1.43 1.62-1.88 0-.45-.59-1-.94-1.16L126.9 131.9a7.06 7.06 0 0 0-3.42-.77z"/><path class="cls-8" transform="translate(0 -1.86)" d="M123.43 172.93a8.81 8.81 0 0 1-4.3-1l-31.36-18.1a3.13 3.13 0 0 1-1.8-2.64c0-1.23.91-2.46 2.49-3.37l29.45-17c2.91-1.68 7.32-1.85 9.85-.4l31.36 18.11a3.13 3.13 0 0 1 1.8 2.65c0 1.23-.9 2.45-2.48 3.37l-29.46 17a11.34 11.34 0 0 1-5.55 1.38zm0-42.94a10.85 10.85 0 0 0-5.27 1.32l-29.46 17c-1.39.81-2.2 1.86-2.2 2.88a2.6 2.6 0 0 0 1.52 2.15l31.36 18.1c2.37 1.37 6.53 1.19 9.27-.39l29.46-17c1.4-.81 2.2-1.85 2.2-2.87a2.58 2.58 0 0 0-1.51-2.15l-31.36-18.11a8.17 8.17 0 0 0-3.97-.92Z"/><path class="cls-9" transform="translate(0 -1.86)" d="M112.7 167.9a1.26 1.26 0 1 1 2.19 1.26 1.26 1.26 0 1 1-2.19-1.26zm-6.57-3.8a1.27 1.27 0 1 1 .45 1.75 1.28 1.28 0 0 1-.45-1.75zm-6.58-3.8a1.28 1.28 0 0 1 1.74-.48 1.29 1.29 0 1 1-1.74.48zM93 156.51a1.26 1.26 0 1 1 .45 1.74 1.27 1.27 0 0 1-.45-1.74zm-6.36-4.09a2.12 2.12 0 0 1 .91-.28 1 1 0 0 1 .71.14.74.74 0 0 1 .26.29 1.19 1.19 0 0 1 .21.44 1.33 1.33 0 0 1-.13 1 1.32 1.32 0 0 1-.78.6 1.34 1.34 0 0 1-.49 0 1.77 1.77 0 0 1-.57-.25 1.43 1.43 0 0 1-.6-1.06 1 1 0 0 1 .48-.88zm3.87-5.42a1.26 1.26 0 0 1-1.42 1.87 1.46 1.46 0 0 1-.77-.59 1.21 1.21 0 0 1-.14-1 1.26 1.26 0 0 1 2.33-.3zm6.57-3.83a1.26 1.26 0 1 1-1.74-.48 1.27 1.27 0 0 1 1.74.48zm6.58-3.8a1.27 1.27 0 1 1-1.74-.48 1.28 1.28 0 0 1 1.74.48zm6.57-3.79a1.26 1.26 0 1 1-1.74-.49 1.27 1.27 0 0 1 1.74.49zm6.58-3.8a1.27 1.27 0 1 1-1.74-.48 1.28 1.28 0 0 1 1.74.48zm7.19-2.06a1.36 1.36 0 0 1-1.19 1.3 1.34 1.34 0 0 1-1.33-1.14 1.22 1.22 0 0 1 1.17-1.43 1.23 1.23 0 0 1 1.35 1.27zm6.91 2.84a1.27 1.27 0 1 1-.46-1.75 1.28 1.28 0 0 1 .46 1.75zm6.57 3.79a1.26 1.26 0 1 1-2.19-1.26 1.26 1.26 0 1 1 2.19 1.26zm6.57 3.8a1.26 1.26 0 1 1-2.19-1.26 1.26 1.26 0 1 1 2.19 1.26zm6.58 3.85a1.27 1.27 0 1 1-.45-1.75 1.28 1.28 0 0 1 .45 1.75zm6.57 3.74a1.26 1.26 0 1 1-.45-1.74 1.27 1.27 0 0 1 .45 1.74zm2.37 5.6a1.6 1.6 0 0 1-.39-1.59 1 1 0 0 1 .53-.39 2.58 2.58 0 0 1 .92-.24 1 1 0 0 1 .88.5 1.43 1.43 0 0 1 0 1.3 1.16 1.16 0 0 1-1.94.42zm-6.47 3.95a1.27 1.27 0 1 1 1.74.48 1.28 1.28 0 0 1-1.74-.48zm-6.58 3.79a1.27 1.27 0 1 1 1.74.48 1.27 1.27 0 0 1-1.74-.48zm-6.52 3.8a1.27 1.27 0 1 1 1.74.48 1.29 1.29 0 0 1-1.74-.48zm-6.62 3.8a1.27 1.27 0 1 1 2.19-1.27 1.28 1.28 0 0 1-.46 1.75 1.27 1.27 0 0 1-1.73-.48zm-6.71 3.51a1.26 1.26 0 0 1 2.32-1 1.21 1.21 0 0 1-.62 1.75 1.23 1.23 0 0 1-1.7-.75zm-7.39-.5a1.42 1.42 0 0 1 1.56-.71 1.37 1.37 0 0 1 .82 1.52 1.26 1.26 0 1 1-2.38-.81z"/><path class="cls-7" transform="translate(0 -1.86)" d="M172.15 146a9.89 9.89 0 0 1-4.88-1.14l-31.36-18.16a4.21 4.21 0 0 1-2.37-3.64c0-1.65 1.11-3.24 3.05-4.36l29.46-17c3.27-1.89 8.1-2.06 11-.39l31.37 18.11a4.23 4.23 0 0 1 2.37 3.63c0 1.65-1.12 3.24-3.06 4.37l-29.46 17a12.52 12.52 0 0 1-6.12 1.58zm-3.45-3.62c2 1.16 5.74 1 8.13-.4l29.46-17c1.19-.7 1.62-1.43 1.62-1.89 0-.46-.59-1-.94-1.15l-31.36-18.11c-2-1.16-5.74-1-8.13.4l-29.45 17c-1.2.69-1.63 1.43-1.63 1.88 0 .45.59 1 .94 1.16z"/><path class="cls-8" transform="translate(0 -1.86)" d="M172.14 144.8a8.81 8.81 0 0 1-4.3-1l-31.36-18.11a3.13 3.13 0 0 1-1.8-2.65c0-1.23.91-2.45 2.49-3.37l29.45-17c2.91-1.68 7.32-1.86 9.85-.4l31.36 18.11a3.13 3.13 0 0 1 1.8 2.64c0 1.23-.91 2.46-2.48 3.37l-29.46 17a11.45 11.45 0 0 1-5.55 1.41zm-4-1.48c2.36 1.37 6.53 1.19 9.27-.39l29.46-17c1.4-.81 2.2-1.86 2.2-2.88a2.61 2.61 0 0 0-1.51-2.15l-31.37-18.1c-2.36-1.37-6.53-1.19-9.27.39l-29.46 17c-1.39.81-2.2 1.85-2.2 2.87a2.58 2.58 0 0 0 1.52 2.15z"/><path class="cls-10" transform="translate(0 -1.86)" d="M94.48 106.3 66.19 90c-.82-.47-.71-1.29.22-1.83l27.84-16.11a3.55 3.55 0 0 1 3.18-.14l28.29 16.34c.82.47.71 1.29-.22 1.83l-27.85 16.08a3.52 3.52 0 0 1-3.17.13z"/><path class="cls-11" transform="translate(0 -1.86)" d="m66.19 90 1.37.8 26.69-15.46a3.55 3.55 0 0 1 3.18-.13l26.92 15.55 1.15-.67c.93-.54 1-1.36.22-1.83L97.43 71.92a3.55 3.55 0 0 0-3.18.14L66.41 88.13c-.93.54-1.04 1.36-.22 1.87z"/><g clip-path="url(#q)"><path transform="translate(0 -1.86)" d="M118.31 90.36h-9.42l-10.49-6a5.86 5.86 0 0 0-5.27.21L83 90.36h-9.4v6.33a1.53 1.53 0 0 0 .91 1.41l19 11a5.86 5.86 0 0 0 5.27-.22L117 98.32a2.27 2.27 0 0 0 1.29-1.63z" fill="url(#g)"/><path transform="translate(0 -1.86)" d="m117 97.88-18.22 10.53a5.83 5.83 0 0 1-5.27.22l-19-11a1.52 1.52 0 0 1-.91-1.41v.44a1.53 1.53 0 0 0 .91 1.41l19 11a5.86 5.86 0 0 0 5.27-.22L117 98.32a2.27 2.27 0 0 0 1.29-1.63v-.44a2.27 2.27 0 0 1-1.29 1.63Z" fill="url(#f)"/><path class="cls-17" transform="translate(0 -1.86)" d="M74.2 97.12V90.8h9.41L93.72 85a5.88 5.88 0 0 1 5.28-.26l10.49 6.06h8.82v-.44h-9.42l-10.49-6a5.86 5.86 0 0 0-5.27.21L83 90.36h-9.4v6.33a1.53 1.53 0 0 0 .91 1.41l.11.06a1.3 1.3 0 0 1-.42-1.04Z"/><path class="cls-8" transform="translate(0 -1.86)" d="M117.78 90.87v6.29a1.66 1.66 0 0 1-.45 1 2.08 2.08 0 0 0 1-1.44v-6.29a2.75 2.75 0 0 0-.55.44z"/><path transform="translate(0 -1.86)" d="m93.51 102.74-19-11c-1.35-.78-1.18-2.14.38-3L93.13 78.2a5.86 5.86 0 0 1 5.27-.2l19 11c1.35.78 1.18 2.14-.38 3l-18.24 10.52a5.83 5.83 0 0 1-5.27.22z" fill="url(#e)"/><path class="cls-8" transform="translate(0 -1.86)" d="m117.4 89-19-11a4.91 4.91 0 0 0-2.66-.51 4.43 4.43 0 0 1 1.92.51l19 11c1.35.78 1.18 2.14-.38 3L98 102.52a6.07 6.07 0 0 1-2.61.74 6.12 6.12 0 0 0 3.35-.74L117 92c1.58-.91 1.75-2.27.4-3z"/><path transform="translate(0 -1.86)" d="M94.13 99.58 80 91.41c-1-.58-.88-1.59.28-2.26l13.58-7.84a4.35 4.35 0 0 1 3.93-.17l14.14 8.17c1 .58.88 1.6-.28 2.27l-13.59 7.84a4.38 4.38 0 0 1-3.93.16z" fill="url(#d)"/><path class="cls-20" transform="translate(0 -1.86)" d="m94.64 97-10.25-5.88c-.73-.42-.64-1.15.2-1.64l9.84-5.68a3.14 3.14 0 0 1 2.84-.12l10.25 5.92c.73.42.64 1.16-.2 1.64l-9.84 5.68a3.14 3.14 0 0 1-2.84.08Z"/><path class="cls-17" transform="translate(0 -1.86)" d="m94.36 102.74-19-11c-1.35-.78-1.18-2.14.38-3L94 78.2a6 6 0 0 1 2.57-.73 6.18 6.18 0 0 0-3.42.73L74.89 88.73c-1.56.9-1.73 2.26-.38 3l19 11a4.87 4.87 0 0 0 2.7.51 4.3 4.3 0 0 1-1.85-.5z"/><g clip-path="url(#o)"><path class="cls-22" transform="translate(0 -1.86)" d="m84.59 90.28 9.84-5.68a3.14 3.14 0 0 1 2.84-.12l10.26 5.92a1.13 1.13 0 0 1 .36.32.76.76 0 0 0-.36-1.12l-10.26-5.92a3.14 3.14 0 0 0-2.84.12l-9.84 5.68c-.66.38-.85.91-.57 1.32a1.72 1.72 0 0 1 .57-.52z"/><path class="cls-23" transform="translate(0 -1.86)" d="m84.59 91.25 9.84-5.69a3.17 3.17 0 0 1 2.84-.11l10.26 5.92a1.08 1.08 0 0 1 .3.25.78.78 0 0 0-.3-1.22l-10.26-5.92a3.14 3.14 0 0 0-2.84.12l-9.84 5.68c-.7.4-.87 1-.51 1.39a1.85 1.85 0 0 1 .51-.42z"/><path class="cls-24" transform="translate(0 -1.86)" d="M84.18 92.74a1.69 1.69 0 0 1 .41-.31l9.84-5.69a3.18 3.18 0 0 1 2.84-.12l10.26 5.92.2.15a.77.77 0 0 0-.2-1.32l-10.26-5.92a3.17 3.17 0 0 0-2.84.11l-9.84 5.69c-.76.43-.9 1.06-.41 1.49z"/></g><path transform="translate(0 -1.86)" d="M118.31 76.56h-9.42L98.4 70.5a5.86 5.86 0 0 0-5.27.22L83 76.56h-9.4v6.32a1.52 1.52 0 0 0 .91 1.41l19 11a5.86 5.86 0 0 0 5.27-.22L117 84.51a2.26 2.26 0 0 0 1.29-1.63z" fill="url(#_%C3%82%C3%81_%C3%8F_%C3%8C%C3%8C_%C3%88_%C3%8B%C3%82%C3%8C%C3%9A_377-2)"/><path transform="translate(0 -1.86)" d="M117 84.08 98.78 94.61a5.86 5.86 0 0 1-5.27.22l-19-11a1.54 1.54 0 0 1-.91-1.41v.43a1.52 1.52 0 0 0 .91 1.41l19 11a5.86 5.86 0 0 0 5.27-.22L117 84.51a2.26 2.26 0 0 0 1.29-1.63v-.43a2.27 2.27 0 0 1-1.29 1.63Z" fill="url(#_%C3%82%C3%81_%C3%8F_%C3%8C%C3%8C_%C3%88_%C3%8B%C3%82%C3%8C%C3%9A_388-2)"/><path class="cls-17" transform="translate(0 -1.86)" d="M74.2 83.32V77h9.41l10.11-5.83a5.85 5.85 0 0 1 5.28-.23l10.49 6h8.82v-.43h-9.42L98.4 70.5a5.86 5.86 0 0 0-5.27.22L83 76.56h-9.4v6.32a1.52 1.52 0 0 0 .91 1.41l.11.07a1.3 1.3 0 0 1-.42-1.04Z"/><path class="cls-8" transform="translate(0 -1.86)" d="M117.78 77.06v6.3a1.66 1.66 0 0 1-.45 1 2 2 0 0 0 1-1.44v-6.3a3.18 3.18 0 0 0-.55.44z"/><path transform="translate(0 -1.86)" d="m93.51 88.94-19-11c-1.35-.78-1.18-2.14.38-3l18.24-10.55a5.86 5.86 0 0 1 5.27-.22l19 11c1.35.78 1.18 2.15-.38 3L98.78 88.72a5.86 5.86 0 0 1-5.27.22z" fill="url(#_%C3%82%C3%81_%C3%8F_%C3%8C%C3%8C_%C3%88_%C3%8B%C3%82%C3%8C%C3%9A_300-2)"/><path class="cls-8" transform="translate(0 -1.86)" d="m117.4 75.14-19-11a4.91 4.91 0 0 0-2.66-.51 4.43 4.43 0 0 1 1.92.51l19 11c1.35.78 1.18 2.15-.38 3L98 88.72a6.06 6.06 0 0 1-2.61.73 6.2 6.2 0 0 0 3.35-.73L117 78.19c1.58-.9 1.75-2.27.4-3.05z"/><path transform="translate(0 -1.86)" d="M94.13 85.78 80 77.61c-1-.58-.88-1.6.28-2.27l13.57-7.84a4.38 4.38 0 0 1 3.93-.16l14.14 8.17c1 .58.88 1.59-.28 2.26l-13.58 7.84a4.38 4.38 0 0 1-3.93.17z" fill="url(#_%C3%82%C3%81_%C3%8F_%C3%8C%C3%8C_%C3%88_%C3%8B%C3%82%C3%8C%C3%9A_302-2)"/><path class="cls-20" transform="translate(0 -1.86)" d="m94.64 83.24-10.25-5.92c-.73-.42-.64-1.16.2-1.64L94.43 70a3.14 3.14 0 0 1 2.84-.12l10.25 5.92c.73.42.64 1.15-.2 1.64l-9.84 5.68a3.18 3.18 0 0 1-2.84.12z"/><path class="cls-17" transform="translate(0 -1.86)" d="m94.36 88.94-19-11c-1.35-.78-1.18-2.14.38-3L94 64.39a6.13 6.13 0 0 1 2.57-.73 6.27 6.27 0 0 0-3.42.73L74.89 74.93c-1.56.9-1.73 2.26-.38 3l19 11a5 5 0 0 0 2.7.51 4.44 4.44 0 0 1-1.85-.5z"/><g clip-path="url(#n)"><path class="cls-22" transform="translate(0 -1.86)" d="m84.59 76.48 9.84-5.69a3.17 3.17 0 0 1 2.84-.11l10.26 5.92a1.13 1.13 0 0 1 .36.32.76.76 0 0 0-.36-1.12l-10.26-5.92a3.14 3.14 0 0 0-2.84.11l-9.84 5.69c-.66.38-.85.9-.57 1.32a1.53 1.53 0 0 1 .57-.52z"/><path class="cls-23" transform="translate(0 -1.86)" d="m84.59 77.44 9.84-5.68a3.14 3.14 0 0 1 2.84-.12l10.26 5.92a1.28 1.28 0 0 1 .3.25.77.77 0 0 0-.3-1.21l-10.26-5.92a3.17 3.17 0 0 0-2.84.11l-9.84 5.69c-.7.4-.87 1-.51 1.39a1.87 1.87 0 0 1 .51-.43z"/><path class="cls-24" transform="translate(0 -1.86)" d="M84.18 78.94a2 2 0 0 1 .41-.32l9.84-5.68a3.14 3.14 0 0 1 2.84-.12l10.26 5.92a1 1 0 0 1 .2.15.78.78 0 0 0-.2-1.33l-10.26-5.92a3.14 3.14 0 0 0-2.84.12l-9.84 5.68c-.76.44-.9 1.07-.41 1.5z"/></g><path class="cls-30" transform="translate(0 -1.86)" d="m108 62.5-24.1 1.15v12.91a.83.83 0 0 0 .49.76l10.25 5.92a3.18 3.18 0 0 0 2.84-.12l9.84-5.68a1.13 1.13 0 0 0 .68-1z"/><path class="cls-30" transform="translate(0 -1.86)" d="m118.31 58.5-44.72.44v17.6A1.51 1.51 0 0 0 74.5 78l19 11a5.86 5.86 0 0 0 5.27-.22L117 78.17a2.11 2.11 0 0 0 1.27-1.77z"/><path transform="translate(0 -1.86)" d="M118.31 52.89h-9.42L98.4 46.83a5.86 5.86 0 0 0-5.27.22L83 52.89h-9.4v6.32a1.52 1.52 0 0 0 .91 1.41l19 11a5.86 5.86 0 0 0 5.27-.21L117 60.84a2.27 2.27 0 0 0 1.29-1.63z" fill="url(#_%C3%82%C3%81_%C3%8F_%C3%8C%C3%8C_%C3%88_%C3%8B%C3%82%C3%8C%C3%9A_377-3)"/><path transform="translate(0 -1.86)" d="M117 60.41 98.78 70.94a5.86 5.86 0 0 1-5.27.22l-19-11a1.54 1.54 0 0 1-.91-1.41v.43a1.52 1.52 0 0 0 .91 1.41l19 11a5.86 5.86 0 0 0 5.27-.21L117 60.84a2.27 2.27 0 0 0 1.29-1.63v-.43a2.27 2.27 0 0 1-1.29 1.63Z" fill="url(#c)" style="mix-blend-mode:lighten"/><path class="cls-17" transform="translate(0 -1.86)" d="M74.2 59.65v-6.33h9.41l10.11-5.84a5.88 5.88 0 0 1 5.28-.21l10.49 6h8.82v-.43h-9.42L98.4 46.83a5.86 5.86 0 0 0-5.27.22L83 52.89h-9.4v6.32a1.52 1.52 0 0 0 .91 1.41l.11.07a1.31 1.31 0 0 1-.42-1.04Z"/><path class="cls-8" transform="translate(0 -1.86)" d="M117.78 53.39v6.3a1.66 1.66 0 0 1-.45 1 2 2 0 0 0 1-1.44V53a3.18 3.18 0 0 0-.55.39z"/><path transform="translate(0 -1.86)" d="m93.51 65.27-19-11c-1.35-.78-1.18-2.14.38-3l18.24-10.55a5.86 5.86 0 0 1 5.27-.22l19 11c1.35.78 1.18 2.15-.38 3.05l-18.24 10.5a5.86 5.86 0 0 1-5.27.22z" fill="url(#_%C3%82%C3%81_%C3%8F_%C3%8C%C3%8C_%C3%88_%C3%8B%C3%82%C3%8C%C3%9A_300-3)"/><path class="cls-8" transform="translate(0 -1.86)" d="m117.4 51.47-19-11a4.91 4.91 0 0 0-2.66-.47 4.43 4.43 0 0 1 1.92.51l19 11c1.35.78 1.18 2.15-.38 3.05L98 65.05a6.06 6.06 0 0 1-2.61.73 6.2 6.2 0 0 0 3.35-.73L117 54.52c1.58-.9 1.75-2.27.4-3.05z"/><path transform="translate(0 -1.86)" d="M94.13 62.1 80 53.94c-1-.58-.88-1.6.28-2.27l13.58-7.84a4.38 4.38 0 0 1 3.93-.16l14.14 8.16c1 .59.88 1.6-.28 2.27l-13.59 7.84a4.35 4.35 0 0 1-3.93.16z" fill="url(#_%C3%82%C3%81_%C3%8F_%C3%8C%C3%8C_%C3%88_%C3%8B%C3%82%C3%8C%C3%9A_302-3)"/><path class="cls-20" transform="translate(0 -1.86)" d="m94.64 59.56-10.25-5.91c-.73-.42-.64-1.16.2-1.64l9.84-5.68a3.14 3.14 0 0 1 2.84-.12l10.25 5.91c.73.42.64 1.16-.2 1.65l-9.84 5.68a3.14 3.14 0 0 1-2.84.11z"/><path class="cls-17" transform="translate(0 -1.86)" d="m94.36 65.27-19-11c-1.35-.78-1.18-2.14.38-3L94 40.72a6 6 0 0 1 2.55-.72 6.27 6.27 0 0 0-3.42.73L74.89 51.25c-1.56.91-1.73 2.27-.38 3l19 11a5 5 0 0 0 2.7.51 4.44 4.44 0 0 1-1.85-.49z"/><g clip-path="url(#m)"><path class="cls-22" transform="translate(0 -1.86)" d="m84.59 52.81 9.84-5.69a3.14 3.14 0 0 1 2.84-.12l10.26 5.91a1.29 1.29 0 0 1 .36.33.77.77 0 0 0-.36-1.13L97.27 46.2a3.18 3.18 0 0 0-2.84.12L84.59 52c-.66.37-.85.9-.57 1.32a1.53 1.53 0 0 1 .57-.51z"/><path class="cls-23" transform="translate(0 -1.86)" d="m84.59 53.77 9.84-5.68a3.14 3.14 0 0 1 2.84-.09l10.26 5.92a1.08 1.08 0 0 1 .3.25.78.78 0 0 0-.3-1.22L97.27 47a3.14 3.14 0 0 0-2.84.11l-9.84 5.69c-.7.4-.87 1-.51 1.39a1.87 1.87 0 0 1 .51-.42z"/><path class="cls-24" transform="translate(0 -1.86)" d="M84.18 55.27a2 2 0 0 1 .41-.32l9.84-5.68a3.14 3.14 0 0 1 2.84-.12l10.26 5.92.2.14a.78.78 0 0 0-.2-1.32L97.27 48a3.14 3.14 0 0 0-2.84.12l-9.84 5.68c-.76.41-.9 1.04-.41 1.47z"/></g><path class="cls-20" transform="translate(0 -1.86)" d="m81.57 68.16a1.7 1.7 0 1 1-1.69-1.69 1.7 1.7 0 0 1 1.69 1.69z"/><path class="cls-30" transform="translate(0 -1.86)" d="m85.39 72.2a2 2 0 1 1-2-2 2 2 0 0 1 2 2z"/><circle class="cls-36" cx="79.5" cy="71.43" r=".67"/><path class="cls-36" transform="translate(0 -1.86)" d="M83.37 70.37a.67.67 0 1 1-.67-.68.67.67 0 0 1 .67.68z"/><path class="cls-20" transform="translate(0 -1.86)" d="M90.28 80.74a.87.87 0 1 1-.87-.87.87.87 0 0 1 .87.87z"/><circle class="cls-30" cx="83.18" cy="75.78" r="1.33"/><circle class="cls-30" cx="88.76" cy="73.43" r="1.33"/><circle class="cls-30" cx="112.64" cy="65.78" r="1.33"/><path class="cls-20" transform="translate(0 -1.86)" d="m114.74 72.06a1.89 1.89 0 1 1-1.89-1.88 1.88 1.88 0 0 1 1.89 1.88z"/><path class="cls-36" transform="translate(0 -1.86)" d="M110 70.57a.84.84 0 1 1-.84-.84.83.83 0 0 1 .84.84z"/><path class="cls-36" transform="translate(0 -1.86)" d="m109.14 68.8a1.39 1.39 0 1 1-1.25-1.52 1.39 1.39 0 0 1 1.25 1.52z"/><path class="cls-30" transform="translate(0 -1.86)" d="m113.8 77.39a1.33 1.33 0 1 1-1.33-1.33 1.33 1.33 0 0 1 1.33 1.33z"/><path class="cls-36" transform="translate(0 -1.86)" d="m103.53 82a1 1 0 1 1-1-1 1 1 0 0 1 1 1z"/><path class="cls-20" transform="translate(0 -1.86)" d="m107 78.52a1.68 1.68 0 1 1-1.68-1.68 1.68 1.68 0 0 1 1.68 1.68z"/><path class="cls-30" transform="translate(0 -1.86)" d="m104.52 73.54a1.33 1.33 0 1 1-1.33-1.34 1.33 1.33 0 0 1 1.33 1.34z"/><circle class="cls-30" cx="95.57" cy="82.7" r="1.99"/><circle class="cls-20" cx="87.91" cy="69.02" r="1.33"/><path class="cls-30" transform="translate(0 -1.86)" d="m108 38.57-24.1 1.16v12.9a.82.82 0 0 0 .49.76l10.25 5.92a3.14 3.14 0 0 0 2.84-.12l9.84-5.68a1.11 1.11 0 0 0 .68-.95Z"/><path class="cls-30" transform="translate(0 -1.86)" d="m118.31 34.85-44.71.44v17.6a1.53 1.53 0 0 0 .9 1.41l19 11a5.86 5.86 0 0 0 5.27-.22L117 54.52a2.13 2.13 0 0 0 1.28-1.77z"/><path transform="translate(0 -1.86)" d="M118.31 29h-9.42L98.4 22.9a5.86 5.86 0 0 0-5.27.22L83 29h-9.4v6.33a1.54 1.54 0 0 0 .91 1.41l19 11a5.86 5.86 0 0 0 5.27-.22L117 36.92a2.27 2.27 0 0 0 1.29-1.63z" fill="url(#_%C3%82%C3%81_%C3%8F_%C3%8C%C3%8C_%C3%88_%C3%8B%C3%82%C3%8C%C3%9A_377-4)"/><path transform="translate(0 -1.86)" d="M117 36.48 98.78 47a5.83 5.83 0 0 1-5.27.22l-19-11a1.52 1.52 0 0 1-.91-1.41v.44a1.54 1.54 0 0 0 .91 1.41l19 11a5.86 5.86 0 0 0 5.27-.22L117 36.92a2.27 2.27 0 0 0 1.29-1.63v-.44a2.27 2.27 0 0 1-1.29 1.63Z" fill="url(#_%C3%82%C3%81_%C3%8F_%C3%8C%C3%8C_%C3%88_%C3%8B%C3%82%C3%8C%C3%9A_337-2)" style="mix-blend-mode:lighten"/><path class="cls-17" transform="translate(0 -1.86)" d="M74.2 35.72V29.4h9.41l10.11-5.84a5.88 5.88 0 0 1 5.28-.22l10.49 6.06h8.82V29h-9.42L98.4 22.9a5.86 5.86 0 0 0-5.27.22L83 29h-9.4v6.33a1.54 1.54 0 0 0 .91 1.41l.11.06a1.3 1.3 0 0 1-.42-1.08Z"/><path class="cls-8" transform="translate(0 -1.86)" d="M117.78 29.47v6.29a1.66 1.66 0 0 1-.45 1 2.08 2.08 0 0 0 1-1.44V29a2.75 2.75 0 0 0-.55.47z"/><path transform="translate(0 -1.86)" d="m93.51 41.34-19-11c-1.35-.78-1.18-2.14.38-3L93.13 16.8a5.86 5.86 0 0 1 5.27-.22l19 11c1.35.78 1.18 2.14-.38 3L98.78 41.12a5.83 5.83 0 0 1-5.27.22z" fill="url(#_%C3%82%C3%81_%C3%8F_%C3%8C%C3%8C_%C3%88_%C3%8B%C3%82%C3%8C%C3%9A_300-4)"/><path class="cls-8" transform="translate(0 -1.86)" d="m117.4 27.55-19-11a4.91 4.91 0 0 0-2.66-.51 4.43 4.43 0 0 1 1.92.51l19 11c1.35.78 1.18 2.14-.38 3L98 41.12a6.07 6.07 0 0 1-2.61.74 6.12 6.12 0 0 0 3.35-.74L117 30.59c1.58-.9 1.75-2.26.4-3.04z"/><path transform="translate(0 -1.86)" d="M94.13 38.18 80 30c-1-.58-.88-1.59.28-2.26l13.58-7.84a4.35 4.35 0 0 1 3.93-.17l14.14 8.17c1 .58.88 1.59-.28 2.27L98.06 38a4.38 4.38 0 0 1-3.93.18z" fill="url(#_%C3%82%C3%81_%C3%8F_%C3%8C%C3%8C_%C3%88_%C3%8B%C3%82%C3%8C%C3%9A_302-4)"/><path class="cls-20" transform="translate(0 -1.86)" d="m94.64 35.64-10.25-5.92c-.73-.42-.64-1.15.2-1.64l9.84-5.68a3.14 3.14 0 0 1 2.84-.12l10.25 5.92c.73.42.64 1.16-.2 1.64l-9.84 5.68a3.14 3.14 0 0 1-2.84.12z"/><path class="cls-17" transform="translate(0 -1.86)" d="m94.36 41.34-19-11c-1.35-.78-1.18-2.14.38-3L94 16.8a6 6 0 0 1 2.57-.73 6.18 6.18 0 0 0-3.42.73L74.89 27.33c-1.56.9-1.73 2.26-.38 3l19 11a4.87 4.87 0 0 0 2.7.51 4.3 4.3 0 0 1-1.85-.5z"/><g clip-path="url(#l)"><path class="cls-22" transform="translate(0 -1.86)" d="m84.59 28.88 9.84-5.68a3.14 3.14 0 0 1 2.84-.12L107.53 29a1.13 1.13 0 0 1 .36.32.76.76 0 0 0-.36-1.12l-10.26-5.92a3.14 3.14 0 0 0-2.84.12l-9.84 5.68c-.66.38-.85.91-.57 1.32a1.72 1.72 0 0 1 .57-.52z"/><path class="cls-23" transform="translate(0 -1.86)" d="m84.59 29.85 9.84-5.69a3.17 3.17 0 0 1 2.84-.11L107.53 30a1.08 1.08 0 0 1 .3.25.78.78 0 0 0-.3-1.22l-10.26-5.95a3.14 3.14 0 0 0-2.84.12l-9.84 5.68c-.7.4-.87 1-.51 1.39a1.85 1.85 0 0 1 .51-.42z"/><path class="cls-24" transform="translate(0 -1.86)" d="M84.18 31.34a1.69 1.69 0 0 1 .41-.31l9.84-5.69a3.18 3.18 0 0 1 2.84-.12l10.26 5.92.2.15a.77.77 0 0 0-.2-1.32l-10.26-5.92a3.17 3.17 0 0 0-2.84.11l-9.84 5.69c-.76.43-.9 1.06-.41 1.49z"/></g><path class="cls-20" transform="translate(0 -1.86)" d="m81.57 44.24a1.7 1.7 0 1 1-1.69-1.7 1.69 1.69 0 0 1 1.69 1.7z"/><path class="cls-30" transform="translate(0 -1.86)" d="m85.39 48.28a2 2 0 1 1-2-2 2 2 0 0 1 2 2z"/><circle class="cls-36" cx="79.5" cy="47.5" r=".67"/><path class="cls-36" transform="translate(0 -1.86)" d="M83.37 46.44a.67.67 0 1 1-1.34 0 .67.67 0 0 1 1.34 0z"/><path class="cls-20" transform="translate(0 -1.86)" d="M90.28 56.81a.87.87 0 1 1-.87-.87.87.87 0 0 1 .87.87z"/><circle class="cls-30" cx="83.18" cy="51.85" r="1.33"/><path class="cls-30" transform="translate(0 -1.86)" d="M90.09 51.36A1.34 1.34 0 1 1 88.76 50a1.33 1.33 0 0 1 1.33 1.36z"/><circle class="cls-30" cx="112.64" cy="41.85" r="1.33"/><path class="cls-20" transform="translate(0 -1.86)" d="m114.74 48.14a1.89 1.89 0 1 1-1.89-1.89 1.89 1.89 0 0 1 1.89 1.89z"/><path class="cls-36" transform="translate(0 -1.86)" d="M110 46.65a.84.84 0 1 1-.84-.85.84.84 0 0 1 .84.85Z"/><path class="cls-36" transform="translate(0 -1.86)" d="m109.14 44.88a1.39 1.39 0 1 1-1.25-1.53 1.39 1.39 0 0 1 1.25 1.53z"/><circle class="cls-30" cx="110.24" cy="50.42" r="1.33"/><circle class="cls-36" cx="102.54" cy="56.25" r=".99"/><path class="cls-20" transform="translate(0 -1.86)" d="M107 54.6a1.68 1.68 0 1 1-1.68-1.68A1.68 1.68 0 0 1 107 54.6Z"/><path class="cls-30" transform="translate(0 -1.86)" d="m104.52 49.61a1.33 1.33 0 1 1-1.33-1.33 1.32 1.32 0 0 1 1.33 1.33zm-6.95 11.02a2 2 0 1 1-2-2 2 2 0 0 1 2 2z"/><circle class="cls-20" cx="87.91" cy="45.09" r="1.33"/><path transform="translate(0 -1.86)" d="M108 1.86H83.9V29a.83.83 0 0 0 .49.71l10.25 5.92a3.14 3.14 0 0 0 2.84-.12l9.84-5.68A1.18 1.18 0 0 0 108 29Z" fill="url(#_%C3%82%C3%81_%C3%8F_%C3%8C%C3%8C_%C3%88_%C3%8B%C3%82%C3%8C%C3%9A_370)" opacity=".2" style="mix-blend-mode:lighten"/><path transform="translate(0 -1.86)" d="M106.87 6.76H85V29a.78.78 0 0 0 .45.64L94.76 35a2.88 2.88 0 0 0 2.58-.11l8.9-5.14a1.1 1.1 0 0 0 .63-.79z" fill="url(#b)" opacity=".25" style="mix-blend-mode:lighten"/></g><path class="cls-10" transform="translate(0 -1.86)" d="m73.83 140.91-28.3-16.33c-.81-.47-.71-1.29.23-1.84l27.84-16.07a3.53 3.53 0 0 1 3.17-.13l28.3 16.34c.81.47.71 1.29-.23 1.83L77 140.78a3.53 3.53 0 0 1-3.17.13z"/><path class="cls-11" transform="translate(0 -1.86)" d="m45.53 124.58 1.37.79L73.6 110a3.53 3.53 0 0 1 3.17-.13l26.92 15.54 1.15-.66c.94-.54 1-1.36.23-1.83l-28.3-16.34a3.53 3.53 0 0 0-3.17.13l-27.84 16.03c-.94.55-1.04 1.37-.23 1.84z"/><path transform="translate(0 -1.86)" d="m123.45 107.91c0 23.84-24.76 43.45-35.71 43.45s-19.81-19.36-19.81-43.16 8.87-43.2 19.81-43.2 35.71 19.07 35.71 42.91z" fill="url(#_%C3%82%C3%81_%C3%8F_%C3%8C%C3%8C_%C3%88_%C3%8B%C3%82%C3%8C%C3%9A_371-4)" opacity=".3" style="mix-blend-mode:lighten"/><g clip-path="url(#k)"><path transform="translate(0 -1.86)" d="M97.66 125h-9.43l-10.49-6.06a5.86 5.86 0 0 0-5.27.22L62.36 125h-9.42v6.32a1.51 1.51 0 0 0 .9 1.41l19 11a5.86 5.86 0 0 0 5.27-.21l18.25-10.54a2.23 2.23 0 0 0 1.28-1.63z" fill="url(#_%C3%82%C3%81_%C3%8F_%C3%8C%C3%8C_%C3%88_%C3%8B%C3%82%C3%8C%C3%9A_377-5)"/><path transform="translate(0 -1.86)" d="M96.37 132.5 78.12 143a5.86 5.86 0 0 1-5.27.22l-19-11a1.53 1.53 0 0 1-.9-1.41v.43a1.51 1.51 0 0 0 .9 1.41l19 11a5.86 5.86 0 0 0 5.27-.21l18.25-10.54a2.23 2.23 0 0 0 1.28-1.63v-.43a2.23 2.23 0 0 1-1.28 1.66z" fill="url(#_%C3%82%C3%81_%C3%8F_%C3%8C%C3%8C_%C3%88_%C3%8B%C3%82%C3%8C%C3%9A_388-3)"/><path class="cls-17" transform="translate(0 -1.86)" d="M53.54 131.74v-6.33H63l10.11-5.84a5.86 5.86 0 0 1 5.27-.21l10.49 6h8.83V125h-9.47l-10.49-6.06a5.86 5.86 0 0 0-5.27.22L62.36 125h-9.42v6.32a1.51 1.51 0 0 0 .9 1.41l.11.07a1.31 1.31 0 0 1-.41-1.06z"/><path class="cls-8" transform="translate(0 -1.86)" d="M97.12 125.48v6.3a1.6 1.6 0 0 1-.45 1 2 2 0 0 0 1-1.44V125a2.88 2.88 0 0 0-.55.48z"/><path transform="translate(0 -1.86)" d="m72.85 137.36-19-11c-1.35-.78-1.18-2.14.38-3l18.24-10.54a5.86 5.86 0 0 1 5.27-.22l19 11c1.35.78 1.19 2.15-.37 3l-18.25 10.54a5.86 5.86 0 0 1-5.27.22z" fill="url(#_%C3%82%C3%81_%C3%8F_%C3%8C%C3%8C_%C3%88_%C3%8B%C3%82%C3%8C%C3%9A_300-5)"/><path class="cls-8" transform="translate(0 -1.86)" d="m96.74 123.56-19-11a4.91 4.91 0 0 0-2.66-.51 4.39 4.39 0 0 1 1.92.51l19 11c1.35.78 1.18 2.15-.38 3l-18.24 10.58a6 6 0 0 1-2.61.73 6.18 6.18 0 0 0 3.35-.73l18.25-10.53c1.56-.9 1.72-2.27.37-3.05z"/><path transform="translate(0 -1.86)" d="M73.48 134.19 59.33 126c-1-.58-.88-1.6.28-2.27l13.58-7.84a4.38 4.38 0 0 1 3.93-.16l14.14 8.16c1 .59.88 1.6-.28 2.27L77.4 134a4.33 4.33 0 0 1-3.92.19z" fill="url(#_%C3%82%C3%81_%C3%8F_%C3%8C%C3%8C_%C3%88_%C3%8B%C3%82%C3%8C%C3%9A_302-5)"/><path class="cls-20" transform="translate(0 -1.86)" d="m74 131.65-10.25-5.91c-.73-.42-.64-1.16.2-1.64l9.84-5.68a3.16 3.16 0 0 1 2.85-.12l10.24 5.91c.73.43.64 1.16-.2 1.65l-9.84 5.68a3.14 3.14 0 0 1-2.84.11Z"/><path class="cls-17" transform="translate(0 -1.86)" d="m73.7 137.36-19-11c-1.35-.78-1.18-2.14.38-3l18.24-10.54a6.07 6.07 0 0 1 2.57-.73 6.29 6.29 0 0 0-3.42.73l-18.24 10.53c-1.56.9-1.73 2.26-.38 3l19 11a5 5 0 0 0 2.7.51 4.44 4.44 0 0 1-1.85-.5z"/><g clip-path="url(#j)"><path class="cls-22" transform="translate(0 -1.86)" d="m63.93 124.9 9.84-5.69a3.16 3.16 0 0 1 2.85-.11l10.25 5.9a1.16 1.16 0 0 1 .36.33.77.77 0 0 0-.36-1.13l-10.25-5.92a3.2 3.2 0 0 0-2.85.12l-9.84 5.69c-.66.37-.85.9-.56 1.32a1.42 1.42 0 0 1 .56-.51z"/><path class="cls-23" transform="translate(0 -1.86)" d="m63.93 125.86 9.84-5.68a3.16 3.16 0 0 1 2.85-.12L86.87 126a1.08 1.08 0 0 1 .3.25.77.77 0 0 0-.3-1.22l-10.25-5.93a3.16 3.16 0 0 0-2.85.11l-9.84 5.69c-.69.4-.87 1-.51 1.39a1.87 1.87 0 0 1 .51-.43z"/><path class="cls-24" transform="translate(0 -1.86)" d="M63.52 127.36a2 2 0 0 1 .41-.32l9.84-5.68a3.16 3.16 0 0 1 2.85-.12l10.25 5.92a1 1 0 0 1 .2.14.78.78 0 0 0-.2-1.32l-10.25-5.92a3.16 3.16 0 0 0-2.85.12l-9.84 5.68c-.75.44-.93 1.07-.41 1.5z"/></g><path transform="translate(0 -1.86)" d="M97.66 111.17h-9.43l-10.49-6a5.86 5.86 0 0 0-5.27.21l-10.11 5.84h-9.42v6.33a1.52 1.52 0 0 0 .9 1.41l19 11a5.86 5.86 0 0 0 5.27-.22l18.25-10.53a2.23 2.23 0 0 0 1.28-1.63z" fill="url(#_%C3%82%C3%81_%C3%8F_%C3%8C%C3%8C_%C3%88_%C3%8B%C3%82%C3%8C%C3%9A_377-6)"/><path transform="translate(0 -1.86)" d="m96.37 118.69-18.25 10.54a5.86 5.86 0 0 1-5.27.21l-19-11a1.51 1.51 0 0 1-.9-1.41v.44a1.52 1.52 0 0 0 .9 1.41l19 11a5.86 5.86 0 0 0 5.27-.22l18.25-10.53a2.23 2.23 0 0 0 1.28-1.63v-.44a2.23 2.23 0 0 1-1.28 1.63z" fill="url(#_%C3%82%C3%81_%C3%8F_%C3%8C%C3%8C_%C3%88_%C3%8B%C3%82%C3%8C%C3%9A_388-4)"/><path class="cls-17" transform="translate(0 -1.86)" d="M53.54 117.93v-6.32H63l10.11-5.84a5.86 5.86 0 0 1 5.27-.22l10.49 6.06h8.83v-.44h-9.47l-10.49-6a5.86 5.86 0 0 0-5.27.21l-10.11 5.84h-9.42v6.33a1.52 1.52 0 0 0 .9 1.41l.16.04a1.3 1.3 0 0 1-.46-1.07z"/><path class="cls-8" transform="translate(0 -1.86)" d="M97.12 111.68V118a1.6 1.6 0 0 1-.45 1 2.06 2.06 0 0 0 1-1.44v-6.26a2.54 2.54 0 0 0-.55.38z"/><path transform="translate(0 -1.86)" d="m72.85 123.55-19-11c-1.35-.78-1.18-2.14.38-3L72.47 99a5.86 5.86 0 0 1 5.27-.22l19 11c1.35.78 1.19 2.14-.37 3l-18.25 10.56a5.86 5.86 0 0 1-5.27.21z" fill="url(#_%C3%82%C3%81_%C3%8F_%C3%8C%C3%8C_%C3%88_%C3%8B%C3%82%C3%8C%C3%9A_300-6)"/><path class="cls-8" transform="translate(0 -1.86)" d="m96.74 109.76-19-11a4.91 4.91 0 0 0-2.66-.51 4.39 4.39 0 0 1 1.92.51l19 11c1.35.78 1.18 2.14-.38 3l-18.24 10.58a6 6 0 0 1-2.61.73 6.18 6.18 0 0 0 3.35-.73l18.25-10.54c1.56-.9 1.72-2.26.37-3.04z"/><path transform="translate(0 -1.86)" d="m73.48 120.39-14.15-8.17c-1-.58-.88-1.59.28-2.26l13.58-7.84a4.38 4.38 0 0 1 3.93-.17l14.14 8.17c1 .58.88 1.6-.28 2.27l-13.58 7.84a4.36 4.36 0 0 1-3.92.16z" fill="url(#_%C3%82%C3%81_%C3%8F_%C3%8C%C3%8C_%C3%88_%C3%8B%C3%82%C3%8C%C3%9A_302-6)"/><path class="cls-20" transform="translate(0 -1.86)" d="m74 117.85-10.25-5.92c-.73-.42-.64-1.15.2-1.64l9.84-5.68a3.2 3.2 0 0 1 2.85-.12l10.24 5.92c.73.42.64 1.16-.2 1.64l-9.84 5.68a3.14 3.14 0 0 1-2.84.12Z"/><path class="cls-17" transform="translate(0 -1.86)" d="m73.7 123.55-19-11c-1.35-.78-1.18-2.14.38-3L73.32 99a6.07 6.07 0 0 1 2.57-.73 6.29 6.29 0 0 0-3.42.73l-18.24 10.54c-1.56.9-1.73 2.26-.38 3l19 11a4.87 4.87 0 0 0 2.7.51 4.16 4.16 0 0 1-1.85-.5z"/><g clip-path="url(#i)"><path class="cls-22" transform="translate(0 -1.86)" d="m63.93 111.09 9.84-5.68a3.16 3.16 0 0 1 2.85-.12l10.25 5.92a1 1 0 0 1 .36.32.76.76 0 0 0-.36-1.12l-10.25-5.92a3.16 3.16 0 0 0-2.85.12l-9.84 5.68c-.66.38-.85.91-.56 1.32a1.58 1.58 0 0 1 .56-.52z"/><path class="cls-23" transform="translate(0 -1.86)" d="m63.93 112.06 9.84-5.69a3.19 3.19 0 0 1 2.85-.11l10.25 5.92a1.08 1.08 0 0 1 .3.25.77.77 0 0 0-.3-1.22l-10.25-5.92a3.16 3.16 0 0 0-2.85.12l-9.84 5.68c-.69.4-.87 1-.51 1.39a1.85 1.85 0 0 1 .51-.42z"/><path class="cls-24" transform="translate(0 -1.86)" d="M63.52 113.55a1.69 1.69 0 0 1 .41-.31l9.84-5.69a3.16 3.16 0 0 1 2.85-.11l10.25 5.91.2.15a.77.77 0 0 0-.2-1.32l-10.25-5.92a3.19 3.19 0 0 0-2.85.11l-9.84 5.69c-.75.43-.93 1.06-.41 1.49z"/></g><path class="cls-30" transform="translate(0 -1.86)" d="m87.36 97.11-24.12 1.15v12.91a.82.82 0 0 0 .49.76L74 117.85a3.14 3.14 0 0 0 2.84-.12l9.84-5.68a1.14 1.14 0 0 0 .69-1z"/><path class="cls-30" transform="translate(0 -1.86)" d="m97.66 93.39-44.72.44v17.6a1.53 1.53 0 0 0 .9 1.41l19 11a5.86 5.86 0 0 0 5.27-.22l18.25-10.53a2.13 2.13 0 0 0 1.27-1.77z"/><path transform="translate(0 -1.86)" d="M97.66 87.5h-9.43l-10.49-6.06a5.86 5.86 0 0 0-5.27.22L62.36 87.5h-9.42v6.33a1.53 1.53 0 0 0 .9 1.41l19 11a5.86 5.86 0 0 0 5.27-.22l18.26-10.56a2.23 2.23 0 0 0 1.28-1.63z" fill="url(#_%C3%82%C3%81_%C3%8F_%C3%8C%C3%8C_%C3%88_%C3%8B%C3%82%C3%8C%C3%9A_377-7)"/><path transform="translate(0 -1.86)" d="m96.37 95-18.25 10.55a5.86 5.86 0 0 1-5.27.22l-19-11a1.51 1.51 0 0 1-.9-1.41v.44a1.53 1.53 0 0 0 .9 1.41l19 11a5.86 5.86 0 0 0 5.27-.22l18.25-10.53a2.23 2.23 0 0 0 1.28-1.63v-.44A2.23 2.23 0 0 1 96.37 95Z" fill="url(#_%C3%82%C3%81_%C3%8F_%C3%8C%C3%8C_%C3%88_%C3%8B%C3%82%C3%8C%C3%9A_337-3)" style="mix-blend-mode:lighten"/><path class="cls-17" transform="translate(0 -1.86)" d="M53.54 94.26v-6.32H63l10.07-5.84a5.86 5.86 0 0 1 5.27-.22l10.49 6.06h8.83v-.44h-9.43l-10.49-6.06a5.86 5.86 0 0 0-5.27.22L62.36 87.5h-9.42v6.33a1.53 1.53 0 0 0 .9 1.41l.11.06a1.3 1.3 0 0 1-.41-1.04z"/><path class="cls-8" transform="translate(0 -1.86)" d="M97.12 88v6.3a1.6 1.6 0 0 1-.45 1 2.08 2.08 0 0 0 1-1.44v-6.29a2.54 2.54 0 0 0-.55.43Z"/><path transform="translate(0 -1.86)" d="m72.85 99.88-19-11c-1.35-.78-1.18-2.14.38-3l18.24-10.54a5.86 5.86 0 0 1 5.27-.22l19 11c1.35.78 1.19 2.14-.37 3L78.12 99.66a5.86 5.86 0 0 1-5.27.22z" fill="url(#_%C3%82%C3%81_%C3%8F_%C3%8C%C3%8C_%C3%88_%C3%8B%C3%82%C3%8C%C3%9A_300-7)"/><path class="cls-8" transform="translate(0 -1.86)" d="m96.74 86.09-19-11a4.91 4.91 0 0 0-2.66-.52 4.54 4.54 0 0 1 1.92.52l19 11c1.35.78 1.18 2.14-.38 3L77.38 99.66a6 6 0 0 1-2.61.74 6.1 6.1 0 0 0 3.35-.74l18.25-10.53c1.56-.9 1.72-2.26.37-3.04z"/><path transform="translate(0 -1.86)" d="m73.48 96.72-14.15-8.17c-1-.58-.88-1.59.28-2.26l13.58-7.85a4.38 4.38 0 0 1 3.93-.16l14.14 8.17c1 .58.88 1.59-.28 2.26L77.4 96.56a4.36 4.36 0 0 1-3.92.16z" fill="url(#_%C3%82%C3%81_%C3%8F_%C3%8C%C3%8C_%C3%88_%C3%8B%C3%82%C3%8C%C3%9A_302-7)"/><path class="cls-20" transform="translate(0 -1.86)" d="m74 94.18-10.27-5.92c-.73-.42-.64-1.15.2-1.64l9.84-5.68a3.16 3.16 0 0 1 2.85-.12l10.24 5.92c.73.42.64 1.15-.2 1.64l-9.84 5.68a3.14 3.14 0 0 1-2.82.12Z"/><path class="cls-17" transform="translate(0 -1.86)" d="m73.7 99.88-19-11c-1.35-.78-1.18-2.14.38-3l18.24-10.54a6.07 6.07 0 0 1 2.57-.73 6.11 6.11 0 0 0-3.42.73L54.23 85.87c-1.56.9-1.73 2.26-.38 3l19 11a4.87 4.87 0 0 0 2.7.51 4.3 4.3 0 0 1-1.85-.5z"/><path transform="translate(0 -1.86)" d="M87.36 36.13H63.24v51.42a.83.83 0 0 0 .49.71L74 94.18a3.14 3.14 0 0 0 2.84-.12l9.84-5.68a1.18 1.18 0 0 0 .69-.88z" fill="url(#_%C3%82%C3%81_%C3%8F_%C3%8C%C3%8C_%C3%88_%C3%8B%C3%82%C3%8C%C3%9A_370-2)" opacity=".2" style="mix-blend-mode:lighten"/><path transform="translate(0 -1.86)" d="M86.21 41H64.38v46.57a.78.78 0 0 0 .45.64l9.27 5.36a2.88 2.88 0 0 0 2.58-.11l8.9-5.14a1.1 1.1 0 0 0 .63-.79z" fill="url(#_%C3%82%C3%81_%C3%8F_%C3%8C%C3%8C_%C3%88_%C3%8B%C3%82%C3%8C%C3%9A_384-2)" opacity=".25" style="mix-blend-mode:lighten"/><g clip-path="url(#h)"><path class="cls-22" transform="translate(0 -1.86)" d="m63.93 87.42 9.84-5.68a3.16 3.16 0 0 1 2.85-.12l10.25 5.92a1 1 0 0 1 .36.32.76.76 0 0 0-.36-1.12l-10.25-5.92a3.16 3.16 0 0 0-2.85.12l-9.84 5.68c-.66.38-.85.91-.56 1.32a1.5 1.5 0 0 1 .56-.52z"/><path class="cls-23" transform="translate(0 -1.86)" d="m63.93 88.39 9.84-5.69a3.16 3.16 0 0 1 2.85-.11l10.25 5.91a1.31 1.31 0 0 1 .3.26.77.77 0 0 0-.3-1.22l-10.25-5.92a3.16 3.16 0 0 0-2.85.12l-9.84 5.68c-.69.4-.87 1-.51 1.39a1.69 1.69 0 0 1 .51-.42z"/><path class="cls-24" transform="translate(0 -1.86)" d="M63.52 89.88a1.69 1.69 0 0 1 .41-.31l9.84-5.69a3.2 3.2 0 0 1 2.85-.12l10.25 5.92a1.73 1.73 0 0 1 .2.15.78.78 0 0 0-.2-1.33l-10.25-5.91a3.16 3.16 0 0 0-2.85.11l-9.84 5.69c-.75.43-.93 1.06-.41 1.49z"/></g><path class="cls-20" transform="translate(0 -1.86)" d="M70.47 83.24a.9.9 0 1 1-.89-.89.89.89 0 0 1 .89.89z"/><circle class="cls-20" cx="76.35" cy="75.36" r="1.53"/><circle class="cls-20" cx="74.46" cy="74.39" r=".39"/><circle class="cls-20" cx="81.15" cy="66.69" r=".77"/><circle class="cls-20" cx="77.11" cy="60.18" r=".54"/><circle class="cls-20" cx="70.47" cy="56.02" r=".98"/><path class="cls-20" transform="translate(0 -1.86)" d="M77.88 50.92a2 2 0 1 1-2-2 2 2 0 0 1 2 2zm-3.98-1.26a.55.55 0 1 1-.54-.55.55.55 0 0 1 .54.55z"/><circle class="cls-20" cx="77.49" cy="51.45" r=".64"/><path class="cls-20" transform="translate(0 -1.86)" d="M78.62 52a.31.31 0 1 1-.31-.31.31.31 0 0 1 .31.31Z"/><circle class="cls-20" cx="81.77" cy="43.4" r=".9"/><path class="cls-20" transform="translate(0 -1.86)" d="m60.91 102.78a1.7 1.7 0 1 1-1.69-1.7 1.69 1.69 0 0 1 1.69 1.7z"/><path class="cls-30" transform="translate(0 -1.86)" d="m64.73 106.82a2 2 0 1 1-2-2 2 2 0 0 1 2 2z"/><path class="cls-36" transform="translate(0 -1.86)" d="M59.51 107.9a.67.67 0 0 1-.67.67.68.68 0 1 1 .67-.67z"/><circle class="cls-36" cx="62.04" cy="103.13" r=".67"/><path class="cls-20" transform="translate(0 -1.86)" d="M69.62 115.35a.87.87 0 1 1-.87-.87.87.87 0 0 1 .87.87z"/><circle class="cls-30" cx="62.52" cy="110.39" r="1.33"/><circle class="cls-30" cx="68.1" cy="108.05" r="1.33"/><circle class="cls-30" cx="91.99" cy="100.39" r="1.33"/><path class="cls-20" transform="translate(0 -1.86)" d="m94.09 106.68a1.89 1.89 0 1 1-1.89-1.89 1.89 1.89 0 0 1 1.89 1.89z"/><circle class="cls-36" cx="88.51" cy="103.33" r=".84"/><path class="cls-36" transform="translate(0 -1.86)" d="m88.48 103.42a1.39 1.39 0 1 1-1.25-1.53 1.39 1.39 0 0 1 1.25 1.53z"/><circle class="cls-30" cx="89.58" cy="108.96" r="1.33"/><path class="cls-36" transform="translate(0 -1.86)" d="m82.87 116.65a1 1 0 1 1-1-1 1 1 0 0 1 1 1z"/><path class="cls-20" transform="translate(0 -1.86)" d="m86.38 113.14a1.68 1.68 0 1 1-1.67-1.68 1.67 1.67 0 0 1 1.67 1.68z"/><path class="cls-30" transform="translate(0 -1.86)" d="m83.87 108.15a1.34 1.34 0 1 1-1.34-1.33 1.33 1.33 0 0 1 1.34 1.33z"/><circle class="cls-30" cx="74.91" cy="117.32" r="1.99"/><circle class="cls-20" cx="67.25" cy="103.63" r="1.33"/></g><path class="cls-7" transform="translate(0 -1.86)" d="M77.28 178.43a10 10 0 0 1-5-1.21l-40.9-23.53a4 4 0 0 1 0-7.39L54 133.2a1.43 1.43 0 1 1 1.43 2.47l-22.61 13.11c-.66.38-1.05.83-1.05 1.22s.39.83 1 1.21l40.94 23.53a7.9 7.9 0 0 0 7.06 0l22.7-13a1.43 1.43 0 1 1 1.43 2.48l-22.7 13a10.11 10.11 0 0 1-4.92 1.21z"/><path class="cls-8" transform="translate(0 -1.86)" d="M77.28 177.28a9 9 0 0 1-4.39-1.05L32 152.69a2.86 2.86 0 0 1 0-5.39l22.62-13.11.29.49-22.67 13.11a2.31 2.31 0 0 0 0 4.41l40.94 23.54a9.11 9.11 0 0 0 8.2 0l22.71-13 .28.5-22.7 13a9 9 0 0 1-4.39 1.04z"/><path class="cls-9" transform="translate(0 -1.86)" d="M48 138.36a1.3 1.3 0 1 1 1.77.45 1.3 1.3 0 0 1-1.77-.45zm-6.82 3.92a1.31 1.31 0 1 1 1.78.46 1.3 1.3 0 0 1-1.78-.46zm-6.76 3.92a1.3 1.3 0 1 1 1.77.46 1.3 1.3 0 0 1-1.77-.46zm-3.26 5.54a1 1 0 0 1-1 .28 1.43 1.43 0 0 1-1-1 1.49 1.49 0 0 1 .23-1.43.9.9 0 0 1 1-.27 3.18 3.18 0 0 1 .82.49c.21.16.37.25.41.39a2 2 0 0 1-.46 1.54zm6.69 4.02a1.3 1.3 0 1 1-.49-1.77 1.29 1.29 0 0 1 .49 1.77zm6.78 3.89a1.29 1.29 0 0 1-1.77.47 1.29 1.29 0 1 1 1.28-2.23 1.29 1.29 0 0 1 .49 1.76zm6.78 3.9a1.3 1.3 0 1 1-.49-1.76 1.29 1.29 0 0 1 .49 1.76zm6.78 3.9a1.3 1.3 0 0 1-1.77.46 1.29 1.29 0 1 1 1.28-2.23 1.31 1.31 0 0 1 .49 1.77zm6.81 3.89a1.3 1.3 0 1 1-.49-1.76 1.3 1.3 0 0 1 .49 1.76zm6.74 3.9a1.3 1.3 0 1 1-.49-1.76 1.28 1.28 0 0 1 .49 1.76zm7.44 1.58a1.23 1.23 0 0 1-1.18 1.44 1.24 1.24 0 0 1-1.41-1.26 1.3 1.3 0 0 1 2.59-.15zm6.96-3.48a1.3 1.3 0 1 1-1.77-.47 1.3 1.3 0 0 1 1.77.47zm6.78-3.89a1.3 1.3 0 0 1-2.26 1.29 1.3 1.3 0 0 1 2.26-1.29zm6.79-3.89a1.3 1.3 0 0 1-2.26 1.29 1.3 1.3 0 0 1 2.26-1.29z"/><path class="cls-64" transform="translate(0 -1.86)" d="m168.83 135.73-20-11.53c-1.42-.82-1.25-2.25.39-3.2l19.18-11.07a6.15 6.15 0 0 1 5.54-.23l20 11.53c1.42.82 1.24 2.25-.4 3.2l-19.17 11.07a6.15 6.15 0 0 1-5.54.23z"/><path transform="translate(0 -1.86)" d="M171.21 138.93a5.93 5.93 0 0 1-3-.68l-23.53-13.58a2.17 2.17 0 0 1-1.25-1.84 2.91 2.91 0 0 1 1.71-2.34l22.6-13a7.5 7.5 0 0 1 6.76-.27l23.53 13.58a2.19 2.19 0 0 1 1.25 1.84 2.93 2.93 0 0 1-1.72 2.34L175 138a7.83 7.83 0 0 1-3.79.93zm-2.72-1.09a7 7 0 0 0 6.29-.27l22.59-13a2.44 2.44 0 0 0 1.48-1.93 1.72 1.72 0 0 0-1-1.43l-23.53-13.58a7 7 0 0 0-6.29.27l-22.59 13a2.47 2.47 0 0 0-1.48 1.93 1.74 1.74 0 0 0 1 1.43z" fill="url(#a)"/><path transform="translate(0 -1.86)" d="M194.91 111H185l-11-6.37a6.15 6.15 0 0 0-5.54.23L157.8 111h-9.9v6.65a1.57 1.57 0 0 0 1 1.48l20 11.53a6.15 6.15 0 0 0 5.54-.23l19.18-11.07a2.34 2.34 0 0 0 1.35-1.71z" fill="url(#_%C3%82%C3%81_%C3%8F_%C3%8C%C3%8C_%C3%88_%C3%8B%C3%82%C3%8C%C3%9A_377-8)"/><path transform="translate(0 -1.86)" d="M193.55 118.92 174.37 130a6.15 6.15 0 0 1-5.54.23l-20-11.53a1.57 1.57 0 0 1-1-1.48v.46a1.57 1.57 0 0 0 1 1.48l20 11.53a6.15 6.15 0 0 0 5.54-.23l19.18-11.07a2.34 2.34 0 0 0 1.35-1.71v-.46a2.34 2.34 0 0 1-1.35 1.7z" fill="url(#_%C3%82%C3%81_%C3%8F_%C3%8C%C3%8C_%C3%88_%C3%8B%C3%82%C3%8C%C3%9A_388-5)"/><path class="cls-17" transform="translate(0 -1.86)" d="M148.53 118.12v-6.65h9.9l10.63-6.13a6.15 6.15 0 0 1 5.54-.23l11 6.36h9.28V111H185l-11-6.37a6.15 6.15 0 0 0-5.54.23L157.8 111h-9.9v6.65a1.57 1.57 0 0 0 1 1.48l.11.07a1.41 1.41 0 0 1-.48-1.08z"/><path class="cls-8" transform="translate(0 -1.86)" d="M194.34 111.55v6.62a1.78 1.78 0 0 1-.48 1 2.14 2.14 0 0 0 1-1.51v-6.59a3.24 3.24 0 0 0-.52.48z"/><path transform="translate(0 -1.86)" d="m168.83 124-20-11.53c-1.42-.82-1.25-2.25.39-3.2L168.4 98.2a6.15 6.15 0 0 1 5.6-.2l20 11.53c1.42.82 1.24 2.25-.4 3.2l-19.23 11.07a6.15 6.15 0 0 1-5.54.2z" fill="url(#_%C3%82%C3%81_%C3%8F_%C3%8C%C3%8C_%C3%88_%C3%8B%C3%82%C3%8C%C3%9A_300-8)"/><path class="cls-8" transform="translate(0 -1.86)" d="M194 109.53 174 98a5.07 5.07 0 0 0-2.79-.54 4.53 4.53 0 0 1 2 .54l20 11.53c1.42.82 1.24 2.25-.4 3.2l-19.22 11.07a6.21 6.21 0 0 1-2.74.77 6.42 6.42 0 0 0 3.52-.77l19.18-11.07c1.64-.95 1.82-2.38.45-3.2z"/><path transform="translate(0 -1.86)" d="M171.28 121.29a3.84 3.84 0 0 1-1.88-.44l-14.87-8.58a1.41 1.41 0 0 1-.8-1.18 1.87 1.87 0 0 1 1.1-1.5l14.28-8.24a4.76 4.76 0 0 1 4.29-.17l14.87 8.58a1.39 1.39 0 0 1 .8 1.18 1.87 1.87 0 0 1-1.09 1.5l-14.28 8.24a5 5 0 0 1-2.42.61zm.25-20.21a4.63 4.63 0 0 0-2.25.56L155 109.89a1.54 1.54 0 0 0-.93 1.2 1.08 1.08 0 0 0 .63.88l14.87 8.59a4.44 4.44 0 0 0 4-.17l14.28-8.25a1.54 1.54 0 0 0 .92-1.2 1.06 1.06 0 0 0-.63-.88l-14.87-8.59a3.47 3.47 0 0 0-1.74-.39z" fill="#480689"/><path class="cls-17" transform="translate(0 -1.86)" d="m169.73 124-20-11.53c-1.42-.82-1.24-2.25.4-3.2l19.18-11.07a6.31 6.31 0 0 1 2.7-.77 6.54 6.54 0 0 0-3.6.77l-19.16 11.1c-1.64 1-1.81 2.38-.39 3.2l20 11.53a5.18 5.18 0 0 0 2.84.54 4.49 4.49 0 0 1-1.97-.57z"/><path class="cls-64" transform="translate(0 -1.86)" d="m120.88 164.41-20-11.53c-1.42-.82-1.24-2.26.4-3.2l19.18-11.08a6.18 6.18 0 0 1 5.54-.23l20 11.54c1.42.82 1.25 2.25-.39 3.2l-19.18 11.07a6.15 6.15 0 0 1-5.55.23z"/><path transform="translate(0 -1.86)" d="M123.25 167.61a6.09 6.09 0 0 1-3-.68l-23.48-13.59a2.17 2.17 0 0 1-1.25-1.84 2.93 2.93 0 0 1 1.72-2.33l22.59-13a7.53 7.53 0 0 1 6.76-.27l23.53 13.59a2.16 2.16 0 0 1 1.25 1.84 2.93 2.93 0 0 1-1.71 2.34l-22.6 13a7.77 7.77 0 0 1-3.81.94zm.39-32a7.33 7.33 0 0 0-3.57.89l-22.59 13.08A2.45 2.45 0 0 0 96 151.5a1.72 1.72 0 0 0 1 1.44l23.53 13.58a7 7 0 0 0 6.29-.27l22.59-13a2.5 2.5 0 0 0 1.48-1.93 1.72 1.72 0 0 0-1-1.43l-23.53-13.59a5.55 5.55 0 0 0-2.72-.66z" fill="url(#_%C3%82%C3%81_%C3%8F_%C3%8C%C3%8C_%C3%88_%C3%8B%C3%82%C3%8C%C3%9A_422-2)"/><path transform="translate(0 -1.86)" d="M147 139.69h-9.9l-11-6.36a6.15 6.15 0 0 0-5.54.23l-10.63 6.13H100v6.65a1.62 1.62 0 0 0 1 1.49l20 11.53a6.15 6.15 0 0 0 5.54-.23l19.18-11.07a2.34 2.34 0 0 0 1.34-1.72z" fill="url(#_%C3%82%C3%81_%C3%8F_%C3%8C%C3%8C_%C3%88_%C3%8B%C3%82%C3%8C%C3%9A_377-9)"/><path transform="translate(0 -1.86)" d="m145.6 147.6-19.18 11.07a6.15 6.15 0 0 1-5.54.23l-20-11.53a1.62 1.62 0 0 1-1-1.49v.46a1.62 1.62 0 0 0 1 1.49l20 11.53a6.15 6.15 0 0 0 5.54-.23l19.18-11.07a2.34 2.34 0 0 0 1.34-1.72v-.46a2.34 2.34 0 0 1-1.34 1.72z" fill="url(#_%C3%82%C3%81_%C3%8F_%C3%8C%C3%8C_%C3%88_%C3%8B%C3%82%C3%8C%C3%9A_388-6)"/><path class="cls-17" transform="translate(0 -1.86)" d="M100.57 146.8v-6.65h9.9L121.1 134a6.18 6.18 0 0 1 5.54-.23l11 6.37H147v-.46h-9.9l-11-6.36a6.15 6.15 0 0 0-5.54.23l-10.63 6.13H100v6.65a1.62 1.62 0 0 0 1 1.49l.11.06a1.41 1.41 0 0 1-.54-1.08z"/><path class="cls-8" transform="translate(0 -1.86)" d="M146.39 140.23v6.61a1.72 1.72 0 0 1-.47 1 2.13 2.13 0 0 0 1-1.52v-6.58a2.74 2.74 0 0 0-.53.49z"/><path transform="translate(0 -1.86)" d="m120.88 152.71-20-11.53c-1.42-.82-1.24-2.26.4-3.2l19.18-11.07a6.15 6.15 0 0 1 5.54-.23l20 11.53c1.42.82 1.25 2.25-.39 3.2l-19.18 11.07a6.15 6.15 0 0 1-5.55.23z" fill="url(#_%C3%82%C3%81_%C3%8F_%C3%8C%C3%8C_%C3%88_%C3%8B%C3%82%C3%8C%C3%9A_300-9)"/><path class="cls-8" transform="translate(0 -1.86)" d="m146 138.21-20-11.53a5.13 5.13 0 0 0-2.8-.54 4.54 4.54 0 0 1 2 .54l20 11.53c1.42.82 1.24 2.25-.4 3.2l-19.17 11.07a6.39 6.39 0 0 1-2.75.77 6.57 6.57 0 0 0 3.53-.77l19.18-11.07c1.65-.95 1.82-2.41.41-3.2z"/><path transform="translate(0 -1.86)" d="m121.53 149.38-14.87-8.58c-1.06-.61-.92-1.68.3-2.38l14.28-8.25a4.59 4.59 0 0 1 4.12-.17l14.87 8.59c1.06.61.93 1.67-.29 2.38l-14.28 8.24a4.58 4.58 0 0 1-4.13.17z" fill="url(#_%C3%82%C3%81_%C3%8F_%C3%8C%C3%8C_%C3%88_%C3%8B%C3%82%C3%8C%C3%9A_302-8)"/><path class="cls-20" transform="translate(0 -1.86)" d="m122.06 146.71-10.77-6.22c-.77-.44-.67-1.21.21-1.72l10.35-6a3.28 3.28 0 0 1 3-.13l10.78 6.22c.76.44.67 1.22-.22 1.73l-10.34 6a3.3 3.3 0 0 1-3.01.12z"/><path class="cls-17" transform="translate(0 -1.86)" d="m121.77 152.71-20-11.53c-1.42-.82-1.24-2.26.4-3.2l19.17-11.07a6.31 6.31 0 0 1 2.7-.77 6.42 6.42 0 0 0-3.59.77L101.3 138c-1.64.94-1.82 2.38-.4 3.2l20 11.53a5.23 5.23 0 0 0 2.84.54 4.68 4.68 0 0 1-1.97-.56z"/><g clip-path="url(#p)"><path class="cls-22" transform="translate(0 -1.86)" d="m111.5 139.61 10.34-6a3.33 3.33 0 0 1 3-.12l10.78 6.22a1.28 1.28 0 0 1 .38.34.79.79 0 0 0-.38-1.18l-10.78-6.22a3.33 3.33 0 0 0-3 .12l-10.34 6c-.69.4-.9.95-.6 1.39a1.62 1.62 0 0 1 .6-.55z"/><path class="cls-23" transform="translate(0 -1.86)" d="m111.5 140.62 10.34-6a3.3 3.3 0 0 1 3-.12l10.78 6.22a1.24 1.24 0 0 1 .32.26.81.81 0 0 0-.32-1.28l-10.78-6.22a3.33 3.33 0 0 0-3 .12l-10.34 6c-.73.42-.92 1-.53 1.46a1.74 1.74 0 0 1 .53-.44z"/><path class="cls-24" transform="translate(0 -1.86)" d="M111.07 142.2a1.7 1.7 0 0 1 .43-.34l10.34-6a3.34 3.34 0 0 1 3-.13l10.77 6.27a1.13 1.13 0 0 1 .21.15.81.81 0 0 0-.21-1.39l-10.78-6.22a3.3 3.3 0 0 0-3 .12l-10.34 6c-.78.42-.94 1.08-.42 1.54z"/></g><path transform="translate(0 -1.86)" d="M136.13 121.67h-25.36v18.08a.87.87 0 0 0 .52.74l10.77 6.22a3.3 3.3 0 0 0 3-.12l10.34-6a1.27 1.27 0 0 0 .73-.93z" fill="url(#_%C3%82%C3%81_%C3%8F_%C3%8C%C3%8C_%C3%88_%C3%8B%C3%82%C3%8C%C3%9A_370-3)" opacity=".4" style="mix-blend-mode:lighten"/><path transform="translate(0 -1.86)" d="M136 86.12h-25.14v53.68a.88.88 0 0 0 .51.74l10.7 6.18a3.29 3.29 0 0 0 3-.13l10.27-5.93a1.22 1.22 0 0 0 .72-.92z" fill="url(#_%C3%82%C3%81_%C3%8F_%C3%8C%C3%8C_%C3%88_%C3%8B%C3%82%C3%8C%C3%9A_370-4)" opacity=".2" style="mix-blend-mode:lighten"/><path transform="translate(0 -1.86)" d="M134.84 91.23h-22.79v48.59a.83.83 0 0 0 .47.67l9.68 5.59a3 3 0 0 0 2.69-.11l9.29-5.37a1.13 1.13 0 0 0 .66-.83z" fill="url(#_%C3%82%C3%81_%C3%8F_%C3%8C%C3%8C_%C3%88_%C3%8B%C3%82%C3%8C%C3%9A_384-3)" opacity=".25" style="mix-blend-mode:lighten"/><path class="cls-20" transform="translate(0 -1.86)" d="M118.41 135.3a.94.94 0 1 1-.94-.94.94.94 0 0 1 .94.94z"/><circle class="cls-20" cx="124.54" cy="127.15" r="1.6"/><circle class="cls-20" cx="122.57" cy="126.13" r=".41"/><path class="cls-20" transform="translate(0 -1.86)" d="M130.36 120a.8.8 0 1 1-.8-.8.8.8 0 0 1 .8.8zm-4.45-6.85a.57.57 0 1 1-.57-.56.56.56 0 0 1 .57.56z"/></g></g></g></svg>
